<svg xmlns="http://www.w3.org/2000/svg" xmlns:xlink="http://www.w3.org/1999/xlink" width="523" height="199" viewBox="0 0 523 199">
  <defs>
    <path id="feature-how-to-a" d="M123.926563,126.452233 C111.728563,126.452233 102.266563,117.104233 102.266563,105.077233 C102.266563,93.0502326 111.728563,83.7022326 123.926563,83.7022326 C130.652563,83.7022326 136.181563,86.5522326 140.114563,91.2262326 C141.197563,92.5372326 140.912563,94.3042326 139.487563,95.3302326 L136.295563,97.6102326 C134.870563,98.6362326 133.445563,98.3512326 132.191563,97.0972326 C130.139563,94.9882326 127.289563,93.5632326 123.926563,93.5632326 C117.485563,93.5632326 112.526563,98.5792326 112.526563,105.077233 C112.526563,111.575233 117.485563,116.591233 123.926563,116.591233 C127.346563,116.591233 130.253563,115.280233 132.248563,113.000233 C133.331563,111.746233 134.813563,111.575233 136.124563,112.487233 L139.373563,114.824233 C140.855563,115.907233 141.254563,117.560233 140.171563,118.871233 C136.238563,123.545233 130.652563,126.452233 123.926563,126.452233 Z M147.695563,125.597233 C146.384563,125.597233 145.358563,124.571233 145.358563,123.260233 L145.358563,86.8942326 C145.358563,85.5832326 146.384563,84.5572326 147.695563,84.5572326 L159.608563,84.5572326 C167.588563,84.5572326 172.718563,90.4852326 172.718563,97.2682326 C172.718563,101.657233 170.552563,105.704233 166.847563,107.984233 C166.391563,108.269233 166.220563,108.782233 166.505563,109.238233 L175.397563,122.747233 C176.252563,124.058233 175.454563,125.597233 173.858563,125.597233 L167.018563,125.597233 C165.992563,125.597233 165.023563,125.084233 164.453563,124.172233 L156.929563,111.290233 C156.701563,110.948233 156.473563,110.777233 156.188563,110.777233 L156.131563,110.777233 C155.789563,110.777233 155.618563,111.062233 155.618563,111.575233 L155.618563,123.260233 C155.618563,124.571233 154.592563,125.597233 153.281563,125.597233 L147.695563,125.597233 Z M156.758563,102.512233 L157.898563,102.512233 C160.691563,102.512233 162.743563,100.574233 162.743563,97.9522326 C162.743563,95.3302326 160.691563,93.3922326 157.898563,93.3922326 L156.758563,93.3922326 C156.131563,93.3922326 155.618563,93.9052326 155.618563,94.5322326 L155.618563,101.372233 C155.618563,101.999233 156.131563,102.512233 156.758563,102.512233 Z M179.957563,125.597233 C178.304563,125.597233 177.335563,124.172233 178.076563,122.633233 L195.689563,85.3552326 C196.601563,83.4172326 198.881563,83.4172326 199.793563,85.3552326 L217.406563,122.633233 C218.147563,124.172233 217.178563,125.597233 215.525563,125.597233 L209.255563,125.597233 C207.773563,125.597233 206.519563,124.799233 205.949563,123.374233 L205.094563,121.151233 C204.866563,120.581233 204.296563,120.182233 203.669563,120.182233 L190.787563,120.182233 C190.160563,120.182233 189.590563,120.524233 189.362563,121.094233 L188.450563,123.431233 C187.937563,124.799233 186.626563,125.597233 185.144563,125.597233 L179.957563,125.597233 Z M193.808563,110.663233 C193.580563,111.119233 193.922563,111.632233 194.435563,111.632233 L200.249563,111.632233 C200.762563,111.632233 201.047563,111.176233 200.876563,110.720233 L198.197563,104.051233 C197.912563,103.367233 197.000563,103.310233 196.715563,103.994233 L193.808563,110.663233 Z M223.961563,125.597233 C222.650563,125.597233 221.624563,124.571233 221.624563,123.260233 L221.624563,86.8942326 C221.624563,85.5832326 222.650563,84.5572326 223.961563,84.5572326 L243.227563,84.5572326 C244.538563,84.5572326 245.564563,85.5832326 245.564563,86.8942326 L245.564563,91.6252326 C245.564563,92.9362326 244.538563,93.9622326 243.227563,93.9622326 L233.024563,93.9622326 C232.397563,93.9622326 231.884563,94.4752326 231.884563,95.1022326 L231.884563,99.2062326 C231.884563,99.8332326 232.397563,100.346233 233.024563,100.346233 L244.652563,100.346233 C245.963563,100.346233 246.989563,101.372233 246.989563,102.683233 L246.989563,106.616233 C246.989563,107.927233 245.963563,108.953233 244.652563,108.953233 L233.024563,108.953233 C232.397563,108.953233 231.884563,109.466233 231.884563,110.093233 L231.884563,123.260233 C231.884563,124.571233 230.858563,125.597233 229.547563,125.597233 L223.961563,125.597233 Z M251.606563,94.2472326 C250.295563,94.2472326 249.269563,93.2212326 249.269563,91.9102326 L249.269563,86.8942326 C249.269563,85.5832326 250.295563,84.5572326 251.606563,84.5572326 L277.142563,84.5572326 C278.453563,84.5572326 279.479563,85.5832326 279.479563,86.8942326 L279.479563,91.9102326 C279.479563,93.2212326 278.453563,94.2472326 277.142563,94.2472326 L270.644563,94.2472326 C270.017563,94.2472326 269.504563,94.7602326 269.504563,95.3872326 L269.504563,123.260233 C269.504563,124.571233 268.478563,125.597233 267.167563,125.597233 L261.581563,125.597233 C260.270563,125.597233 259.244563,124.571233 259.244563,123.260233 L259.244563,95.3872326 C259.244563,94.7602326 258.731563,94.2472326 258.104563,94.2472326 L251.606563,94.2472326 Z"/>
    <path id="feature-how-to-b" d="M112.174775,178.473786 C110.863775,178.473786 109.837775,177.447786 109.837775,176.136786 L109.837775,139.770786 C109.837775,138.459786 110.863775,137.433786 112.174775,137.433786 L122.377775,137.433786 C135.658775,137.433786 142.327775,146.268786 142.327775,157.953786 C142.327775,169.638786 135.658775,178.473786 122.377775,178.473786 L112.174775,178.473786 Z M120.097775,167.928786 C120.097775,168.555786 120.610775,169.068786 121.237775,169.068786 L122.377775,169.068786 C129.217775,169.068786 132.067775,164.622786 132.067775,157.953786 C132.067775,151.284786 129.217775,146.838786 122.377775,146.838786 L121.237775,146.838786 C120.610775,146.838786 120.097775,147.351786 120.097775,147.978786 L120.097775,167.928786 Z M143.296775,178.473786 C141.643775,178.473786 140.674775,177.048786 141.415775,175.509786 L159.028775,138.231786 C159.940775,136.293786 162.220775,136.293786 163.132775,138.231786 L180.745775,175.509786 C181.486775,177.048786 180.517775,178.473786 178.864775,178.473786 L172.594775,178.473786 C171.112775,178.473786 169.858775,177.675786 169.288775,176.250786 L168.433775,174.027786 C168.205775,173.457786 167.635775,173.058786 167.008775,173.058786 L154.126775,173.058786 C153.499775,173.058786 152.929775,173.400786 152.701775,173.970786 L151.789775,176.307786 C151.276775,177.675786 149.965775,178.473786 148.483775,178.473786 L143.296775,178.473786 Z M157.147775,163.539786 C156.919775,163.995786 157.261775,164.508786 157.774775,164.508786 L163.588775,164.508786 C164.101775,164.508786 164.386775,164.052786 164.215775,163.596786 L161.536775,156.927786 C161.251775,156.243786 160.339775,156.186786 160.054775,156.870786 L157.147775,163.539786 Z M220.303775,176.991786 C220.303775,179.271786 217.909775,179.841786 216.313775,178.245786 L196.648775,158.865786 C195.964775,158.181786 195.052775,158.637786 195.052775,159.549786 L195.052775,176.136786 C195.052775,177.447786 194.026775,178.473786 192.715775,178.473786 L187.300775,178.473786 C185.989775,178.473786 184.963775,177.447786 184.963775,176.136786 L184.963775,138.915786 C184.963775,136.635786 187.357775,136.065786 188.953775,137.661786 L208.618775,157.041786 C209.302775,157.725786 210.214775,157.269786 210.214775,156.357786 L210.214775,139.770786 C210.214775,138.459786 211.240775,137.433786 212.551775,137.433786 L217.966775,137.433786 C219.277775,137.433786 220.303775,138.459786 220.303775,139.770786 L220.303775,176.991786 Z M247.093775,179.328786 C234.895775,179.328786 225.433775,169.980786 225.433775,157.953786 C225.433775,145.926786 234.895775,136.578786 247.093775,136.578786 C253.819775,136.578786 259.348775,139.428786 263.281775,144.102786 C264.364775,145.413786 264.079775,147.180786 262.654775,148.206786 L259.462775,150.486786 C258.037775,151.512786 256.612775,151.227786 255.358775,149.973786 C253.306775,147.864786 250.456775,146.439786 247.093775,146.439786 C240.652775,146.439786 235.693775,151.455786 235.693775,157.953786 C235.693775,164.451786 240.652775,169.467786 247.093775,169.467786 C250.513775,169.467786 253.420775,168.156786 255.415775,165.876786 C256.498775,164.622786 257.980775,164.451786 259.291775,165.363786 L262.540775,167.700786 C264.022775,168.783786 264.421775,170.436786 263.338775,171.747786 C259.405775,176.421786 253.819775,179.328786 247.093775,179.328786 Z M270.862775,178.473786 C269.551775,178.473786 268.525775,177.447786 268.525775,176.136786 L268.525775,139.770786 C268.525775,138.459786 269.551775,137.433786 270.862775,137.433786 L290.128775,137.433786 C291.439775,137.433786 292.465775,138.459786 292.465775,139.770786 L292.465775,144.501786 C292.465775,145.812786 291.439775,146.838786 290.128775,146.838786 L279.925775,146.838786 C279.298775,146.838786 278.785775,147.351786 278.785775,147.978786 L278.785775,152.082786 C278.785775,152.709786 279.298775,153.222786 279.925775,153.222786 L291.553775,153.222786 C292.864775,153.222786 293.890775,154.248786 293.890775,155.559786 L293.890775,159.492786 C293.890775,160.803786 292.864775,161.829786 291.553775,161.829786 L279.925775,161.829786 C279.298775,161.829786 278.785775,162.342786 278.785775,162.969786 L278.785775,167.928786 C278.785775,168.555786 279.298775,169.068786 279.925775,169.068786 L291.838775,169.068786 C293.149775,169.068786 294.175775,170.094786 294.175775,171.405786 L294.175775,176.136786 C294.175775,177.447786 293.149775,178.473786 291.838775,178.473786 L270.862775,178.473786 Z"/>
  </defs>
  <g fill="none" fill-rule="evenodd" transform="translate(-1 3)">
    <g stroke-width="11" transform="rotate(-4 122.082 2.09)">
      <rect width="56" height="55" x="5.5" y="25.617" stroke="#FEFEFE"/>
      <path stroke="#EF5C53" stroke-linecap="round" d="M10.3086208,38.8903007 C14.2572601,49.2230242 17.5498797,59.8278791 22.1545387,69.8884713 C22.4512499,70.5367474 23.6105758,69.5398515 24.1030138,69.0292888 L47.2278698,51.2828882 C62.8044693,35.132972 89.8375819,13.0834548 100.046971,8" transform="rotate(-10 55.178 39.05)"/>
    </g>
    <path fill="#FFF" fill-rule="nonzero" d="M106.229742,25.2547497 C107.312742,25.2547497 108.053742,26.0527497 107.996742,27.1927497 L106.913742,41.9557497 C106.799742,43.1527497 105.830742,44.0647497 104.633742,44.0647497 L99.7317423,44.0647497 C98.5917423,44.0647497 97.7367423,43.2097497 97.9077423,42.0127497 L99.9027423,27.1927497 C100.073742,25.9957497 100.985742,25.2547497 102.125742,25.2547497 L106.229742,25.2547497 Z M116.204742,66.2947497 C114.893742,66.2947497 113.867742,65.2687497 113.867742,63.9577497 L113.867742,27.5917497 C113.867742,26.2807497 114.893742,25.2547497 116.204742,25.2547497 L121.790742,25.2547497 C123.101742,25.2547497 124.127742,26.2807497 124.127742,27.5917497 L124.127742,39.2197497 C124.127742,39.8467497 124.640742,40.3597497 125.267742,40.3597497 L138.947742,40.3597497 C139.574742,40.3597497 140.087742,39.8467497 140.087742,39.2197497 L140.087742,27.5917497 C140.087742,26.2807497 141.113742,25.2547497 142.424742,25.2547497 L148.010742,25.2547497 C149.321742,25.2547497 150.347742,26.2807497 150.347742,27.5917497 L150.347742,63.9577497 C150.347742,65.2687497 149.321742,66.2947497 148.010742,66.2947497 L142.424742,66.2947497 C141.113742,66.2947497 140.087742,65.2687497 140.087742,63.9577497 L140.087742,51.1897497 C140.087742,50.5627497 139.574742,50.0497497 138.947742,50.0497497 L125.267742,50.0497497 C124.640742,50.0497497 124.127742,50.5627497 124.127742,51.1897497 L124.127742,63.9577497 C124.127742,65.2687497 123.101742,66.2947497 121.790742,66.2947497 L116.204742,66.2947497 Z M177.137742,67.1497497 C164.939742,67.1497497 155.477742,57.8017497 155.477742,45.7747497 C155.477742,33.7477497 164.939742,24.3997497 177.137742,24.3997497 C189.335742,24.3997497 198.797742,33.7477497 198.797742,45.7747497 C198.797742,57.8017497 189.335742,67.1497497 177.137742,67.1497497 Z M177.137742,57.4597497 C183.578742,57.4597497 188.537742,52.3297497 188.537742,45.7747497 C188.537742,39.2197497 183.578742,34.0897497 177.137742,34.0897497 C170.696742,34.0897497 165.737742,39.2197497 165.737742,45.7747497 C165.737742,52.3297497 170.696742,57.4597497 177.137742,57.4597497 Z M198.968742,27.9907497 C198.398742,26.5657497 199.310742,25.2547497 200.849742,25.2547497 L207.518742,25.2547497 C208.601742,25.2547497 209.513742,25.8247497 209.912742,26.9077497 L216.581742,44.2927497 C216.866742,45.0337497 217.778742,45.1477497 218.120742,44.3497497 L226.385742,26.3377497 C227.126742,24.6847497 229.064742,24.7417497 229.805742,26.3947497 L238.070742,44.4067497 C238.412742,45.2047497 239.324742,45.0907497 239.609742,44.3497497 L246.278742,26.9077497 C246.677742,25.8247497 247.589742,25.2547497 248.672742,25.2547497 L254.201742,25.2547497 C255.740742,25.2547497 256.652742,26.5657497 256.082742,27.9907497 L241.433742,65.6677497 C240.749742,67.4917497 238.640742,67.6627497 237.785742,65.8387497 L228.266742,45.4327497 C227.981742,44.7487497 227.069742,44.7487497 226.784742,45.4327497 L217.265742,65.8387497 C216.410742,67.6627497 214.301742,67.4917497 213.617742,65.6677497 L198.968742,27.9907497 Z M257.450742,52.9567497 C256.139742,52.9567497 255.113742,51.9307497 255.113742,50.6197497 L255.113742,46.7437497 C255.113742,45.4327497 256.139742,44.4067497 257.450742,44.4067497 L272.156742,44.4067497 C273.467742,44.4067497 274.493742,45.4327497 274.493742,46.7437497 L274.493742,50.6197497 C274.493742,51.9307497 273.467742,52.9567497 272.156742,52.9567497 L257.450742,52.9567497 Z M273.980742,34.9447497 C272.669742,34.9447497 271.643742,33.9187497 271.643742,32.6077497 L271.643742,27.5917497 C271.643742,26.2807497 272.669742,25.2547497 273.980742,25.2547497 L299.516742,25.2547497 C300.827742,25.2547497 301.853742,26.2807497 301.853742,27.5917497 L301.853742,32.6077497 C301.853742,33.9187497 300.827742,34.9447497 299.516742,34.9447497 L293.018742,34.9447497 C292.391742,34.9447497 291.878742,35.4577497 291.878742,36.0847497 L291.878742,63.9577497 C291.878742,65.2687497 290.852742,66.2947497 289.541742,66.2947497 L283.955742,66.2947497 C282.644742,66.2947497 281.618742,65.2687497 281.618742,63.9577497 L281.618742,36.0847497 C281.618742,35.4577497 281.105742,34.9447497 280.478742,34.9447497 L273.980742,34.9447497 Z M324.653742,67.1497497 C312.455742,67.1497497 302.993742,57.8017497 302.993742,45.7747497 C302.993742,33.7477497 312.455742,24.3997497 324.653742,24.3997497 C336.851742,24.3997497 346.313742,33.7477497 346.313742,45.7747497 C346.313742,57.8017497 336.851742,67.1497497 324.653742,67.1497497 Z M324.653742,57.4597497 C331.094742,57.4597497 336.053742,52.3297497 336.053742,45.7747497 C336.053742,39.2197497 331.094742,34.0897497 324.653742,34.0897497 C318.212742,34.0897497 313.253742,39.2197497 313.253742,45.7747497 C313.253742,52.3297497 318.212742,57.4597497 324.653742,57.4597497 Z M352.241742,44.0647497 C351.158742,44.0647497 350.417742,43.2667497 350.474742,42.1267497 L351.557742,27.3637497 C351.671742,26.1667497 352.640742,25.2547497 353.837742,25.2547497 L358.739742,25.2547497 C359.879742,25.2547497 360.734742,26.1097497 360.563742,27.3067497 L358.568742,42.1267497 C358.397742,43.3237497 357.485742,44.0647497 356.345742,44.0647497 L352.241742,44.0647497 Z" transform="rotate(-3 229.236 45.775)"/>
    <g fill-rule="nonzero" transform="rotate(-3 190.873 105.077)">
      <use fill="#FFF" xlink:href="#feature-how-to-a"/>
      <use fill="#03ADB6" xlink:href="#feature-how-to-a"/>
    </g>
    <path fill="#FFF" fill-rule="nonzero" d="M298.066922,117.072089 C296.413922,117.072089 295.444922,115.647089 296.185922,114.108089 L313.798922,76.8300885 C314.710922,74.8920885 316.990922,74.8920885 317.902922,76.8300885 L335.515922,114.108089 C336.256922,115.647089 335.287922,117.072089 333.634922,117.072089 L327.364922,117.072089 C325.882922,117.072089 324.628922,116.274089 324.058922,114.849089 L323.203922,112.626089 C322.975922,112.056089 322.405922,111.657089 321.778922,111.657089 L308.896922,111.657089 C308.269922,111.657089 307.699922,111.999089 307.471922,112.569089 L306.559922,114.906089 C306.046922,116.274089 304.735922,117.072089 303.253922,117.072089 L298.066922,117.072089 Z M311.917922,102.138089 C311.689922,102.594089 312.031922,103.107089 312.544922,103.107089 L318.358922,103.107089 C318.871922,103.107089 319.156922,102.651089 318.985922,102.195089 L316.306922,95.5260885 C316.021922,94.8420885 315.109922,94.7850885 314.824922,95.4690885 L311.917922,102.138089 Z M375.073922,115.590089 C375.073922,117.870089 372.679922,118.440089 371.083922,116.844089 L351.418922,97.4640885 C350.734922,96.7800885 349.822922,97.2360885 349.822922,98.1480885 L349.822922,114.735089 C349.822922,116.046089 348.796922,117.072089 347.485922,117.072089 L342.070922,117.072089 C340.759922,117.072089 339.733922,116.046089 339.733922,114.735089 L339.733922,77.5140885 C339.733922,75.2340885 342.127922,74.6640885 343.723922,76.2600885 L363.388922,95.6400885 C364.072922,96.3240885 364.984922,95.8680885 364.984922,94.9560885 L364.984922,78.3690885 C364.984922,77.0580885 366.010922,76.0320885 367.321922,76.0320885 L372.736922,76.0320885 C374.047922,76.0320885 375.073922,77.0580885 375.073922,78.3690885 L375.073922,115.590089 Z M384.250922,117.072089 C382.939922,117.072089 381.913922,116.046089 381.913922,114.735089 L381.913922,78.3690885 C381.913922,77.0580885 382.939922,76.0320885 384.250922,76.0320885 L394.453922,76.0320885 C407.734922,76.0320885 414.403922,84.8670885 414.403922,96.5520885 C414.403922,108.237089 407.734922,117.072089 394.453922,117.072089 L384.250922,117.072089 Z M392.173922,106.527089 C392.173922,107.154089 392.686922,107.667089 393.313922,107.667089 L394.453922,107.667089 C401.293922,107.667089 404.143922,103.221089 404.143922,96.5520885 C404.143922,89.8830885 401.293922,85.4370885 394.453922,85.4370885 L393.313922,85.4370885 C392.686922,85.4370885 392.173922,85.9500885 392.173922,86.5770885 L392.173922,106.527089 Z" transform="rotate(-3 355.169 96.552)"/>
    <g fill-rule="nonzero" transform="rotate(-3 202.007 157.954)">
      <use fill="#FFF" xlink:href="#feature-how-to-b"/>
      <use fill="#A74999" xlink:href="#feature-how-to-b"/>
    </g>
    <path fill="#FFF" fill-rule="nonzero" d="M328.866733,165.25069 L315.072733,127.45969 C314.559733,126.09169 315.243733,124.72369 316.896733,124.72369 L322.824733,124.72369 C324.363733,124.72369 325.446733,125.52169 325.845733,126.88969 L330.576733,142.79269 C330.861733,143.76169 331.887733,143.76169 332.172733,142.79269 L336.903733,126.88969 C337.302733,125.52169 338.385733,124.72369 339.924733,124.72369 L344.712733,124.72369 C346.365733,124.72369 347.049733,126.09169 346.536733,127.45969 L332.742733,165.25069 C332.001733,167.24569 329.607733,167.24569 328.866733,165.25069 Z M353.604733,165.76369 C352.293733,165.76369 351.267733,164.73769 351.267733,163.42669 L351.267733,127.06069 C351.267733,125.74969 352.293733,124.72369 353.604733,124.72369 L359.190733,124.72369 C360.501733,124.72369 361.527733,125.74969 361.527733,127.06069 L361.527733,163.42669 C361.527733,164.73769 360.501733,165.76369 359.190733,165.76369 L353.604733,165.76369 Z M371.274733,165.76369 C369.963733,165.76369 368.937733,164.73769 368.937733,163.42669 L368.937733,127.06069 C368.937733,125.74969 369.963733,124.72369 371.274733,124.72369 L381.477733,124.72369 C394.758733,124.72369 401.427733,133.55869 401.427733,145.24369 C401.427733,156.92869 394.758733,165.76369 381.477733,165.76369 L371.274733,165.76369 Z M379.197733,155.21869 C379.197733,155.84569 379.710733,156.35869 380.337733,156.35869 L381.477733,156.35869 C388.317733,156.35869 391.167733,151.91269 391.167733,145.24369 C391.167733,138.57469 388.317733,134.12869 381.477733,134.12869 L380.337733,134.12869 C379.710733,134.12869 379.197733,134.64169 379.197733,135.26869 L379.197733,155.21869 Z M408.894733,165.76369 C407.583733,165.76369 406.557733,164.73769 406.557733,163.42669 L406.557733,127.06069 C406.557733,125.74969 407.583733,124.72369 408.894733,124.72369 L428.160733,124.72369 C429.471733,124.72369 430.497733,125.74969 430.497733,127.06069 L430.497733,131.79169 C430.497733,133.10269 429.471733,134.12869 428.160733,134.12869 L417.957733,134.12869 C417.330733,134.12869 416.817733,134.64169 416.817733,135.26869 L416.817733,139.37269 C416.817733,139.99969 417.330733,140.51269 417.957733,140.51269 L429.585733,140.51269 C430.896733,140.51269 431.922733,141.53869 431.922733,142.84969 L431.922733,146.78269 C431.922733,148.09369 430.896733,149.11969 429.585733,149.11969 L417.957733,149.11969 C417.330733,149.11969 416.817733,149.63269 416.817733,150.25969 L416.817733,155.21869 C416.817733,155.84569 417.330733,156.35869 417.957733,156.35869 L429.870733,156.35869 C431.181733,156.35869 432.207733,157.38469 432.207733,158.69569 L432.207733,163.42669 C432.207733,164.73769 431.181733,165.76369 429.870733,165.76369 L408.894733,165.76369 Z M457.857733,166.61869 C445.659733,166.61869 436.197733,157.27069 436.197733,145.24369 C436.197733,133.21669 445.659733,123.86869 457.857733,123.86869 C470.055733,123.86869 479.517733,133.21669 479.517733,145.24369 C479.517733,157.27069 470.055733,166.61869 457.857733,166.61869 Z M457.857733,156.92869 C464.298733,156.92869 469.257733,151.79869 469.257733,145.24369 C469.257733,138.68869 464.298733,133.55869 457.857733,133.55869 C451.416733,133.55869 446.457733,138.68869 446.457733,145.24369 C446.457733,151.79869 451.416733,156.92869 457.857733,156.92869 Z M496.560733,166.61869 C490.233733,166.61869 485.844733,163.88269 483.621733,162.05869 C482.424733,161.08969 482.424733,159.43669 483.336733,158.29669 L485.445733,155.61769 C486.528733,154.19269 488.295733,154.19269 489.720733,155.27569 C491.373733,156.52969 493.824733,157.89769 496.389733,157.89769 C499.068733,157.89769 500.322733,156.30169 500.322733,154.42069 C500.322733,152.48269 499.068733,151.11469 494.508733,149.00569 C487.041733,145.58569 483.222733,141.76669 483.222733,135.55369 C483.222733,128.82769 488.466733,123.86869 497.016733,123.86869 C501.291733,123.86869 504.768733,125.35069 506.934733,126.60469 C508.473733,127.51669 508.644733,129.39769 507.561733,130.82269 L505.566733,133.38769 C504.597733,134.64169 503.058733,134.64169 501.690733,133.84369 C500.550733,133.21669 498.954733,132.58969 497.130733,132.58969 C494.679733,132.58969 493.482733,133.84369 493.482733,135.43969 C493.482733,137.03569 494.508733,138.46069 498.783733,140.34169 C506.478733,143.70469 510.582733,147.23869 510.582733,153.96469 C510.582733,160.97569 505.281733,166.61869 496.560733,166.61869 Z" transform="rotate(-3 412.744 145.308)"/>
    <path stroke="#03ADB6" stroke-linecap="round" stroke-width="3.5" d="M109.05982,193.410089 C255.922757,186.341083 190.903188,188.115323 304.05982,186.410089"/>
    <path stroke="#A74999" stroke-linecap="round" stroke-width="3.5" d="M95.5598205 127.910089L73.8098205 144.76369M102.054938 85.4298944L93.0598205 77.4100887M93.2736867 90.9100887L84.3433153 87.9100887M86.5598205 118.910089L71.0598205 120.662319M89.5598205 109.662319L58.0598205 109.662319"/>
    <path fill="#FFF" fill-rule="nonzero" d="M513.07,123.91 L514.81,123.01 C514.99,122.92 514.99,122.68 514.81,122.59 L513.07,121.69 C512.74,121.51 512.65,121.12 512.83,120.82 L513.67,119.38 C513.85,119.08 514.24,118.96 514.54,119.17 L516.19,120.19 C516.34,120.28 516.52,120.16 516.52,119.98 L516.46,118.03 C516.46,117.67 516.7,117.4 517.06,117.4 L518.8,117.4 C519.16,117.4 519.4,117.67 519.4,118.03 L519.34,119.98 C519.34,120.16 519.52,120.28 519.67,120.19 L521.32,119.17 C521.62,118.96 522.01,119.08 522.19,119.38 L523.03,120.82 C523.21,121.12 523.12,121.51 522.79,121.69 L521.08,122.59 C520.9,122.68 520.9,122.92 521.08,123.01 L522.79,123.91 C523.12,124.09 523.21,124.48 523.03,124.78 L522.19,126.22 C522.01,126.52 521.62,126.64 521.32,126.43 L519.67,125.41 C519.52,125.32 519.34,125.44 519.34,125.62 L519.4,127.57 C519.4,127.93 519.16,128.2 518.8,128.2 L517.06,128.2 C516.7,128.2 516.46,127.93 516.46,127.57 L516.52,125.62 C516.52,125.44 516.34,125.32 516.19,125.41 L514.54,126.43 C514.24,126.64 513.85,126.52 513.67,126.22 L512.83,124.78 C512.65,124.48 512.74,124.09 513.07,123.91 Z"/>
  </g>
</svg>
