<svg xmlns="http://www.w3.org/2000/svg" width="497" height="139" viewBox="0 0 497 139">
  <g fill="none" fill-rule="evenodd" transform="translate(0 3)">
    <g stroke-width="11" transform="rotate(1 -45.152 103.817)">
      <rect width="56" height="55" x="5.5" y="25.617" stroke="#FEFEFE"/>
      <path stroke="#EF5C53" stroke-linecap="round" d="M10.3086208,38.8903007 C14.2572601,49.2230242 17.5498797,59.8278791 22.1545387,69.8884713 C22.4512499,70.5367474 23.6105758,69.5398515 24.1030138,69.0292888 L47.2278698,51.2828882 C62.8044693,35.132972 89.8375819,13.0834548 100.046971,8" transform="rotate(-10 55.178 39.05)"/>
    </g>
    <path fill="#FFF" fill-rule="nonzero" d="M97.218148,72.9582912 C95.907148,72.9582912 94.881148,71.9322912 94.881148,70.6212912 L94.881148,69.3102912 C94.881148,68.3412912 95.052148,67.5432912 95.451148,66.8592912 L109.245148,43.6032912 C109.872148,42.5202912 110.898148,41.8932912 112.266148,41.8932912 L118.194148,41.8932912 C119.505148,41.8932912 120.531148,42.9192912 120.531148,44.2302912 L120.531148,63.9522912 C120.531148,64.5792912 120.930148,64.9782912 121.557148,64.9782912 L122.355148,64.9782912 C123.666148,64.9782912 124.521148,65.8332912 124.521148,67.1442912 L124.521148,70.7922912 C124.521148,72.1032912 123.666148,72.9582912 122.355148,72.9582912 L121.557148,72.9582912 C120.930148,72.9582912 120.531148,73.3572912 120.531148,73.9842912 L120.531148,80.5962912 C120.531148,81.9072912 119.505148,82.9332912 118.194148,82.9332912 L113.748148,82.9332912 C112.437148,82.9332912 111.411148,81.9072912 111.411148,80.5962912 L111.411148,74.0982912 C111.411148,73.4712912 110.898148,72.9582912 110.271148,72.9582912 L97.218148,72.9582912 Z M104.286148,64.1232912 C104.058148,64.5792912 104.286148,64.9782912 104.742148,64.9782912 L110.271148,64.9782912 C110.898148,64.9782912 111.411148,64.4652912 111.411148,63.8382912 L111.411148,54.0342912 C111.411148,53.2362912 110.556148,53.1792912 110.271148,53.6922912 L104.286148,64.1232912 Z M148.518148,82.9332912 C147.207148,82.9332912 146.181148,81.9072912 146.181148,80.5962912 L146.181148,44.2302912 C146.181148,42.9192912 147.207148,41.8932912 148.518148,41.8932912 L160.716148,41.8932912 C167.556148,41.8932912 171.831148,47.0232912 171.831148,52.7232912 C171.831148,55.9152912 170.406148,59.0502912 167.898148,61.1022912 C167.271148,61.6152912 167.328148,62.2422912 167.955148,62.6982912 C171.147148,64.6932912 172.971148,67.9992912 172.971148,71.8182912 C172.971148,78.1452912 168.126148,82.9332912 160.545148,82.9332912 L148.518148,82.9332912 Z M157.581148,58.1382912 L157.638148,58.1382912 C160.317148,58.1382912 161.856148,56.5422912 161.856148,54.1482912 C161.856148,51.7542912 160.317148,50.1582912 157.638148,50.1582912 L157.581148,50.1582912 C156.954148,50.1582912 156.441148,50.6712912 156.441148,51.2982912 L156.441148,56.9982912 C156.441148,57.6252912 156.897148,58.1382912 157.581148,58.1382912 Z M157.581148,74.6682912 L158.436148,74.6682912 C161.343148,74.6682912 162.996148,73.0152912 162.996148,70.3932912 C162.996148,67.7712912 161.343148,66.1182912 158.436148,66.1182912 L157.581148,66.1182912 C156.954148,66.1182912 156.441148,66.6312912 156.441148,67.2582912 L156.441148,73.5282912 C156.441148,74.1552912 156.954148,74.6682912 157.581148,74.6682912 Z M191.154148,83.7882912 C184.827148,83.7882912 180.438148,81.0522912 178.215148,79.2282912 C177.018148,78.2592912 177.018148,76.6062912 177.930148,75.4662912 L180.039148,72.7872912 C181.122148,71.3622912 182.889148,71.3622912 184.314148,72.4452912 C185.967148,73.6992912 188.418148,75.0672912 190.983148,75.0672912 C193.662148,75.0672912 194.916148,73.4712912 194.916148,71.5902912 C194.916148,69.6522912 193.662148,68.2842912 189.102148,66.1752912 C181.635148,62.7552912 177.816148,58.9362912 177.816148,52.7232912 C177.816148,45.9972912 183.060148,41.0382912 191.610148,41.0382912 C195.885148,41.0382912 199.362148,42.5202912 201.528148,43.7742912 C203.067148,44.6862912 203.238148,46.5672912 202.155148,47.9922912 L200.160148,50.5572912 C199.191148,51.8112912 197.652148,51.8112912 196.284148,51.0132912 C195.144148,50.3862912 193.548148,49.7592912 191.724148,49.7592912 C189.273148,49.7592912 188.076148,51.0132912 188.076148,52.6092912 C188.076148,54.2052912 189.102148,55.6302912 193.377148,57.5112912 C201.072148,60.8742912 205.176148,64.4082912 205.176148,71.1342912 C205.176148,78.1452912 199.875148,83.7882912 191.154148,83.7882912 Z M212.643148,82.9332912 C211.332148,82.9332912 210.306148,81.9072912 210.306148,80.5962912 L210.306148,44.2302912 C210.306148,42.9192912 211.332148,41.8932912 212.643148,41.8932912 L218.229148,41.8932912 C219.540148,41.8932912 220.566148,42.9192912 220.566148,44.2302912 L220.566148,72.1032912 C220.566148,72.7302912 221.079148,73.2432912 221.706148,73.2432912 L233.619148,73.2432912 C234.930148,73.2432912 235.956148,74.2692912 235.956148,75.5802912 L235.956148,80.5962912 C235.956148,81.9072912 234.930148,82.9332912 233.619148,82.9332912 L212.643148,82.9332912 Z M269.529148,83.7882912 C263.202148,83.7882912 258.813148,81.0522912 256.590148,79.2282912 C255.393148,78.2592912 255.393148,76.6062912 256.305148,75.4662912 L258.414148,72.7872912 C259.497148,71.3622912 261.264148,71.3622912 262.689148,72.4452912 C264.342148,73.6992912 266.793148,75.0672912 269.358148,75.0672912 C272.037148,75.0672912 273.291148,73.4712912 273.291148,71.5902912 C273.291148,69.6522912 272.037148,68.2842912 267.477148,66.1752912 C260.010148,62.7552912 256.191148,58.9362912 256.191148,52.7232912 C256.191148,45.9972912 261.435148,41.0382912 269.985148,41.0382912 C274.260148,41.0382912 277.737148,42.5202912 279.903148,43.7742912 C281.442148,44.6862912 281.613148,46.5672912 280.530148,47.9922912 L278.535148,50.5572912 C277.566148,51.8112912 276.027148,51.8112912 274.659148,51.0132912 C273.519148,50.3862912 271.923148,49.7592912 270.099148,49.7592912 C267.648148,49.7592912 266.451148,51.0132912 266.451148,52.6092912 C266.451148,54.2052912 267.477148,55.6302912 271.752148,57.5112912 C279.447148,60.8742912 283.551148,64.4082912 283.551148,71.1342912 C283.551148,78.1452912 278.250148,83.7882912 269.529148,83.7882912 Z M291.588148,82.9332912 C290.277148,82.9332912 289.251148,81.9072912 289.251148,80.5962912 L289.251148,44.2302912 C289.251148,42.9192912 290.277148,41.8932912 291.588148,41.8932912 L297.174148,41.8932912 C298.485148,41.8932912 299.511148,42.9192912 299.511148,44.2302912 L299.511148,80.5962912 C299.511148,81.9072912 298.485148,82.9332912 297.174148,82.9332912 L291.588148,82.9332912 Z M305.211148,62.4132912 C305.211148,50.3862912 314.673148,41.0382912 327.156148,41.0382912 C332.343148,41.0382912 336.789148,42.5772912 340.380148,45.0852912 C341.520148,45.8832912 341.577148,47.5932912 340.608148,48.6762912 L337.245148,52.3812912 C336.333148,53.3502912 334.908148,53.2932912 333.882148,52.6092912 C332.001148,51.4122912 329.778148,50.7282912 327.156148,50.7282912 C320.430148,50.7282912 315.471148,55.8582912 315.471148,62.4132912 C315.471148,68.9682912 320.430148,74.0982912 326.871148,74.0982912 C330.918148,74.0982912 333.939148,72.2742912 335.706148,69.6522912 C336.219148,68.9112912 335.820148,68.1132912 334.794148,68.1132912 L323.964148,68.1132912 C322.653148,68.1132912 321.627148,67.0872912 321.627148,65.7762912 L321.627148,61.9002912 C321.627148,60.5892912 322.653148,59.5632912 323.964148,59.5632912 L344.940148,59.5632912 C346.251148,59.5632912 347.391148,60.1902912 347.391148,62.4132912 C347.391148,74.4402912 338.955148,83.7882912 326.871148,83.7882912 C314.673148,83.7882912 305.211148,74.4402912 305.211148,62.4132912 Z M387.861148,81.4512912 C387.861148,83.7312912 385.467148,84.3012912 383.871148,82.7052912 L364.206148,63.3252912 C363.522148,62.6412912 362.610148,63.0972912 362.610148,64.0092912 L362.610148,80.5962912 C362.610148,81.9072912 361.584148,82.9332912 360.273148,82.9332912 L354.858148,82.9332912 C353.547148,82.9332912 352.521148,81.9072912 352.521148,80.5962912 L352.521148,43.3752912 C352.521148,41.0952912 354.915148,40.5252912 356.511148,42.1212912 L376.176148,61.5012912 C376.860148,62.1852912 377.772148,61.7292912 377.772148,60.8172912 L377.772148,44.2302912 C377.772148,42.9192912 378.798148,41.8932912 380.109148,41.8932912 L385.524148,41.8932912 C386.835148,41.8932912 387.861148,42.9192912 387.861148,44.2302912 L387.861148,81.4512912 Z M397.608148,82.9332912 C396.297148,82.9332912 395.271148,81.9072912 395.271148,80.5962912 L395.271148,44.2302912 C395.271148,42.9192912 396.297148,41.8932912 397.608148,41.8932912 L403.194148,41.8932912 C404.505148,41.8932912 405.531148,42.9192912 405.531148,44.2302912 L405.531148,80.5962912 C405.531148,81.9072912 404.505148,82.9332912 403.194148,82.9332912 L397.608148,82.9332912 Z M448.281148,81.4512912 C448.281148,83.7312912 445.887148,84.3012912 444.291148,82.7052912 L424.626148,63.3252912 C423.942148,62.6412912 423.030148,63.0972912 423.030148,64.0092912 L423.030148,80.5962912 C423.030148,81.9072912 422.004148,82.9332912 420.693148,82.9332912 L415.278148,82.9332912 C413.967148,82.9332912 412.941148,81.9072912 412.941148,80.5962912 L412.941148,43.3752912 C412.941148,41.0952912 415.335148,40.5252912 416.931148,42.1212912 L436.596148,61.5012912 C437.280148,62.1852912 438.192148,61.7292912 438.192148,60.8172912 L438.192148,44.2302912 C438.192148,42.9192912 439.218148,41.8932912 440.529148,41.8932912 L445.944148,41.8932912 C447.255148,41.8932912 448.281148,42.9192912 448.281148,44.2302912 L448.281148,81.4512912 Z M453.411148,62.4132912 C453.411148,50.3862912 462.873148,41.0382912 475.356148,41.0382912 C480.543148,41.0382912 484.989148,42.5772912 488.580148,45.0852912 C489.720148,45.8832912 489.777148,47.5932912 488.808148,48.6762912 L485.445148,52.3812912 C484.533148,53.3502912 483.108148,53.2932912 482.082148,52.6092912 C480.201148,51.4122912 477.978148,50.7282912 475.356148,50.7282912 C468.630148,50.7282912 463.671148,55.8582912 463.671148,62.4132912 C463.671148,68.9682912 468.630148,74.0982912 475.071148,74.0982912 C479.118148,74.0982912 482.139148,72.2742912 483.906148,69.6522912 C484.419148,68.9112912 484.020148,68.1132912 482.994148,68.1132912 L472.164148,68.1132912 C470.853148,68.1132912 469.827148,67.0872912 469.827148,65.7762912 L469.827148,61.9002912 C469.827148,60.5892912 470.853148,59.5632912 472.164148,59.5632912 L493.140148,59.5632912 C494.451148,59.5632912 495.591148,60.1902912 495.591148,62.4132912 C495.591148,74.4402912 487.155148,83.7882912 475.071148,83.7882912 C462.873148,83.7882912 453.411148,74.4402912 453.411148,62.4132912 Z M108.276148,134.420291 L94.482148,96.6292912 C93.969148,95.2612912 94.653148,93.8932912 96.306148,93.8932912 L102.234148,93.8932912 C103.773148,93.8932912 104.856148,94.6912912 105.255148,96.0592912 L109.986148,111.962291 C110.271148,112.931291 111.297148,112.931291 111.582148,111.962291 L116.313148,96.0592912 C116.712148,94.6912912 117.795148,93.8932912 119.334148,93.8932912 L124.122148,93.8932912 C125.775148,93.8932912 126.459148,95.2612912 125.946148,96.6292912 L112.152148,134.420291 C111.411148,136.415291 109.017148,136.415291 108.276148,134.420291 Z M133.014148,134.933291 C131.703148,134.933291 130.677148,133.907291 130.677148,132.596291 L130.677148,96.2302912 C130.677148,94.9192912 131.703148,93.8932912 133.014148,93.8932912 L138.600148,93.8932912 C139.911148,93.8932912 140.937148,94.9192912 140.937148,96.2302912 L140.937148,132.596291 C140.937148,133.907291 139.911148,134.933291 138.600148,134.933291 L133.014148,134.933291 Z M150.684148,134.933291 C149.373148,134.933291 148.347148,133.907291 148.347148,132.596291 L148.347148,96.2302912 C148.347148,94.9192912 149.373148,93.8932912 150.684148,93.8932912 L160.887148,93.8932912 C174.168148,93.8932912 180.837148,102.728291 180.837148,114.413291 C180.837148,126.098291 174.168148,134.933291 160.887148,134.933291 L150.684148,134.933291 Z M158.607148,124.388291 C158.607148,125.015291 159.120148,125.528291 159.747148,125.528291 L160.887148,125.528291 C167.727148,125.528291 170.577148,121.082291 170.577148,114.413291 C170.577148,107.744291 167.727148,103.298291 160.887148,103.298291 L159.747148,103.298291 C159.120148,103.298291 158.607148,103.811291 158.607148,104.438291 L158.607148,124.388291 Z M188.304148,134.933291 C186.993148,134.933291 185.967148,133.907291 185.967148,132.596291 L185.967148,96.2302912 C185.967148,94.9192912 186.993148,93.8932912 188.304148,93.8932912 L207.570148,93.8932912 C208.881148,93.8932912 209.907148,94.9192912 209.907148,96.2302912 L209.907148,100.961291 C209.907148,102.272291 208.881148,103.298291 207.570148,103.298291 L197.367148,103.298291 C196.740148,103.298291 196.227148,103.811291 196.227148,104.438291 L196.227148,108.542291 C196.227148,109.169291 196.740148,109.682291 197.367148,109.682291 L208.995148,109.682291 C210.306148,109.682291 211.332148,110.708291 211.332148,112.019291 L211.332148,115.952291 C211.332148,117.263291 210.306148,118.289291 208.995148,118.289291 L197.367148,118.289291 C196.740148,118.289291 196.227148,118.802291 196.227148,119.429291 L196.227148,124.388291 C196.227148,125.015291 196.740148,125.528291 197.367148,125.528291 L209.280148,125.528291 C210.591148,125.528291 211.617148,126.554291 211.617148,127.865291 L211.617148,132.596291 C211.617148,133.907291 210.591148,134.933291 209.280148,134.933291 L188.304148,134.933291 Z M237.267148,135.788291 C225.069148,135.788291 215.607148,126.440291 215.607148,114.413291 C215.607148,102.386291 225.069148,93.0382912 237.267148,93.0382912 C249.465148,93.0382912 258.927148,102.386291 258.927148,114.413291 C258.927148,126.440291 249.465148,135.788291 237.267148,135.788291 Z M237.267148,126.098291 C243.708148,126.098291 248.667148,120.968291 248.667148,114.413291 C248.667148,107.858291 243.708148,102.728291 237.267148,102.728291 C230.826148,102.728291 225.867148,107.858291 225.867148,114.413291 C225.867148,120.968291 230.826148,126.098291 237.267148,126.098291 Z M275.970148,135.788291 C269.643148,135.788291 265.254148,133.052291 263.031148,131.228291 C261.834148,130.259291 261.834148,128.606291 262.746148,127.466291 L264.855148,124.787291 C265.938148,123.362291 267.705148,123.362291 269.130148,124.445291 C270.783148,125.699291 273.234148,127.067291 275.799148,127.067291 C278.478148,127.067291 279.732148,125.471291 279.732148,123.590291 C279.732148,121.652291 278.478148,120.284291 273.918148,118.175291 C266.451148,114.755291 262.632148,110.936291 262.632148,104.723291 C262.632148,97.9972912 267.876148,93.0382912 276.426148,93.0382912 C280.701148,93.0382912 284.178148,94.5202912 286.344148,95.7742912 C287.883148,96.6862912 288.054148,98.5672912 286.971148,99.9922912 L284.976148,102.557291 C284.007148,103.811291 282.468148,103.811291 281.100148,103.013291 C279.960148,102.386291 278.364148,101.759291 276.540148,101.759291 C274.089148,101.759291 272.892148,103.013291 272.892148,104.609291 C272.892148,106.205291 273.918148,107.630291 278.193148,109.511291 C285.888148,112.874291 289.992148,116.408291 289.992148,123.134291 C289.992148,130.145291 284.691148,135.788291 275.970148,135.788291 Z" transform="rotate(2 294.953 88.477)"/>
  </g>
</svg>
