<svg xmlns="http://www.w3.org/2000/svg" xmlns:xlink="http://www.w3.org/1999/xlink" width="508" height="287" viewBox="0 0 508 287">
  <defs>
    <path id="feature-activity-a" d="M155.228716,119.792061 C153.917716,119.792061 152.891716,118.766061 152.891716,117.455061 L152.891716,88.4420612 C152.891716,87.8150612 152.378716,87.3020612 151.751716,87.3020612 L147.818716,87.3020612 C146.507716,87.3020612 145.481716,86.2760612 145.481716,84.9650612 L145.481716,81.0890612 C145.481716,79.7780612 146.507716,78.7520612 147.818716,78.7520612 L160.244716,78.7520612 C161.555716,78.7520612 162.581716,79.7780612 162.581716,81.0890612 L162.581716,117.455061 C162.581716,118.766061 161.555716,119.792061 160.244716,119.792061 L155.228716,119.792061 Z M169.250716,115.802061 C168.224716,114.662061 168.281716,113.237061 169.478716,112.268061 L171.758716,110.330061 C172.898716,109.361061 174.323716,109.475061 175.520716,110.444061 C176.945716,111.527061 178.256716,111.983061 179.852716,111.983061 C182.702716,111.983061 184.811716,109.817061 184.811716,107.195061 C184.811716,104.003061 182.873716,102.122061 177.971716,102.122061 L177.059716,102.122061 C175.919716,102.122061 175.121716,101.324061 175.121716,100.184061 L175.121716,97.7900612 C175.121716,96.6500612 175.919716,95.8520612 177.059716,95.8520612 L177.971716,95.8520612 C182.531716,95.8520612 184.241716,93.7430612 184.241716,90.8930612 C184.241716,88.6130612 182.303716,86.5610612 179.795716,86.5610612 C178.541716,86.5610612 177.458716,86.8460612 176.204716,87.7580612 C174.950716,88.6130612 173.525716,88.6700612 172.442716,87.6440612 L170.333716,85.5920612 C169.250716,84.5090612 169.136716,83.0270612 170.219716,81.9440612 C172.727716,79.5500612 176.375716,77.8970612 180.650716,77.8970612 C189.086716,77.8970612 193.931716,83.0270612 193.931716,89.8100612 C193.931716,93.1730612 192.563716,96.0230612 190.055716,98.1320612 C189.542716,98.5310612 189.599716,99.1580612 190.112716,99.5570612 C192.962716,101.666061 194.501716,104.687061 194.501716,108.392061 C194.501716,115.517061 189.428716,120.647061 180.650716,120.647061 C175.805716,120.647061 171.815716,118.652061 169.250716,115.802061 Z M219.296716,119.792061 C217.871716,119.792061 216.788716,118.766061 216.902716,117.284061 L219.182716,80.2910612 C219.353716,77.7830612 221.918716,77.2130612 223.172716,79.1510612 L237.137716,100.754061 C237.479716,101.324061 238.163716,101.324061 238.505716,100.754061 L252.470716,79.1510612 C253.724716,77.2130612 256.289716,77.7830612 256.460716,80.2910612 L258.740716,117.284061 C258.854716,118.766061 257.771716,119.792061 256.346716,119.792061 L251.387716,119.792061 C250.133716,119.792061 249.164716,118.937061 249.107716,117.626061 L248.480716,104.972061 C248.423716,103.775061 247.226716,103.661061 246.713716,104.516061 L239.531716,116.372061 C238.733716,117.683061 236.909716,117.683061 236.111716,116.372061 L228.929716,104.516061 C228.416716,103.661061 227.219716,103.775061 227.162716,104.972061 L226.535716,117.626061 C226.478716,118.937061 225.509716,119.792061 224.255716,119.792061 L219.296716,119.792061 Z M280.286716,120.647061 C270.881716,120.647061 264.896716,114.605061 264.896716,104.972061 L264.896716,81.0890612 C264.896716,79.7780612 265.922716,78.7520612 267.233716,78.7520612 L272.819716,78.7520612 C274.130716,78.7520612 275.156716,79.7780612 275.156716,81.0890612 L275.156716,104.687061 C275.156716,108.164061 276.923716,110.387061 280.286716,110.387061 C283.649716,110.387061 285.416716,108.164061 285.416716,104.687061 L285.416716,81.0890612 C285.416716,79.7780612 286.442716,78.7520612 287.753716,78.7520612 L293.339716,78.7520612 C294.650716,78.7520612 295.676716,79.7780612 295.676716,81.0890612 L295.676716,104.972061 C295.676716,114.605061 289.691716,120.647061 280.286716,120.647061 Z M314.714716,120.647061 C308.387716,120.647061 303.998716,117.911061 301.775716,116.087061 C300.578716,115.118061 300.578716,113.465061 301.490716,112.325061 L303.599716,109.646061 C304.682716,108.221061 306.449716,108.221061 307.874716,109.304061 C309.527716,110.558061 311.978716,111.926061 314.543716,111.926061 C317.222716,111.926061 318.476716,110.330061 318.476716,108.449061 C318.476716,106.511061 317.222716,105.143061 312.662716,103.034061 C305.195716,99.6140612 301.376716,95.7950612 301.376716,89.5820612 C301.376716,82.8560612 306.620716,77.8970612 315.170716,77.8970612 C319.445716,77.8970612 322.922716,79.3790612 325.088716,80.6330612 C326.627716,81.5450612 326.798716,83.4260612 325.715716,84.8510612 L323.720716,87.4160612 C322.751716,88.6700612 321.212716,88.6700612 319.844716,87.8720612 C318.704716,87.2450612 317.108716,86.6180612 315.284716,86.6180612 C312.833716,86.6180612 311.636716,87.8720612 311.636716,89.4680612 C311.636716,91.0640612 312.662716,92.4890612 316.937716,94.3700612 C324.632716,97.7330612 328.736716,101.267061 328.736716,107.993061 C328.736716,115.004061 323.435716,120.647061 314.714716,120.647061 Z M336.773716,119.792061 C335.462716,119.792061 334.436716,118.766061 334.436716,117.455061 L334.436716,81.0890612 C334.436716,79.7780612 335.462716,78.7520612 336.773716,78.7520612 L342.359716,78.7520612 C343.670716,78.7520612 344.696716,79.7780612 344.696716,81.0890612 L344.696716,117.455061 C344.696716,118.766061 343.670716,119.792061 342.359716,119.792061 L336.773716,119.792061 Z M372.056716,120.647061 C359.858716,120.647061 350.396716,111.299061 350.396716,99.2720612 C350.396716,87.2450612 359.858716,77.8970612 372.056716,77.8970612 C378.782716,77.8970612 384.311716,80.7470612 388.244716,85.4210612 C389.327716,86.7320612 389.042716,88.4990612 387.617716,89.5250612 L384.425716,91.8050612 C383.000716,92.8310612 381.575716,92.5460612 380.321716,91.2920612 C378.269716,89.1830612 375.419716,87.7580612 372.056716,87.7580612 C365.615716,87.7580612 360.656716,92.7740612 360.656716,99.2720612 C360.656716,105.770061 365.615716,110.786061 372.056716,110.786061 C375.476716,110.786061 378.383716,109.475061 380.378716,107.195061 C381.461716,105.941061 382.943716,105.770061 384.254716,106.682061 L387.503716,109.019061 C388.985716,110.102061 389.384716,111.755061 388.301716,113.066061 C384.368716,117.740061 378.782716,120.647061 372.056716,120.647061 Z M146.450716,171.792061 C144.797716,171.792061 143.828716,170.367061 144.569716,168.828061 L162.182716,131.550061 C163.094716,129.612061 165.374716,129.612061 166.286716,131.550061 L183.899716,168.828061 C184.640716,170.367061 183.671716,171.792061 182.018716,171.792061 L175.748716,171.792061 C174.266716,171.792061 173.012716,170.994061 172.442716,169.569061 L171.587716,167.346061 C171.359716,166.776061 170.789716,166.377061 170.162716,166.377061 L157.280716,166.377061 C156.653716,166.377061 156.083716,166.719061 155.855716,167.289061 L154.943716,169.626061 C154.430716,170.994061 153.119716,171.792061 151.637716,171.792061 L146.450716,171.792061 Z M160.301716,156.858061 C160.073716,157.314061 160.415716,157.827061 160.928716,157.827061 L166.742716,157.827061 C167.255716,157.827061 167.540716,157.371061 167.369716,156.915061 L164.690716,150.246061 C164.405716,149.562061 163.493716,149.505061 163.208716,150.189061 L160.301716,156.858061 Z M204.647716,172.647061 C192.449716,172.647061 182.987716,163.299061 182.987716,151.272061 C182.987716,139.245061 192.449716,129.897061 204.647716,129.897061 C211.373716,129.897061 216.902716,132.747061 220.835716,137.421061 C221.918716,138.732061 221.633716,140.499061 220.208716,141.525061 L217.016716,143.805061 C215.591716,144.831061 214.166716,144.546061 212.912716,143.292061 C210.860716,141.183061 208.010716,139.758061 204.647716,139.758061 C198.206716,139.758061 193.247716,144.774061 193.247716,151.272061 C193.247716,157.770061 198.206716,162.786061 204.647716,162.786061 C208.067716,162.786061 210.974716,161.475061 212.969716,159.195061 C214.052716,157.941061 215.534716,157.770061 216.845716,158.682061 L220.094716,161.019061 C221.576716,162.102061 221.975716,163.755061 220.892716,165.066061 C216.959716,169.740061 211.373716,172.647061 204.647716,172.647061 Z M225.566716,140.442061 C224.255716,140.442061 223.229716,139.416061 223.229716,138.105061 L223.229716,133.089061 C223.229716,131.778061 224.255716,130.752061 225.566716,130.752061 L251.102716,130.752061 C252.413716,130.752061 253.439716,131.778061 253.439716,133.089061 L253.439716,138.105061 C253.439716,139.416061 252.413716,140.442061 251.102716,140.442061 L244.604716,140.442061 C243.977716,140.442061 243.464716,140.955061 243.464716,141.582061 L243.464716,169.455061 C243.464716,170.766061 242.438716,171.792061 241.127716,171.792061 L235.541716,171.792061 C234.230716,171.792061 233.204716,170.766061 233.204716,169.455061 L233.204716,141.582061 C233.204716,140.955061 232.691716,140.442061 232.064716,140.442061 L225.566716,140.442061 Z M260.336716,171.792061 C259.025716,171.792061 257.999716,170.766061 257.999716,169.455061 L257.999716,133.089061 C257.999716,131.778061 259.025716,130.752061 260.336716,130.752061 L265.922716,130.752061 C267.233716,130.752061 268.259716,131.778061 268.259716,133.089061 L268.259716,169.455061 C268.259716,170.766061 267.233716,171.792061 265.922716,171.792061 L260.336716,171.792061 Z M286.784716,171.279061 L272.990716,133.488061 C272.477716,132.120061 273.161716,130.752061 274.814716,130.752061 L280.742716,130.752061 C282.281716,130.752061 283.364716,131.550061 283.763716,132.918061 L288.494716,148.821061 C288.779716,149.790061 289.805716,149.790061 290.090716,148.821061 L294.821716,132.918061 C295.220716,131.550061 296.303716,130.752061 297.842716,130.752061 L302.630716,130.752061 C304.283716,130.752061 304.967716,132.120061 304.454716,133.488061 L290.660716,171.279061 C289.919716,173.274061 287.525716,173.274061 286.784716,171.279061 Z M311.522716,171.792061 C310.211716,171.792061 309.185716,170.766061 309.185716,169.455061 L309.185716,133.089061 C309.185716,131.778061 310.211716,130.752061 311.522716,130.752061 L317.108716,130.752061 C318.419716,130.752061 319.445716,131.778061 319.445716,133.089061 L319.445716,169.455061 C319.445716,170.766061 318.419716,171.792061 317.108716,171.792061 L311.522716,171.792061 Z M326.342716,140.442061 C325.031716,140.442061 324.005716,139.416061 324.005716,138.105061 L324.005716,133.089061 C324.005716,131.778061 325.031716,130.752061 326.342716,130.752061 L351.878716,130.752061 C353.189716,130.752061 354.215716,131.778061 354.215716,133.089061 L354.215716,138.105061 C354.215716,139.416061 353.189716,140.442061 351.878716,140.442061 L345.380716,140.442061 C344.753716,140.442061 344.240716,140.955061 344.240716,141.582061 L344.240716,169.455061 C344.240716,170.766061 343.214716,171.792061 341.903716,171.792061 L336.317716,171.792061 C335.006716,171.792061 333.980716,170.766061 333.980716,169.455061 L333.980716,141.582061 C333.980716,140.955061 333.467716,140.442061 332.840716,140.442061 L326.342716,140.442061 Z M361.112716,171.792061 C359.801716,171.792061 358.775716,170.766061 358.775716,169.455061 L358.775716,133.089061 C358.775716,131.778061 359.801716,130.752061 361.112716,130.752061 L366.698716,130.752061 C368.009716,130.752061 369.035716,131.778061 369.035716,133.089061 L369.035716,169.455061 C369.035716,170.766061 368.009716,171.792061 366.698716,171.792061 L361.112716,171.792061 Z M378.782716,171.792061 C377.471716,171.792061 376.445716,170.766061 376.445716,169.455061 L376.445716,133.089061 C376.445716,131.778061 377.471716,130.752061 378.782716,130.752061 L398.048716,130.752061 C399.359716,130.752061 400.385716,131.778061 400.385716,133.089061 L400.385716,137.820061 C400.385716,139.131061 399.359716,140.157061 398.048716,140.157061 L387.845716,140.157061 C387.218716,140.157061 386.705716,140.670061 386.705716,141.297061 L386.705716,145.401061 C386.705716,146.028061 387.218716,146.541061 387.845716,146.541061 L399.473716,146.541061 C400.784716,146.541061 401.810716,147.567061 401.810716,148.878061 L401.810716,152.811061 C401.810716,154.122061 400.784716,155.148061 399.473716,155.148061 L387.845716,155.148061 C387.218716,155.148061 386.705716,155.661061 386.705716,156.288061 L386.705716,161.247061 C386.705716,161.874061 387.218716,162.387061 387.845716,162.387061 L399.758716,162.387061 C401.069716,162.387061 402.095716,163.413061 402.095716,164.724061 L402.095716,169.455061 C402.095716,170.766061 401.069716,171.792061 399.758716,171.792061 L378.782716,171.792061 Z M420.278716,172.647061 C413.951716,172.647061 409.562716,169.911061 407.339716,168.087061 C406.142716,167.118061 406.142716,165.465061 407.054716,164.325061 L409.163716,161.646061 C410.246716,160.221061 412.013716,160.221061 413.438716,161.304061 C415.091716,162.558061 417.542716,163.926061 420.107716,163.926061 C422.786716,163.926061 424.040716,162.330061 424.040716,160.449061 C424.040716,158.511061 422.786716,157.143061 418.226716,155.034061 C410.759716,151.614061 406.940716,147.795061 406.940716,141.582061 C406.940716,134.856061 412.184716,129.897061 420.734716,129.897061 C425.009716,129.897061 428.486716,131.379061 430.652716,132.633061 C432.191716,133.545061 432.362716,135.426061 431.279716,136.851061 L429.284716,139.416061 C428.315716,140.670061 426.776716,140.670061 425.408716,139.872061 C424.268716,139.245061 422.672716,138.618061 420.848716,138.618061 C418.397716,138.618061 417.200716,139.872061 417.200716,141.468061 C417.200716,143.064061 418.226716,144.489061 422.501716,146.370061 C430.196716,149.733061 434.300716,153.267061 434.300716,159.993061 C434.300716,167.004061 428.999716,172.647061 420.278716,172.647061 Z"/>
    <path id="feature-activity-b" d="M159.17914,191.128764 C157.86814,191.128764 156.84214,190.102764 156.84214,188.791764 L156.84214,183.775764 C156.84214,182.464764 157.86814,181.438764 159.17914,181.438764 L184.71514,181.438764 C186.02614,181.438764 187.05214,182.464764 187.05214,183.775764 L187.05214,188.791764 C187.05214,190.102764 186.02614,191.128764 184.71514,191.128764 L178.21714,191.128764 C177.59014,191.128764 177.07714,191.641764 177.07714,192.268764 L177.07714,220.141764 C177.07714,221.452764 176.05114,222.478764 174.74014,222.478764 L169.15414,222.478764 C167.84314,222.478764 166.81714,221.452764 166.81714,220.141764 L166.81714,192.268764 C166.81714,191.641764 166.30414,191.128764 165.67714,191.128764 L159.17914,191.128764 Z M209.85214,223.333764 C197.65414,223.333764 188.19214,213.985764 188.19214,201.958764 C188.19214,189.931764 197.65414,180.583764 209.85214,180.583764 C222.05014,180.583764 231.51214,189.931764 231.51214,201.958764 C231.51214,213.985764 222.05014,223.333764 209.85214,223.333764 Z M209.85214,213.643764 C216.29314,213.643764 221.25214,208.513764 221.25214,201.958764 C221.25214,195.403764 216.29314,190.273764 209.85214,190.273764 C203.41114,190.273764 198.45214,195.403764 198.45214,201.958764 C198.45214,208.513764 203.41114,213.643764 209.85214,213.643764 Z M256.07914,222.478764 C254.76814,222.478764 253.74214,221.452764 253.74214,220.141764 L253.74214,183.775764 C253.74214,182.464764 254.76814,181.438764 256.07914,181.438764 L261.66514,181.438764 C262.97614,181.438764 264.00214,182.464764 264.00214,183.775764 L264.00214,195.403764 C264.00214,196.030764 264.51514,196.543764 265.14214,196.543764 L278.82214,196.543764 C279.44914,196.543764 279.96214,196.030764 279.96214,195.403764 L279.96214,183.775764 C279.96214,182.464764 280.98814,181.438764 282.29914,181.438764 L287.88514,181.438764 C289.19614,181.438764 290.22214,182.464764 290.22214,183.775764 L290.22214,220.141764 C290.22214,221.452764 289.19614,222.478764 287.88514,222.478764 L282.29914,222.478764 C280.98814,222.478764 279.96214,221.452764 279.96214,220.141764 L279.96214,207.373764 C279.96214,206.746764 279.44914,206.233764 278.82214,206.233764 L265.14214,206.233764 C264.51514,206.233764 264.00214,206.746764 264.00214,207.373764 L264.00214,220.141764 C264.00214,221.452764 262.97614,222.478764 261.66514,222.478764 L256.07914,222.478764 Z M299.39914,222.478764 C298.08814,222.478764 297.06214,221.452764 297.06214,220.141764 L297.06214,183.775764 C297.06214,182.464764 298.08814,181.438764 299.39914,181.438764 L318.66514,181.438764 C319.97614,181.438764 321.00214,182.464764 321.00214,183.775764 L321.00214,188.506764 C321.00214,189.817764 319.97614,190.843764 318.66514,190.843764 L308.46214,190.843764 C307.83514,190.843764 307.32214,191.356764 307.32214,191.983764 L307.32214,196.087764 C307.32214,196.714764 307.83514,197.227764 308.46214,197.227764 L320.09014,197.227764 C321.40114,197.227764 322.42714,198.253764 322.42714,199.564764 L322.42714,203.497764 C322.42714,204.808764 321.40114,205.834764 320.09014,205.834764 L308.46214,205.834764 C307.83514,205.834764 307.32214,206.347764 307.32214,206.974764 L307.32214,211.933764 C307.32214,212.560764 307.83514,213.073764 308.46214,213.073764 L320.37514,213.073764 C321.68614,213.073764 322.71214,214.099764 322.71214,215.410764 L322.71214,220.141764 C322.71214,221.452764 321.68614,222.478764 320.37514,222.478764 L299.39914,222.478764 Z M330.74914,222.478764 C329.43814,222.478764 328.41214,221.452764 328.41214,220.141764 L328.41214,183.775764 C328.41214,182.464764 329.43814,181.438764 330.74914,181.438764 L336.33514,181.438764 C337.64614,181.438764 338.67214,182.464764 338.67214,183.775764 L338.67214,211.648764 C338.67214,212.275764 339.18514,212.788764 339.81214,212.788764 L351.72514,212.788764 C353.03614,212.788764 354.06214,213.814764 354.06214,215.125764 L354.06214,220.141764 C354.06214,221.452764 353.03614,222.478764 351.72514,222.478764 L330.74914,222.478764 Z M360.38914,222.478764 C359.07814,222.478764 358.05214,221.452764 358.05214,220.141764 L358.05214,183.775764 C358.05214,182.464764 359.07814,181.438764 360.38914,181.438764 L372.30214,181.438764 C380.28214,181.438764 385.41214,187.366764 385.41214,194.149764 C385.41214,200.932764 380.28214,206.803764 372.30214,206.803764 L369.45214,206.803764 C368.82514,206.803764 368.31214,207.316764 368.31214,207.943764 L368.31214,220.141764 C368.31214,221.452764 367.28614,222.478764 365.97514,222.478764 L360.38914,222.478764 Z M368.31214,197.113764 C368.31214,197.740764 368.82514,198.253764 369.45214,198.253764 L371.16214,198.253764 C373.67014,198.253764 375.43714,196.600764 375.43714,194.263764 C375.43714,191.926764 373.67014,190.273764 371.16214,190.273764 L369.45214,190.273764 C368.82514,190.273764 368.31214,190.786764 368.31214,191.413764 L368.31214,197.113764 Z M418.75714,222.478764 C417.44614,222.478764 416.42014,221.452764 416.42014,220.141764 L416.42014,204.808764 C416.42014,204.238764 416.30614,203.668764 416.02114,203.212764 L405.19114,184.630764 C404.27914,183.034764 405.02014,181.438764 407.01514,181.438764 L413.22814,181.438764 C414.71014,181.438764 415.67914,182.065764 416.30614,183.262764 L421.37914,192.325764 C421.72114,192.952764 422.51914,192.952764 422.86114,192.325764 L427.93414,183.262764 C428.56114,182.065764 429.53014,181.438764 431.01214,181.438764 L436.08514,181.438764 C438.08014,181.438764 438.82114,183.034764 437.90914,184.630764 L427.07914,203.212764 C426.79414,203.668764 426.68014,204.238764 426.68014,204.808764 L426.68014,220.141764 C426.68014,221.452764 425.65414,222.478764 424.34314,222.478764 L418.75714,222.478764 Z M458.25814,223.333764 C446.06014,223.333764 436.59814,213.985764 436.59814,201.958764 C436.59814,189.931764 446.06014,180.583764 458.25814,180.583764 C470.45614,180.583764 479.91814,189.931764 479.91814,201.958764 C479.91814,213.985764 470.45614,223.333764 458.25814,223.333764 Z M458.25814,213.643764 C464.69914,213.643764 469.65814,208.513764 469.65814,201.958764 C469.65814,195.403764 464.69914,190.273764 458.25814,190.273764 C451.81714,190.273764 446.85814,195.403764 446.85814,201.958764 C446.85814,208.513764 451.81714,213.643764 458.25814,213.643764 Z M500.15314,223.333764 C490.74814,223.333764 484.76314,217.291764 484.76314,207.658764 L484.76314,183.775764 C484.76314,182.464764 485.78914,181.438764 487.10014,181.438764 L492.68614,181.438764 C493.99714,181.438764 495.02314,182.464764 495.02314,183.775764 L495.02314,207.373764 C495.02314,210.850764 496.79014,213.073764 500.15314,213.073764 C503.51614,213.073764 505.28314,210.850764 505.28314,207.373764 L505.28314,183.775764 C505.28314,182.464764 506.30914,181.438764 507.62014,181.438764 L513.20614,181.438764 C514.51714,181.438764 515.54314,182.464764 515.54314,183.775764 L515.54314,207.658764 C515.54314,217.291764 509.55814,223.333764 500.15314,223.333764 Z M174.79714,275.333764 C165.39214,275.333764 159.40714,269.291764 159.40714,259.658764 L159.40714,235.775764 C159.40714,234.464764 160.43314,233.438764 161.74414,233.438764 L167.33014,233.438764 C168.64114,233.438764 169.66714,234.464764 169.66714,235.775764 L169.66714,259.373764 C169.66714,262.850764 171.43414,265.073764 174.79714,265.073764 C178.16014,265.073764 179.92714,262.850764 179.92714,259.373764 L179.92714,235.775764 C179.92714,234.464764 180.95314,233.438764 182.26414,233.438764 L187.85014,233.438764 C189.16114,233.438764 190.18714,234.464764 190.18714,235.775764 L190.18714,259.658764 C190.18714,269.291764 184.20214,275.333764 174.79714,275.333764 Z M232.08214,272.996764 C232.08214,275.276764 229.68814,275.846764 228.09214,274.250764 L208.42714,254.870764 C207.74314,254.186764 206.83114,254.642764 206.83114,255.554764 L206.83114,272.141764 C206.83114,273.452764 205.80514,274.478764 204.49414,274.478764 L199.07914,274.478764 C197.76814,274.478764 196.74214,273.452764 196.74214,272.141764 L196.74214,234.920764 C196.74214,232.640764 199.13614,232.070764 200.73214,233.666764 L220.39714,253.046764 C221.08114,253.730764 221.99314,253.274764 221.99314,252.362764 L221.99314,235.775764 C221.99314,234.464764 223.01914,233.438764 224.33014,233.438764 L229.74514,233.438764 C231.05614,233.438764 232.08214,234.464764 232.08214,235.775764 L232.08214,272.996764 Z M241.25914,274.478764 C239.94814,274.478764 238.92214,273.452764 238.92214,272.141764 L238.92214,235.775764 C238.92214,234.464764 239.94814,233.438764 241.25914,233.438764 L253.17214,233.438764 C261.15214,233.438764 266.28214,239.366764 266.28214,246.149764 C266.28214,252.932764 261.15214,258.803764 253.17214,258.803764 L250.32214,258.803764 C249.69514,258.803764 249.18214,259.316764 249.18214,259.943764 L249.18214,272.141764 C249.18214,273.452764 248.15614,274.478764 246.84514,274.478764 L241.25914,274.478764 Z M249.18214,249.113764 C249.18214,249.740764 249.69514,250.253764 250.32214,250.253764 L252.03214,250.253764 C254.54014,250.253764 256.30714,248.600764 256.30714,246.263764 C256.30714,243.926764 254.54014,242.273764 252.03214,242.273764 L250.32214,242.273764 C249.69514,242.273764 249.18214,242.786764 249.18214,243.413764 L249.18214,249.113764 Z M263.83114,274.478764 C262.17814,274.478764 261.20914,273.053764 261.95014,271.514764 L279.56314,234.236764 C280.47514,232.298764 282.75514,232.298764 283.66714,234.236764 L301.28014,271.514764 C302.02114,273.053764 301.05214,274.478764 299.39914,274.478764 L293.12914,274.478764 C291.64714,274.478764 290.39314,273.680764 289.82314,272.255764 L288.96814,270.032764 C288.74014,269.462764 288.17014,269.063764 287.54314,269.063764 L274.66114,269.063764 C274.03414,269.063764 273.46414,269.405764 273.23614,269.975764 L272.32414,272.312764 C271.81114,273.680764 270.50014,274.478764 269.01814,274.478764 L263.83114,274.478764 Z M277.68214,259.544764 C277.45414,260.000764 277.79614,260.513764 278.30914,260.513764 L284.12314,260.513764 C284.63614,260.513764 284.92114,260.057764 284.75014,259.601764 L282.07114,252.932764 C281.78614,252.248764 280.87414,252.191764 280.58914,252.875764 L277.68214,259.544764 Z M322.02814,275.333764 C309.83014,275.333764 300.36814,265.985764 300.36814,253.958764 C300.36814,241.931764 309.83014,232.583764 322.02814,232.583764 C328.75414,232.583764 334.28314,235.433764 338.21614,240.107764 C339.29914,241.418764 339.01414,243.185764 337.58914,244.211764 L334.39714,246.491764 C332.97214,247.517764 331.54714,247.232764 330.29314,245.978764 C328.24114,243.869764 325.39114,242.444764 322.02814,242.444764 C315.58714,242.444764 310.62814,247.460764 310.62814,253.958764 C310.62814,260.456764 315.58714,265.472764 322.02814,265.472764 C325.44814,265.472764 328.35514,264.161764 330.35014,261.881764 C331.43314,260.627764 332.91514,260.456764 334.22614,261.368764 L337.47514,263.705764 C338.95714,264.788764 339.35614,266.441764 338.27314,267.752764 C334.34014,272.426764 328.75414,275.333764 322.02814,275.333764 Z M345.79714,274.478764 C344.48614,274.478764 343.46014,273.452764 343.46014,272.141764 L343.46014,235.775764 C343.46014,234.464764 344.48614,233.438764 345.79714,233.438764 L351.38314,233.438764 C352.69414,233.438764 353.72014,234.464764 353.72014,235.775764 L353.72014,246.491764 C353.72014,248.030764 354.97414,247.802764 355.48714,247.004764 L363.23914,234.977764 C363.86614,234.008764 364.94914,233.438764 366.14614,233.438764 L373.27114,233.438764 C374.92414,233.438764 375.66514,235.034764 374.75314,236.345764 L364.20814,251.507764 C363.69514,252.191764 363.75214,253.103764 364.20814,253.844764 L376.06414,271.628764 C376.91914,272.939764 376.12114,274.478764 374.52514,274.478764 L367.28614,274.478764 C366.08914,274.478764 365.00614,273.908764 364.37914,272.882764 L355.48714,258.803764 C354.97414,257.948764 353.72014,257.777764 353.72014,259.316764 L353.72014,272.141764 C353.72014,273.452764 352.69414,274.478764 351.38314,274.478764 L345.79714,274.478764 Z M162.02914,326.478764 C160.71814,326.478764 159.69214,325.452764 159.69214,324.141764 L159.69214,287.775764 C159.69214,286.464764 160.71814,285.438764 162.02914,285.438764 L181.29514,285.438764 C182.60614,285.438764 183.63214,286.464764 183.63214,287.775764 L183.63214,292.506764 C183.63214,293.817764 182.60614,294.843764 181.29514,294.843764 L171.09214,294.843764 C170.46514,294.843764 169.95214,295.356764 169.95214,295.983764 L169.95214,300.087764 C169.95214,300.714764 170.46514,301.227764 171.09214,301.227764 L182.72014,301.227764 C184.03114,301.227764 185.05714,302.253764 185.05714,303.564764 L185.05714,307.497764 C185.05714,308.808764 184.03114,309.834764 182.72014,309.834764 L171.09214,309.834764 C170.46514,309.834764 169.95214,310.347764 169.95214,310.974764 L169.95214,315.933764 C169.95214,316.560764 170.46514,317.073764 171.09214,317.073764 L183.00514,317.073764 C184.31614,317.073764 185.34214,318.099764 185.34214,319.410764 L185.34214,324.141764 C185.34214,325.452764 184.31614,326.478764 183.00514,326.478764 L162.02914,326.478764 Z M190.30114,326.478764 C188.64814,326.478764 187.67914,325.053764 188.42014,323.514764 L206.03314,286.236764 C206.94514,284.298764 209.22514,284.298764 210.13714,286.236764 L227.75014,323.514764 C228.49114,325.053764 227.52214,326.478764 225.86914,326.478764 L219.59914,326.478764 C218.11714,326.478764 216.86314,325.680764 216.29314,324.255764 L215.43814,322.032764 C215.21014,321.462764 214.64014,321.063764 214.01314,321.063764 L201.13114,321.063764 C200.50414,321.063764 199.93414,321.405764 199.70614,321.975764 L198.79414,324.312764 C198.28114,325.680764 196.97014,326.478764 195.48814,326.478764 L190.30114,326.478764 Z M204.15214,311.544764 C203.92414,312.000764 204.26614,312.513764 204.77914,312.513764 L210.59314,312.513764 C211.10614,312.513764 211.39114,312.057764 211.22014,311.601764 L208.54114,304.932764 C208.25614,304.248764 207.34414,304.191764 207.05914,304.875764 L204.15214,311.544764 Z M248.49814,327.333764 C236.30014,327.333764 226.83814,317.985764 226.83814,305.958764 C226.83814,293.931764 236.30014,284.583764 248.49814,284.583764 C255.22414,284.583764 260.75314,287.433764 264.68614,292.107764 C265.76914,293.418764 265.48414,295.185764 264.05914,296.211764 L260.86714,298.491764 C259.44214,299.517764 258.01714,299.232764 256.76314,297.978764 C254.71114,295.869764 251.86114,294.444764 248.49814,294.444764 C242.05714,294.444764 237.09814,299.460764 237.09814,305.958764 C237.09814,312.456764 242.05714,317.472764 248.49814,317.472764 C251.91814,317.472764 254.82514,316.161764 256.82014,313.881764 C257.90314,312.627764 259.38514,312.456764 260.69614,313.368764 L263.94514,315.705764 C265.42714,316.788764 265.82614,318.441764 264.74314,319.752764 C260.81014,324.426764 255.22414,327.333764 248.49814,327.333764 Z M272.26714,326.478764 C270.95614,326.478764 269.93014,325.452764 269.93014,324.141764 L269.93014,287.775764 C269.93014,286.464764 270.95614,285.438764 272.26714,285.438764 L277.85314,285.438764 C279.16414,285.438764 280.19014,286.464764 280.19014,287.775764 L280.19014,299.403764 C280.19014,300.030764 280.70314,300.543764 281.33014,300.543764 L295.01014,300.543764 C295.63714,300.543764 296.15014,300.030764 296.15014,299.403764 L296.15014,287.775764 C296.15014,286.464764 297.17614,285.438764 298.48714,285.438764 L304.07314,285.438764 C305.38414,285.438764 306.41014,286.464764 306.41014,287.775764 L306.41014,324.141764 C306.41014,325.452764 305.38414,326.478764 304.07314,326.478764 L298.48714,326.478764 C297.17614,326.478764 296.15014,325.452764 296.15014,324.141764 L296.15014,311.373764 C296.15014,310.746764 295.63714,310.233764 295.01014,310.233764 L281.33014,310.233764 C280.70314,310.233764 280.19014,310.746764 280.19014,311.373764 L280.19014,324.141764 C280.19014,325.452764 279.16414,326.478764 277.85314,326.478764 L272.26714,326.478764 Z M342.83314,327.333764 C336.50614,327.333764 332.11714,324.597764 329.89414,322.773764 C328.69714,321.804764 328.69714,320.151764 329.60914,319.011764 L331.71814,316.332764 C332.80114,314.907764 334.56814,314.907764 335.99314,315.990764 C337.64614,317.244764 340.09714,318.612764 342.66214,318.612764 C345.34114,318.612764 346.59514,317.016764 346.59514,315.135764 C346.59514,313.197764 345.34114,311.829764 340.78114,309.720764 C333.31414,306.300764 329.49514,302.481764 329.49514,296.268764 C329.49514,289.542764 334.73914,284.583764 343.28914,284.583764 C347.56414,284.583764 351.04114,286.065764 353.20714,287.319764 C354.74614,288.231764 354.91714,290.112764 353.83414,291.537764 L351.83914,294.102764 C350.87014,295.356764 349.33114,295.356764 347.96314,294.558764 C346.82314,293.931764 345.22714,293.304764 343.40314,293.304764 C340.95214,293.304764 339.75514,294.558764 339.75514,296.154764 C339.75514,297.750764 340.78114,299.175764 345.05614,301.056764 C352.75114,304.419764 356.85514,307.953764 356.85514,314.679764 C356.85514,321.690764 351.55414,327.333764 342.83314,327.333764 Z M381.93514,327.333764 C369.73714,327.333764 360.27514,317.985764 360.27514,305.958764 C360.27514,293.931764 369.73714,284.583764 381.93514,284.583764 C394.13314,284.583764 403.59514,293.931764 403.59514,305.958764 C403.59514,317.985764 394.13314,327.333764 381.93514,327.333764 Z M381.93514,317.643764 C388.37614,317.643764 393.33514,312.513764 393.33514,305.958764 C393.33514,299.403764 388.37614,294.273764 381.93514,294.273764 C375.49414,294.273764 370.53514,299.403764 370.53514,305.958764 C370.53514,312.513764 375.49414,317.643764 381.93514,317.643764 Z M444.06514,324.996764 C444.06514,327.276764 441.67114,327.846764 440.07514,326.250764 L420.41014,306.870764 C419.72614,306.186764 418.81414,306.642764 418.81414,307.554764 L418.81414,324.141764 C418.81414,325.452764 417.78814,326.478764 416.47714,326.478764 L411.06214,326.478764 C409.75114,326.478764 408.72514,325.452764 408.72514,324.141764 L408.72514,286.920764 C408.72514,284.640764 411.11914,284.070764 412.71514,285.666764 L432.38014,305.046764 C433.06414,305.730764 433.97614,305.274764 433.97614,304.362764 L433.97614,287.775764 C433.97614,286.464764 435.00214,285.438764 436.31314,285.438764 L441.72814,285.438764 C443.03914,285.438764 444.06514,286.464764 444.06514,287.775764 L444.06514,324.996764 Z M449.19514,305.958764 C449.19514,293.931764 458.65714,284.583764 471.14014,284.583764 C476.32714,284.583764 480.77314,286.122764 484.36414,288.630764 C485.50414,289.428764 485.56114,291.138764 484.59214,292.221764 L481.22914,295.926764 C480.31714,296.895764 478.89214,296.838764 477.86614,296.154764 C475.98514,294.957764 473.76214,294.273764 471.14014,294.273764 C464.41414,294.273764 459.45514,299.403764 459.45514,305.958764 C459.45514,312.513764 464.41414,317.643764 470.85514,317.643764 C474.90214,317.643764 477.92314,315.819764 479.69014,313.197764 C480.20314,312.456764 479.80414,311.658764 478.77814,311.658764 L467.94814,311.658764 C466.63714,311.658764 465.61114,310.632764 465.61114,309.321764 L465.61114,305.445764 C465.61114,304.134764 466.63714,303.108764 467.94814,303.108764 L488.92414,303.108764 C490.23514,303.108764 491.37514,303.735764 491.37514,305.958764 C491.37514,317.985764 482.93914,327.333764 470.85514,327.333764 C458.65714,327.333764 449.19514,317.985764 449.19514,305.958764 Z"/>
    <polygon id="feature-activity-c" points=".517 .242 12.349 .242 12.349 10.267 .517 10.267"/>
  </defs>
  <g fill="none" fill-rule="evenodd" transform="translate(-3 -55)">
    <g stroke-width="11" transform="rotate(-7 612.102 -319.954)">
      <rect width="56" height="55" x="5.5" y="25.617" stroke="#FEFEFE"/>
      <path stroke="#EF5C53" stroke-linecap="round" d="M10.3086208,38.8903007 C14.2572601,49.2230242 17.5498797,59.8278791 22.1545387,69.8884713 C22.4512499,70.5367474 23.6105758,69.5398515 24.1030138,69.0292888 L47.2278698,51.2828882 C62.8044693,35.132972 89.8375819,13.0834548 100.046971,8" transform="rotate(-10 55.178 39.05)"/>
    </g>
    <g fill="#FFF" fill-rule="nonzero" transform="rotate(-5 289.309 125.336)">
      <use xlink:href="#feature-activity-a"/>
      <use xlink:href="#feature-activity-a"/>
    </g>
    <g fill-rule="nonzero" transform="rotate(-5 336.193 253.959)">
      <use fill="#FFF" xlink:href="#feature-activity-b"/>
      <use fill="#A74999" xlink:href="#feature-activity-b"/>
    </g>
    <g fill="#03ADB6" transform="rotate(36 -356.6 301.746)">
      <path d="M10.477392 10.8234899C12.8514261 13.3132097 12.8380739 17.3172097 10.4453466 19.7848232 8.03125568 22.2413836 4.16710795 22.2220406 1.77972159 19.7323208-.5943125 17.2481275-.575619318 13.2441275 1.82511932 10.776514 4.21517614 8.31442705 8.09801705 8.34758647 10.477392 10.8234899M37.9916193 2.67649662C40.4884943 5.27951111 40.4671307 9.49075749 37.9408807 12.0689024 35.4253125 14.6553372 31.3715625 14.6332309 28.8613352 12.0329797 26.3644602 9.41891208 26.3884943 5.22148213 28.906733 2.63504734 31.427642.0430859903 35.4947443.0707188406 37.9916193 2.67649662" transform="translate(3 29)"/>
      <polygon points="25.748 0 0 14.7 9.296 43 13.715 41.502 5.631 16.909 23.837 6.515 37.868 33.883 42 31.698"/>
    </g>
    <g fill="#F05C53" transform="translate(64.163 253)">
      <path d="M11.2214469,26.4818516 C12.621451,28.3182823 12.0797533,31.1612922 10.0267437,32.8312403 C7.96136668,34.5037498 5.16383201,34.3628799 3.77372194,32.5264492 C2.38113836,30.6823347 2.92036255,27.8393248 4.97337209,26.1668154 C7.03132863,24.494306 9.82886331,24.6377371 11.2214469,26.4818516"/>
      <polygon points="8.672 28 0 0 17 8.049 15.761 10.669 4.717 5.437 11.434 27.143"/>
    </g>
    <g transform="rotate(24 -586.31 168.025)">
      <g transform="translate(1.26 31.858)">
        <mask id="feature-activity-d" fill="#fff">
          <use xlink:href="#feature-activity-c"/>
        </mask>
        <path fill="#A74999" d="M11.3724874,1.95162917 C13.1771933,4.02485417 12.4059328,7.18955417 9.68139496,9.01830417 C6.93937815,10.8489792 3.27315966,10.6410792 1.48811765,8.56592917 C-0.305663866,6.48307917 0.456857143,3.31837917 3.18139496,1.48962917 C5.91467227,-0.341045833 9.58089076,-0.133145833 11.3724874,1.95162917" mask="url(#feature-activity-d)"/>
      </g>
      <polygon fill="#A74999" points="9.798 33.143 13.094 32.186 5.521 6.607 18.519 12.942 20.03 9.888 .03 .143"/>
    </g>
  </g>
</svg>
