<svg xmlns="http://www.w3.org/2000/svg" width="463" height="139" viewBox="0 0 463 139">
  <g fill="none" fill-rule="evenodd" transform="translate(0 -1)">
    <g stroke-width="11" transform="rotate(3 -16.58 103.216)">
      <rect width="56" height="55" x="5.5" y="25.617" stroke="#FEFEFE"/>
      <path stroke="#EF5C53" stroke-linecap="round" d="M10.3086208,38.8903007 C14.2572601,49.2230242 17.5498797,59.8278791 22.1545387,69.8884713 C22.4512499,70.5367474 23.6105758,69.5398515 24.1030138,69.0292888 L47.2278698,51.2828882 C62.8044693,35.132972 89.8375819,13.0834548 100.046971,8" transform="rotate(-10 55.178 39.05)"/>
    </g>
    <path fill="#FFF" fill-rule="nonzero" d="M105.289866,84.8705308 C103.978866,84.8705308 102.952866,83.8445308 102.952866,82.5335308 L102.952866,53.5205308 C102.952866,52.8935308 102.439866,52.3805308 101.812866,52.3805308 L97.8798659,52.3805308 C96.5688659,52.3805308 95.5428659,51.3545308 95.5428659,50.0435308 L95.5428659,46.1675308 C95.5428659,44.8565308 96.5688659,43.8305308 97.8798659,43.8305308 L110.305866,43.8305308 C111.616866,43.8305308 112.642866,44.8565308 112.642866,46.1675308 L112.642866,82.5335308 C112.642866,83.8445308 111.616866,84.8705308 110.305866,84.8705308 L105.289866,84.8705308 Z M133.732866,42.9755308 C141.313866,42.9755308 147.412866,48.9605308 147.412866,56.3705308 C147.412866,59.2775308 146.443866,62.6405308 144.961866,65.8325308 L137.038866,83.0465308 C136.525866,84.1295308 135.613866,84.8705308 134.188866,84.8705308 L129.742866,84.8705308 C128.146866,84.8705308 127.234866,83.3885308 127.918866,81.9065308 L133.390866,70.3355308 C133.675866,69.7085308 133.390866,69.1955308 132.706866,69.1955308 L132.592866,69.1955308 C125.296866,69.1955308 120.052866,64.0085308 120.052866,56.5985308 C120.052866,48.9035308 125.866866,42.9755308 133.732866,42.9755308 Z M133.732866,51.8105308 C131.110866,51.8105308 129.172866,53.7485308 129.172866,56.3705308 C129.172866,58.9925308 131.110866,60.9305308 133.732866,60.9305308 C136.354866,60.9305308 138.292866,58.9925308 138.292866,56.3705308 C138.292866,53.7485308 136.354866,51.8105308 133.732866,51.8105308 Z M190.162866,85.7255308 C177.964866,85.7255308 168.502866,76.3775308 168.502866,64.3505308 C168.502866,52.3235308 177.964866,42.9755308 190.162866,42.9755308 C196.888866,42.9755308 202.417866,45.8255308 206.350866,50.4995308 C207.433866,51.8105308 207.148866,53.5775308 205.723866,54.6035308 L202.531866,56.8835308 C201.106866,57.9095308 199.681866,57.6245308 198.427866,56.3705308 C196.375866,54.2615308 193.525866,52.8365308 190.162866,52.8365308 C183.721866,52.8365308 178.762866,57.8525308 178.762866,64.3505308 C178.762866,70.8485308 183.721866,75.8645308 190.162866,75.8645308 C193.582866,75.8645308 196.489866,74.5535308 198.484866,72.2735308 C199.567866,71.0195308 201.049866,70.8485308 202.360866,71.7605308 L205.609866,74.0975308 C207.091866,75.1805308 207.490866,76.8335308 206.407866,78.1445308 C202.474866,82.8185308 196.888866,85.7255308 190.162866,85.7255308 Z M213.931866,84.8705308 C212.620866,84.8705308 211.594866,83.8445308 211.594866,82.5335308 L211.594866,46.1675308 C211.594866,44.8565308 212.620866,43.8305308 213.931866,43.8305308 L225.844866,43.8305308 C233.824866,43.8305308 238.954866,49.7585308 238.954866,56.5415308 C238.954866,60.9305308 236.788866,64.9775308 233.083866,67.2575308 C232.627866,67.5425308 232.456866,68.0555308 232.741866,68.5115308 L241.633866,82.0205308 C242.488866,83.3315308 241.690866,84.8705308 240.094866,84.8705308 L233.254866,84.8705308 C232.228866,84.8705308 231.259866,84.3575308 230.689866,83.4455308 L223.165866,70.5635308 C222.937866,70.2215308 222.709866,70.0505308 222.424866,70.0505308 L222.367866,70.0505308 C222.025866,70.0505308 221.854866,70.3355308 221.854866,70.8485308 L221.854866,82.5335308 C221.854866,83.8445308 220.828866,84.8705308 219.517866,84.8705308 L213.931866,84.8705308 Z M222.994866,61.7855308 L224.134866,61.7855308 C226.927866,61.7855308 228.979866,59.8475308 228.979866,57.2255308 C228.979866,54.6035308 226.927866,52.6655308 224.134866,52.6655308 L222.994866,52.6655308 C222.367866,52.6655308 221.854866,53.1785308 221.854866,53.8055308 L221.854866,60.6455308 C221.854866,61.2725308 222.367866,61.7855308 222.994866,61.7855308 Z M249.271866,84.8705308 C247.960866,84.8705308 246.934866,83.8445308 246.934866,82.5335308 L246.934866,46.1675308 C246.934866,44.8565308 247.960866,43.8305308 249.271866,43.8305308 L268.537866,43.8305308 C269.848866,43.8305308 270.874866,44.8565308 270.874866,46.1675308 L270.874866,50.8985308 C270.874866,52.2095308 269.848866,53.2355308 268.537866,53.2355308 L258.334866,53.2355308 C257.707866,53.2355308 257.194866,53.7485308 257.194866,54.3755308 L257.194866,58.4795308 C257.194866,59.1065308 257.707866,59.6195308 258.334866,59.6195308 L269.962866,59.6195308 C271.273866,59.6195308 272.299866,60.6455308 272.299866,61.9565308 L272.299866,65.8895308 C272.299866,67.2005308 271.273866,68.2265308 269.962866,68.2265308 L258.334866,68.2265308 C257.707866,68.2265308 257.194866,68.7395308 257.194866,69.3665308 L257.194866,74.3255308 C257.194866,74.9525308 257.707866,75.4655308 258.334866,75.4655308 L270.247866,75.4655308 C271.558866,75.4655308 272.584866,76.4915308 272.584866,77.8025308 L272.584866,82.5335308 C272.584866,83.8445308 271.558866,84.8705308 270.247866,84.8705308 L249.271866,84.8705308 Z M277.543866,84.8705308 C275.890866,84.8705308 274.921866,83.4455308 275.662866,81.9065308 L293.275866,44.6285308 C294.187866,42.6905308 296.467866,42.6905308 297.379866,44.6285308 L314.992866,81.9065308 C315.733866,83.4455308 314.764866,84.8705308 313.111866,84.8705308 L306.841866,84.8705308 C305.359866,84.8705308 304.105866,84.0725308 303.535866,82.6475308 L302.680866,80.4245308 C302.452866,79.8545308 301.882866,79.4555308 301.255866,79.4555308 L288.373866,79.4555308 C287.746866,79.4555308 287.176866,79.7975308 286.948866,80.3675308 L286.036866,82.7045308 C285.523866,84.0725308 284.212866,84.8705308 282.730866,84.8705308 L277.543866,84.8705308 Z M291.394866,69.9365308 C291.166866,70.3925308 291.508866,70.9055308 292.021866,70.9055308 L297.835866,70.9055308 C298.348866,70.9055308 298.633866,70.4495308 298.462866,69.9935308 L295.783866,63.3245308 C295.498866,62.6405308 294.586866,62.5835308 294.301866,63.2675308 L291.394866,69.9365308 Z M312.997866,53.5205308 C311.686866,53.5205308 310.660866,52.4945308 310.660866,51.1835308 L310.660866,46.1675308 C310.660866,44.8565308 311.686866,43.8305308 312.997866,43.8305308 L338.533866,43.8305308 C339.844866,43.8305308 340.870866,44.8565308 340.870866,46.1675308 L340.870866,51.1835308 C340.870866,52.4945308 339.844866,53.5205308 338.533866,53.5205308 L332.035866,53.5205308 C331.408866,53.5205308 330.895866,54.0335308 330.895866,54.6605308 L330.895866,82.5335308 C330.895866,83.8445308 329.869866,84.8705308 328.558866,84.8705308 L322.972866,84.8705308 C321.661866,84.8705308 320.635866,83.8445308 320.635866,82.5335308 L320.635866,54.6605308 C320.635866,54.0335308 320.122866,53.5205308 319.495866,53.5205308 L312.997866,53.5205308 Z M347.767866,84.8705308 C346.456866,84.8705308 345.430866,83.8445308 345.430866,82.5335308 L345.430866,46.1675308 C345.430866,44.8565308 346.456866,43.8305308 347.767866,43.8305308 L353.353866,43.8305308 C354.664866,43.8305308 355.690866,44.8565308 355.690866,46.1675308 L355.690866,82.5335308 C355.690866,83.8445308 354.664866,84.8705308 353.353866,84.8705308 L347.767866,84.8705308 Z M374.215866,84.3575308 L360.421866,46.5665308 C359.908866,45.1985308 360.592866,43.8305308 362.245866,43.8305308 L368.173866,43.8305308 C369.712866,43.8305308 370.795866,44.6285308 371.194866,45.9965308 L375.925866,61.8995308 C376.210866,62.8685308 377.236866,62.8685308 377.521866,61.8995308 L382.252866,45.9965308 C382.651866,44.6285308 383.734866,43.8305308 385.273866,43.8305308 L390.061866,43.8305308 C391.714866,43.8305308 392.398866,45.1985308 391.885866,46.5665308 L378.091866,84.3575308 C377.350866,86.3525308 374.956866,86.3525308 374.215866,84.3575308 Z M398.383866,84.8705308 C397.072866,84.8705308 396.046866,83.8445308 396.046866,82.5335308 L396.046866,46.1675308 C396.046866,44.8565308 397.072866,43.8305308 398.383866,43.8305308 L417.649866,43.8305308 C418.960866,43.8305308 419.986866,44.8565308 419.986866,46.1675308 L419.986866,50.8985308 C419.986866,52.2095308 418.960866,53.2355308 417.649866,53.2355308 L407.446866,53.2355308 C406.819866,53.2355308 406.306866,53.7485308 406.306866,54.3755308 L406.306866,58.4795308 C406.306866,59.1065308 406.819866,59.6195308 407.446866,59.6195308 L419.074866,59.6195308 C420.385866,59.6195308 421.411866,60.6455308 421.411866,61.9565308 L421.411866,65.8895308 C421.411866,67.2005308 420.385866,68.2265308 419.074866,68.2265308 L407.446866,68.2265308 C406.819866,68.2265308 406.306866,68.7395308 406.306866,69.3665308 L406.306866,74.3255308 C406.306866,74.9525308 406.819866,75.4655308 407.446866,75.4655308 L419.359866,75.4655308 C420.670866,75.4655308 421.696866,76.4915308 421.696866,77.8025308 L421.696866,82.5335308 C421.696866,83.8445308 420.670866,84.8705308 419.359866,84.8705308 L398.383866,84.8705308 Z M100.159866,136.870531 C98.8488659,136.870531 97.8228659,135.844531 97.8228659,134.533531 L97.8228659,98.1675308 C97.8228659,96.8565308 98.8488659,95.8305308 100.159866,95.8305308 L105.745866,95.8305308 C107.056866,95.8305308 108.082866,96.8565308 108.082866,98.1675308 L108.082866,134.533531 C108.082866,135.844531 107.056866,136.870531 105.745866,136.870531 L100.159866,136.870531 Z M117.829866,136.870531 C116.518866,136.870531 115.492866,135.844531 115.492866,134.533531 L115.492866,98.1675308 C115.492866,96.8565308 116.518866,95.8305308 117.829866,95.8305308 L128.032866,95.8305308 C141.313866,95.8305308 147.982866,104.665531 147.982866,116.350531 C147.982866,128.035531 141.313866,136.870531 128.032866,136.870531 L117.829866,136.870531 Z M125.752866,126.325531 C125.752866,126.952531 126.265866,127.465531 126.892866,127.465531 L128.032866,127.465531 C134.872866,127.465531 137.722866,123.019531 137.722866,116.350531 C137.722866,109.681531 134.872866,105.235531 128.032866,105.235531 L126.892866,105.235531 C126.265866,105.235531 125.752866,105.748531 125.752866,106.375531 L125.752866,126.325531 Z M155.449866,136.870531 C154.138866,136.870531 153.112866,135.844531 153.112866,134.533531 L153.112866,98.1675308 C153.112866,96.8565308 154.138866,95.8305308 155.449866,95.8305308 L174.715866,95.8305308 C176.026866,95.8305308 177.052866,96.8565308 177.052866,98.1675308 L177.052866,102.898531 C177.052866,104.209531 176.026866,105.235531 174.715866,105.235531 L164.512866,105.235531 C163.885866,105.235531 163.372866,105.748531 163.372866,106.375531 L163.372866,110.479531 C163.372866,111.106531 163.885866,111.619531 164.512866,111.619531 L176.140866,111.619531 C177.451866,111.619531 178.477866,112.645531 178.477866,113.956531 L178.477866,117.889531 C178.477866,119.200531 177.451866,120.226531 176.140866,120.226531 L164.512866,120.226531 C163.885866,120.226531 163.372866,120.739531 163.372866,121.366531 L163.372866,126.325531 C163.372866,126.952531 163.885866,127.465531 164.512866,127.465531 L176.425866,127.465531 C177.736866,127.465531 178.762866,128.491531 178.762866,129.802531 L178.762866,134.533531 C178.762866,135.844531 177.736866,136.870531 176.425866,136.870531 L155.449866,136.870531 Z M183.721866,136.870531 C182.068866,136.870531 181.099866,135.445531 181.840866,133.906531 L199.453866,96.6285308 C200.365866,94.6905308 202.645866,94.6905308 203.557866,96.6285308 L221.170866,133.906531 C221.911866,135.445531 220.942866,136.870531 219.289866,136.870531 L213.019866,136.870531 C211.537866,136.870531 210.283866,136.072531 209.713866,134.647531 L208.858866,132.424531 C208.630866,131.854531 208.060866,131.455531 207.433866,131.455531 L194.551866,131.455531 C193.924866,131.455531 193.354866,131.797531 193.126866,132.367531 L192.214866,134.704531 C191.701866,136.072531 190.390866,136.870531 188.908866,136.870531 L183.721866,136.870531 Z M197.572866,121.936531 C197.344866,122.392531 197.686866,122.905531 198.199866,122.905531 L204.013866,122.905531 C204.526866,122.905531 204.811866,122.449531 204.640866,121.993531 L201.961866,115.324531 C201.676866,114.640531 200.764866,114.583531 200.479866,115.267531 L197.572866,121.936531 Z M237.871866,137.725531 C231.544866,137.725531 227.155866,134.989531 224.932866,133.165531 C223.735866,132.196531 223.735866,130.543531 224.647866,129.403531 L226.756866,126.724531 C227.839866,125.299531 229.606866,125.299531 231.031866,126.382531 C232.684866,127.636531 235.135866,129.004531 237.700866,129.004531 C240.379866,129.004531 241.633866,127.408531 241.633866,125.527531 C241.633866,123.589531 240.379866,122.221531 235.819866,120.112531 C228.352866,116.692531 224.533866,112.873531 224.533866,106.660531 C224.533866,99.9345308 229.777866,94.9755308 238.327866,94.9755308 C242.602866,94.9755308 246.079866,96.4575308 248.245866,97.7115308 C249.784866,98.6235308 249.955866,100.504531 248.872866,101.929531 L246.877866,104.494531 C245.908866,105.748531 244.369866,105.748531 243.001866,104.950531 C241.861866,104.323531 240.265866,103.696531 238.441866,103.696531 C235.990866,103.696531 234.793866,104.950531 234.793866,106.546531 C234.793866,108.142531 235.819866,109.567531 240.094866,111.448531 C247.789866,114.811531 251.893866,118.345531 251.893866,125.071531 C251.893866,132.082531 246.592866,137.725531 237.871866,137.725531 Z M273.610866,105.520531 C272.299866,105.520531 271.273866,104.494531 271.273866,103.183531 L271.273866,98.1675308 C271.273866,96.8565308 272.299866,95.8305308 273.610866,95.8305308 L299.146866,95.8305308 C300.457866,95.8305308 301.483866,96.8565308 301.483866,98.1675308 L301.483866,103.183531 C301.483866,104.494531 300.457866,105.520531 299.146866,105.520531 L292.648866,105.520531 C292.021866,105.520531 291.508866,106.033531 291.508866,106.660531 L291.508866,134.533531 C291.508866,135.844531 290.482866,136.870531 289.171866,136.870531 L283.585866,136.870531 C282.274866,136.870531 281.248866,135.844531 281.248866,134.533531 L281.248866,106.660531 C281.248866,106.033531 280.735866,105.520531 280.108866,105.520531 L273.610866,105.520531 Z M324.283866,137.725531 C312.085866,137.725531 302.623866,128.377531 302.623866,116.350531 C302.623866,104.323531 312.085866,94.9755308 324.283866,94.9755308 C336.481866,94.9755308 345.943866,104.323531 345.943866,116.350531 C345.943866,128.377531 336.481866,137.725531 324.283866,137.725531 Z M324.283866,128.035531 C330.724866,128.035531 335.683866,122.905531 335.683866,116.350531 C335.683866,109.795531 330.724866,104.665531 324.283866,104.665531 C317.842866,104.665531 312.883866,109.795531 312.883866,116.350531 C312.883866,122.905531 317.842866,128.035531 324.283866,128.035531 Z M367.660866,105.520531 C366.349866,105.520531 365.323866,104.494531 365.323866,103.183531 L365.323866,98.1675308 C365.323866,96.8565308 366.349866,95.8305308 367.660866,95.8305308 L393.196866,95.8305308 C394.507866,95.8305308 395.533866,96.8565308 395.533866,98.1675308 L395.533866,103.183531 C395.533866,104.494531 394.507866,105.520531 393.196866,105.520531 L386.698866,105.520531 C386.071866,105.520531 385.558866,106.033531 385.558866,106.660531 L385.558866,134.533531 C385.558866,135.844531 384.532866,136.870531 383.221866,136.870531 L377.635866,136.870531 C376.324866,136.870531 375.298866,135.844531 375.298866,134.533531 L375.298866,106.660531 C375.298866,106.033531 374.785866,105.520531 374.158866,105.520531 L367.660866,105.520531 Z M401.860866,136.870531 C400.549866,136.870531 399.523866,135.844531 399.523866,134.533531 L399.523866,98.1675308 C399.523866,96.8565308 400.549866,95.8305308 401.860866,95.8305308 L413.773866,95.8305308 C421.753866,95.8305308 426.883866,101.758531 426.883866,108.541531 C426.883866,112.930531 424.717866,116.977531 421.012866,119.257531 C420.556866,119.542531 420.385866,120.055531 420.670866,120.511531 L429.562866,134.020531 C430.417866,135.331531 429.619866,136.870531 428.023866,136.870531 L421.183866,136.870531 C420.157866,136.870531 419.188866,136.357531 418.618866,135.445531 L411.094866,122.563531 C410.866866,122.221531 410.638866,122.050531 410.353866,122.050531 L410.296866,122.050531 C409.954866,122.050531 409.783866,122.335531 409.783866,122.848531 L409.783866,134.533531 C409.783866,135.844531 408.757866,136.870531 407.446866,136.870531 L401.860866,136.870531 Z M410.923866,113.785531 L412.063866,113.785531 C414.856866,113.785531 416.908866,111.847531 416.908866,109.225531 C416.908866,106.603531 414.856866,104.665531 412.063866,104.665531 L410.923866,104.665531 C410.296866,104.665531 409.783866,105.178531 409.783866,105.805531 L409.783866,112.645531 C409.783866,113.272531 410.296866,113.785531 410.923866,113.785531 Z M443.128866,136.870531 C441.817866,136.870531 440.791866,135.844531 440.791866,134.533531 L440.791866,119.200531 C440.791866,118.630531 440.677866,118.060531 440.392866,117.604531 L429.562866,99.0225308 C428.650866,97.4265308 429.391866,95.8305308 431.386866,95.8305308 L437.599866,95.8305308 C439.081866,95.8305308 440.050866,96.4575308 440.677866,97.6545308 L445.750866,106.717531 C446.092866,107.344531 446.890866,107.344531 447.232866,106.717531 L452.305866,97.6545308 C452.932866,96.4575308 453.901866,95.8305308 455.383866,95.8305308 L460.456866,95.8305308 C462.451866,95.8305308 463.192866,97.4265308 462.280866,99.0225308 L451.450866,117.604531 C451.165866,118.060531 451.051866,118.630531 451.051866,119.200531 L451.051866,134.533531 C451.051866,135.844531 450.025866,136.870531 448.714866,136.870531 L443.128866,136.870531 Z" transform="rotate(1 279.105 90.35)"/>
  </g>
</svg>
