<svg xmlns="http://www.w3.org/2000/svg" width="524" height="128" viewBox="0 0 524 128">
  <g fill="none" fill-rule="evenodd" transform="translate(-.563 4.068)">
    <g stroke-width="11" transform="rotate(-2 131.936 -13.842)">
      <rect width="56" height="55" x="5.5" y="25.617" stroke="#FEFEFE"/>
      <path stroke="#EF5C53" stroke-linecap="round" d="M10.3086208,38.8903007 C14.2572601,49.2230242 17.5498797,59.8278791 22.1545387,69.8884713 C22.4512499,70.5367474 23.6105758,69.5398515 24.1030138,69.0292888 L47.2278698,51.2828882 C62.8044693,35.132972 89.8375819,13.0834548 100.046971,8" transform="rotate(-10 55.178 39.05)"/>
    </g>
    <path fill="#FFF" fill-rule="nonzero" d="M105.689034,64.2758177 C104.378034,64.2758177 103.352034,63.2498177 103.352034,61.9388177 L103.352034,32.9258177 C103.352034,32.2988177 102.839034,31.7858177 102.212034,31.7858177 L98.2790338,31.7858177 C96.9680338,31.7858177 95.9420338,30.7598177 95.9420338,29.4488177 L95.9420338,25.5728177 C95.9420338,24.2618177 96.9680338,23.2358177 98.2790338,23.2358177 L110.705034,23.2358177 C112.016034,23.2358177 113.042034,24.2618177 113.042034,25.5728177 L113.042034,61.9388177 C113.042034,63.2498177 112.016034,64.2758177 110.705034,64.2758177 L105.689034,64.2758177 Z M119.711034,60.2858177 C118.685034,59.1458177 118.742034,57.7208177 119.939034,56.7518177 L122.219034,54.8138177 C123.359034,53.8448177 124.784034,53.9588177 125.981034,54.9278177 C127.406034,56.0108177 128.717034,56.4668177 130.313034,56.4668177 C133.163034,56.4668177 135.272034,54.3008177 135.272034,51.6788177 C135.272034,48.4868177 133.334034,46.6058177 128.432034,46.6058177 L127.520034,46.6058177 C126.380034,46.6058177 125.582034,45.8078177 125.582034,44.6678177 L125.582034,42.2738177 C125.582034,41.1338177 126.380034,40.3358177 127.520034,40.3358177 L128.432034,40.3358177 C132.992034,40.3358177 134.702034,38.2268177 134.702034,35.3768177 C134.702034,33.0968177 132.764034,31.0448177 130.256034,31.0448177 C129.002034,31.0448177 127.919034,31.3298177 126.665034,32.2418177 C125.411034,33.0968177 123.986034,33.1538177 122.903034,32.1278177 L120.794034,30.0758177 C119.711034,28.9928177 119.597034,27.5108177 120.680034,26.4278177 C123.188034,24.0338177 126.836034,22.3808177 131.111034,22.3808177 C139.547034,22.3808177 144.392034,27.5108177 144.392034,34.2938177 C144.392034,37.6568177 143.024034,40.5068177 140.516034,42.6158177 C140.003034,43.0148177 140.060034,43.6418177 140.573034,44.0408177 C143.423034,46.1498177 144.962034,49.1708177 144.962034,52.8758177 C144.962034,60.0008177 139.889034,65.1308177 131.111034,65.1308177 C126.266034,65.1308177 122.276034,63.1358177 119.711034,60.2858177 Z M187.712034,65.1308177 C175.514034,65.1308177 166.052034,55.7828177 166.052034,43.7558177 C166.052034,31.7288177 175.514034,22.3808177 187.712034,22.3808177 C194.438034,22.3808177 199.967034,25.2308177 203.900034,29.9048177 C204.983034,31.2158177 204.698034,32.9828177 203.273034,34.0088177 L200.081034,36.2888177 C198.656034,37.3148177 197.231034,37.0298177 195.977034,35.7758177 C193.925034,33.6668177 191.075034,32.2418177 187.712034,32.2418177 C181.271034,32.2418177 176.312034,37.2578177 176.312034,43.7558177 C176.312034,50.2538177 181.271034,55.2698177 187.712034,55.2698177 C191.132034,55.2698177 194.039034,53.9588177 196.034034,51.6788177 C197.117034,50.4248177 198.599034,50.2538177 199.910034,51.1658177 L203.159034,53.5028177 C204.641034,54.5858177 205.040034,56.2388177 203.957034,57.5498177 C200.024034,62.2238177 194.438034,65.1308177 187.712034,65.1308177 Z M206.693034,64.2758177 C205.040034,64.2758177 204.071034,62.8508177 204.812034,61.3118177 L222.425034,24.0338177 C223.337034,22.0958177 225.617034,22.0958177 226.529034,24.0338177 L244.142034,61.3118177 C244.883034,62.8508177 243.914034,64.2758177 242.261034,64.2758177 L235.991034,64.2758177 C234.509034,64.2758177 233.255034,63.4778177 232.685034,62.0528177 L231.830034,59.8298177 C231.602034,59.2598177 231.032034,58.8608177 230.405034,58.8608177 L217.523034,58.8608177 C216.896034,58.8608177 216.326034,59.2028177 216.098034,59.7728177 L215.186034,62.1098177 C214.673034,63.4778177 213.362034,64.2758177 211.880034,64.2758177 L206.693034,64.2758177 Z M220.544034,49.3418177 C220.316034,49.7978177 220.658034,50.3108177 221.171034,50.3108177 L226.985034,50.3108177 C227.498034,50.3108177 227.783034,49.8548177 227.612034,49.3988177 L224.933034,42.7298177 C224.648034,42.0458177 223.736034,41.9888177 223.451034,42.6728177 L220.544034,49.3418177 Z M242.147034,32.9258177 C240.836034,32.9258177 239.810034,31.8998177 239.810034,30.5888177 L239.810034,25.5728177 C239.810034,24.2618177 240.836034,23.2358177 242.147034,23.2358177 L267.683034,23.2358177 C268.994034,23.2358177 270.020034,24.2618177 270.020034,25.5728177 L270.020034,30.5888177 C270.020034,31.8998177 268.994034,32.9258177 267.683034,32.9258177 L261.185034,32.9258177 C260.558034,32.9258177 260.045034,33.4388177 260.045034,34.0658177 L260.045034,61.9388177 C260.045034,63.2498177 259.019034,64.2758177 257.708034,64.2758177 L252.122034,64.2758177 C250.811034,64.2758177 249.785034,63.2498177 249.785034,61.9388177 L249.785034,34.0658177 C249.785034,33.4388177 249.272034,32.9258177 248.645034,32.9258177 L242.147034,32.9258177 Z M292.820034,65.1308177 C280.622034,65.1308177 271.160034,55.7828177 271.160034,43.7558177 C271.160034,31.7288177 280.622034,22.3808177 292.820034,22.3808177 C299.546034,22.3808177 305.075034,25.2308177 309.008034,29.9048177 C310.091034,31.2158177 309.806034,32.9828177 308.381034,34.0088177 L305.189034,36.2888177 C303.764034,37.3148177 302.339034,37.0298177 301.085034,35.7758177 C299.033034,33.6668177 296.183034,32.2418177 292.820034,32.2418177 C286.379034,32.2418177 281.420034,37.2578177 281.420034,43.7558177 C281.420034,50.2538177 286.379034,55.2698177 292.820034,55.2698177 C296.240034,55.2698177 299.147034,53.9588177 301.142034,51.6788177 C302.225034,50.4248177 303.707034,50.2538177 305.018034,51.1658177 L308.267034,53.5028177 C309.749034,54.5858177 310.148034,56.2388177 309.065034,57.5498177 C305.132034,62.2238177 299.546034,65.1308177 292.820034,65.1308177 Z M316.589034,64.2758177 C315.278034,64.2758177 314.252034,63.2498177 314.252034,61.9388177 L314.252034,25.5728177 C314.252034,24.2618177 315.278034,23.2358177 316.589034,23.2358177 L322.175034,23.2358177 C323.486034,23.2358177 324.512034,24.2618177 324.512034,25.5728177 L324.512034,37.2008177 C324.512034,37.8278177 325.025034,38.3408177 325.652034,38.3408177 L339.332034,38.3408177 C339.959034,38.3408177 340.472034,37.8278177 340.472034,37.2008177 L340.472034,25.5728177 C340.472034,24.2618177 341.498034,23.2358177 342.809034,23.2358177 L348.395034,23.2358177 C349.706034,23.2358177 350.732034,24.2618177 350.732034,25.5728177 L350.732034,61.9388177 C350.732034,63.2498177 349.706034,64.2758177 348.395034,64.2758177 L342.809034,64.2758177 C341.498034,64.2758177 340.472034,63.2498177 340.472034,61.9388177 L340.472034,49.1708177 C340.472034,48.5438177 339.959034,48.0308177 339.332034,48.0308177 L325.652034,48.0308177 C325.025034,48.0308177 324.512034,48.5438177 324.512034,49.1708177 L324.512034,61.9388177 C324.512034,63.2498177 323.486034,64.2758177 322.175034,64.2758177 L316.589034,64.2758177 Z M368.687034,64.2758177 C367.376034,64.2758177 366.350034,63.2498177 366.350034,61.9388177 L366.350034,46.6058177 C366.350034,46.0358177 366.236034,45.4658177 365.951034,45.0098177 L355.121034,26.4278177 C354.209034,24.8318177 354.950034,23.2358177 356.945034,23.2358177 L363.158034,23.2358177 C364.640034,23.2358177 365.609034,23.8628177 366.236034,25.0598177 L371.309034,34.1228177 C371.651034,34.7498177 372.449034,34.7498177 372.791034,34.1228177 L377.864034,25.0598177 C378.491034,23.8628177 379.460034,23.2358177 380.942034,23.2358177 L386.015034,23.2358177 C388.010034,23.2358177 388.751034,24.8318177 387.839034,26.4278177 L377.009034,45.0098177 C376.724034,45.4658177 376.610034,46.0358177 376.610034,46.6058177 L376.610034,61.9388177 C376.610034,63.2498177 375.584034,64.2758177 374.273034,64.2758177 L368.687034,64.2758177 Z M408.587034,64.2758177 C406.934034,64.2758177 405.965034,62.8508177 406.706034,61.3118177 L424.319034,24.0338177 C425.231034,22.0958177 427.511034,22.0958177 428.423034,24.0338177 L446.036034,61.3118177 C446.777034,62.8508177 445.808034,64.2758177 444.155034,64.2758177 L437.885034,64.2758177 C436.403034,64.2758177 435.149034,63.4778177 434.579034,62.0528177 L433.724034,59.8298177 C433.496034,59.2598177 432.926034,58.8608177 432.299034,58.8608177 L419.417034,58.8608177 C418.790034,58.8608177 418.220034,59.2028177 417.992034,59.7728177 L417.080034,62.1098177 C416.567034,63.4778177 415.256034,64.2758177 413.774034,64.2758177 L408.587034,64.2758177 Z M422.438034,49.3418177 C422.210034,49.7978177 422.552034,50.3108177 423.065034,50.3108177 L428.879034,50.3108177 C429.392034,50.3108177 429.677034,49.8548177 429.506034,49.3988177 L426.827034,42.7298177 C426.542034,42.0458177 425.630034,41.9888177 425.345034,42.6728177 L422.438034,49.3418177 Z M485.594034,62.7938177 C485.594034,65.0738177 483.200034,65.6438177 481.604034,64.0478177 L461.939034,44.6678177 C461.255034,43.9838177 460.343034,44.4398177 460.343034,45.3518177 L460.343034,61.9388177 C460.343034,63.2498177 459.317034,64.2758177 458.006034,64.2758177 L452.591034,64.2758177 C451.280034,64.2758177 450.254034,63.2498177 450.254034,61.9388177 L450.254034,24.7178177 C450.254034,22.4378177 452.648034,21.8678177 454.244034,23.4638177 L473.909034,42.8438177 C474.593034,43.5278177 475.505034,43.0718177 475.505034,42.1598177 L475.505034,25.5728177 C475.505034,24.2618177 476.531034,23.2358177 477.842034,23.2358177 L483.257034,23.2358177 C484.568034,23.2358177 485.594034,24.2618177 485.594034,25.5728177 L485.594034,62.7938177 Z M494.771034,64.2758177 C493.460034,64.2758177 492.434034,63.2498177 492.434034,61.9388177 L492.434034,25.5728177 C492.434034,24.2618177 493.460034,23.2358177 494.771034,23.2358177 L504.974034,23.2358177 C518.255034,23.2358177 524.924034,32.0708177 524.924034,43.7558177 C524.924034,55.4408177 518.255034,64.2758177 504.974034,64.2758177 L494.771034,64.2758177 Z M502.694034,53.7308177 C502.694034,54.3578177 503.207034,54.8708177 503.834034,54.8708177 L504.974034,54.8708177 C511.814034,54.8708177 514.664034,50.4248177 514.664034,43.7558177 C514.664034,37.0868177 511.814034,32.6408177 504.974034,32.6408177 L503.834034,32.6408177 C503.207034,32.6408177 502.694034,33.1538177 502.694034,33.7808177 L502.694034,53.7308177 Z M99.9890338,116.275818 C98.6780338,116.275818 97.6520338,115.249818 97.6520338,113.938818 L97.6520338,77.5728177 C97.6520338,76.2618177 98.6780338,75.2358177 99.9890338,75.2358177 L105.575034,75.2358177 C106.886034,75.2358177 107.912034,76.2618177 107.912034,77.5728177 L107.912034,105.445818 C107.912034,106.072818 108.425034,106.585818 109.052034,106.585818 L120.965034,106.585818 C122.276034,106.585818 123.302034,107.611818 123.302034,108.922818 L123.302034,113.938818 C123.302034,115.249818 122.276034,116.275818 120.965034,116.275818 L99.9890338,116.275818 Z M130.199034,116.275818 C128.888034,116.275818 127.862034,115.249818 127.862034,113.938818 L127.862034,77.5728177 C127.862034,76.2618177 128.888034,75.2358177 130.199034,75.2358177 L135.785034,75.2358177 C137.096034,75.2358177 138.122034,76.2618177 138.122034,77.5728177 L138.122034,113.938818 C138.122034,115.249818 137.096034,116.275818 135.785034,116.275818 L130.199034,116.275818 Z M156.647034,115.762818 L142.853034,77.9718177 C142.340034,76.6038177 143.024034,75.2358177 144.677034,75.2358177 L150.605034,75.2358177 C152.144034,75.2358177 153.227034,76.0338177 153.626034,77.4018177 L158.357034,93.3048177 C158.642034,94.2738177 159.668034,94.2738177 159.953034,93.3048177 L164.684034,77.4018177 C165.083034,76.0338177 166.166034,75.2358177 167.705034,75.2358177 L172.493034,75.2358177 C174.146034,75.2358177 174.830034,76.6038177 174.317034,77.9718177 L160.523034,115.762818 C159.782034,117.757818 157.388034,117.757818 156.647034,115.762818 Z M180.815034,116.275818 C179.504034,116.275818 178.478034,115.249818 178.478034,113.938818 L178.478034,77.5728177 C178.478034,76.2618177 179.504034,75.2358177 180.815034,75.2358177 L200.081034,75.2358177 C201.392034,75.2358177 202.418034,76.2618177 202.418034,77.5728177 L202.418034,82.3038177 C202.418034,83.6148177 201.392034,84.6408177 200.081034,84.6408177 L189.878034,84.6408177 C189.251034,84.6408177 188.738034,85.1538177 188.738034,85.7808177 L188.738034,89.8848177 C188.738034,90.5118177 189.251034,91.0248177 189.878034,91.0248177 L201.506034,91.0248177 C202.817034,91.0248177 203.843034,92.0508177 203.843034,93.3618177 L203.843034,97.2948177 C203.843034,98.6058177 202.817034,99.6318177 201.506034,99.6318177 L189.878034,99.6318177 C189.251034,99.6318177 188.738034,100.144818 188.738034,100.771818 L188.738034,105.730818 C188.738034,106.357818 189.251034,106.870818 189.878034,106.870818 L201.791034,106.870818 C203.102034,106.870818 204.128034,107.896818 204.128034,109.207818 L204.128034,113.938818 C204.128034,115.249818 203.102034,116.275818 201.791034,116.275818 L180.815034,116.275818 Z M212.165034,116.275818 C210.854034,116.275818 209.828034,115.249818 209.828034,113.938818 L209.828034,77.5728177 C209.828034,76.2618177 210.854034,75.2358177 212.165034,75.2358177 L217.751034,75.2358177 C219.062034,75.2358177 220.088034,76.2618177 220.088034,77.5728177 L220.088034,105.445818 C220.088034,106.072818 220.601034,106.585818 221.228034,106.585818 L233.141034,106.585818 C234.452034,106.585818 235.478034,107.611818 235.478034,108.922818 L235.478034,113.938818 C235.478034,115.249818 234.452034,116.275818 233.141034,116.275818 L212.165034,116.275818 Z M243.743034,116.275818 C242.432034,116.275818 241.406034,115.249818 241.406034,113.938818 L241.406034,98.6058177 C241.406034,98.0358177 241.292034,97.4658177 241.007034,97.0098177 L230.177034,78.4278177 C229.265034,76.8318177 230.006034,75.2358177 232.001034,75.2358177 L238.214034,75.2358177 C239.696034,75.2358177 240.665034,75.8628177 241.292034,77.0598177 L246.365034,86.1228177 C246.707034,86.7498177 247.505034,86.7498177 247.847034,86.1228177 L252.920034,77.0598177 C253.547034,75.8628177 254.516034,75.2358177 255.998034,75.2358177 L261.071034,75.2358177 C263.066034,75.2358177 263.807034,76.8318177 262.895034,78.4278177 L252.065034,97.0098177 C251.780034,97.4658177 251.666034,98.0358177 251.666034,98.6058177 L251.666034,113.938818 C251.666034,115.249818 250.640034,116.275818 249.329034,116.275818 L243.743034,116.275818 Z M296.867034,117.130818 C290.540034,117.130818 286.151034,114.394818 283.928034,112.570818 C282.731034,111.601818 282.731034,109.948818 283.643034,108.808818 L285.752034,106.129818 C286.835034,104.704818 288.602034,104.704818 290.027034,105.787818 C291.680034,107.041818 294.131034,108.409818 296.696034,108.409818 C299.375034,108.409818 300.629034,106.813818 300.629034,104.932818 C300.629034,102.994818 299.375034,101.626818 294.815034,99.5178177 C287.348034,96.0978177 283.529034,92.2788177 283.529034,86.0658177 C283.529034,79.3398177 288.773034,74.3808177 297.323034,74.3808177 C301.598034,74.3808177 305.075034,75.8628177 307.241034,77.1168177 C308.780034,78.0288177 308.951034,79.9098177 307.868034,81.3348177 L305.873034,83.8998177 C304.904034,85.1538177 303.365034,85.1538177 301.997034,84.3558177 C300.857034,83.7288177 299.261034,83.1018177 297.437034,83.1018177 C294.986034,83.1018177 293.789034,84.3558177 293.789034,85.9518177 C293.789034,87.5478177 294.815034,88.9728177 299.090034,90.8538177 C306.785034,94.2168177 310.889034,97.7508177 310.889034,104.476818 C310.889034,111.487818 305.588034,117.130818 296.867034,117.130818 Z M335.969034,117.130818 C323.771034,117.130818 314.309034,107.782818 314.309034,95.7558177 C314.309034,83.7288177 323.771034,74.3808177 335.969034,74.3808177 C348.167034,74.3808177 357.629034,83.7288177 357.629034,95.7558177 C357.629034,107.782818 348.167034,117.130818 335.969034,117.130818 Z M335.969034,107.440818 C342.410034,107.440818 347.369034,102.310818 347.369034,95.7558177 C347.369034,89.2008177 342.410034,84.0708177 335.969034,84.0708177 C329.528034,84.0708177 324.569034,89.2008177 324.569034,95.7558177 C324.569034,102.310818 329.528034,107.440818 335.969034,107.440818 Z M398.099034,114.793818 C398.099034,117.073818 395.705034,117.643818 394.109034,116.047818 L374.444034,96.6678177 C373.760034,95.9838177 372.848034,96.4398177 372.848034,97.3518177 L372.848034,113.938818 C372.848034,115.249818 371.822034,116.275818 370.511034,116.275818 L365.096034,116.275818 C363.785034,116.275818 362.759034,115.249818 362.759034,113.938818 L362.759034,76.7178177 C362.759034,74.4378177 365.153034,73.8678177 366.749034,75.4638177 L386.414034,94.8438177 C387.098034,95.5278177 388.010034,95.0718177 388.010034,94.1598177 L388.010034,77.5728177 C388.010034,76.2618177 389.036034,75.2358177 390.347034,75.2358177 L395.762034,75.2358177 C397.073034,75.2358177 398.099034,76.2618177 398.099034,77.5728177 L398.099034,114.793818 Z M403.229034,95.7558177 C403.229034,83.7288177 412.691034,74.3808177 425.174034,74.3808177 C430.361034,74.3808177 434.807034,75.9198177 438.398034,78.4278177 C439.538034,79.2258177 439.595034,80.9358177 438.626034,82.0188177 L435.263034,85.7238177 C434.351034,86.6928177 432.926034,86.6358177 431.900034,85.9518177 C430.019034,84.7548177 427.796034,84.0708177 425.174034,84.0708177 C418.448034,84.0708177 413.489034,89.2008177 413.489034,95.7558177 C413.489034,102.310818 418.448034,107.440818 424.889034,107.440818 C428.936034,107.440818 431.957034,105.616818 433.724034,102.994818 C434.237034,102.253818 433.838034,101.455818 432.812034,101.455818 L421.982034,101.455818 C420.671034,101.455818 419.645034,100.429818 419.645034,99.1188177 L419.645034,95.2428177 C419.645034,93.9318177 420.671034,92.9058177 421.982034,92.9058177 L442.958034,92.9058177 C444.269034,92.9058177 445.409034,93.5328177 445.409034,95.7558177 C445.409034,107.782818 436.973034,117.130818 424.889034,117.130818 C412.691034,117.130818 403.229034,107.782818 403.229034,95.7558177 Z M462.452034,117.130818 C456.125034,117.130818 451.736034,114.394818 449.513034,112.570818 C448.316034,111.601818 448.316034,109.948818 449.228034,108.808818 L451.337034,106.129818 C452.420034,104.704818 454.187034,104.704818 455.612034,105.787818 C457.265034,107.041818 459.716034,108.409818 462.281034,108.409818 C464.960034,108.409818 466.214034,106.813818 466.214034,104.932818 C466.214034,102.994818 464.960034,101.626818 460.400034,99.5178177 C452.933034,96.0978177 449.114034,92.2788177 449.114034,86.0658177 C449.114034,79.3398177 454.358034,74.3808177 462.908034,74.3808177 C467.183034,74.3808177 470.660034,75.8628177 472.826034,77.1168177 C474.365034,78.0288177 474.536034,79.9098177 473.453034,81.3348177 L471.458034,83.8998177 C470.489034,85.1538177 468.950034,85.1538177 467.582034,84.3558177 C466.442034,83.7288177 464.846034,83.1018177 463.022034,83.1018177 C460.571034,83.1018177 459.374034,84.3558177 459.374034,85.9518177 C459.374034,87.5478177 460.400034,88.9728177 464.675034,90.8538177 C472.370034,94.2168177 476.474034,97.7508177 476.474034,104.476818 C476.474034,111.487818 471.173034,117.130818 462.452034,117.130818 Z" transform="rotate(-2 310.433 69.82)"/>
  </g>
</svg>
