<svg xmlns="http://www.w3.org/2000/svg" width="351" height="53" viewBox="0 0 351 53">
  <g fill="none" fill-rule="evenodd" transform="rotate(10 327.883 61.629)">
    <path stroke="#E8473F" stroke-linecap="round" stroke-width="2.971" d="M307.425171 13.9046054L327.425171.904605371M311.973034 29.456855L342.973034 24.456855M309.59792 46.8894919L332.59792 49.8894919"/>
    <path fill="#E8473F" d="M63.8718959,86.8856221 L67.3056646,86.390737 C68.1644745,86.2673702 68.7409358,85.5158255 68.6056439,84.645168 L64.2439488,56.5005263 C64.1145391,55.6724091 63.3366103,55.1165496 62.4778005,55.2399164 L59.0440317,55.7348015 C58.1396344,55.8652583 57.563173,56.6168031 57.6925827,57.4435023 L62.0542778,85.5881439 C62.1895698,86.4602194 62.9689691,87.0160789 63.8718959,86.8856221 L63.8718959,86.8856221 Z M70.6085531,59.1805632 L76.7555139,58.2943077 C77.177566,58.2333333 77.6084415,58.5410412 77.6716757,58.9480098 L81.3598522,82.746454 C81.5010264,83.6511437 82.3098371,84.2282733 83.2480574,84.0935625 L86.814177,83.5788252 C87.7053392,83.4512044 88.3038591,82.6712995 88.1641554,81.7666098 L84.4745084,57.9681656 C84.4112741,57.561197 84.7318572,57.1443024 85.2009674,57.077656 L91.2993995,56.1984904 C92.1920324,56.0694516 92.8376103,55.2824566 92.6964361,54.3777669 L92.2199731,51.3021055 C92.0861517,50.4413741 91.230283,49.8713345 90.3391207,50.0003733 L69.6482743,52.9824461 C68.7556415,53.1100669 68.1571216,53.8899719 68.290943,54.7507033 L68.767406,57.8263647 C68.9085802,58.7310544 69.7173909,59.3081841 70.6085531,59.1805632 L70.6085531,59.1805632 Z M98.4331093,61.999565 L101.158066,61.6067766 C101.984523,61.4876638 102.585984,60.8722479 102.552161,60.0143525 L102.3154,48.5369881 C102.330106,47.6705846 101.603647,47.1515933 100.775719,47.2707061 L97.4669482,47.7485751 C96.5919622,47.8747779 96.0052068,48.5823644 96.0390298,49.4402598 L96.9007808,60.7800773 C96.9831324,61.6323007 97.6051813,62.1186778 98.4331093,61.999565 L98.4331093,61.999565 Z M124.619456,78.8767076 C131.926693,77.8231269 135.689868,72.5112654 134.800176,66.7782552 C133.926661,61.1402516 129.551731,58.8402411 122.881249,57.0195176 C118.737197,55.8780204 116.840169,54.6117384 116.538703,52.6676481 C116.237237,50.7235579 117.57398,49.0403812 120.395994,48.6334127 C122.462138,48.3356308 124.245933,48.8744742 125.301798,49.3679413 C126.40031,49.8061061 127.507645,49.6458711 128.128224,48.6617729 L129.267912,46.7091745 C129.873784,45.6286517 129.569377,44.3311735 128.356161,43.8107642 C126.484132,43.0365314 123.241537,42.0637772 119.360717,42.6224727 C112.204948,43.6533652 108.396186,48.3271227 109.238819,53.7694411 C110.052042,59.0174922 114.21374,61.5968505 120.732754,63.4402621 C125.101802,64.6980361 127.184121,65.8381153 127.538527,68.1225277 C127.876757,70.3090975 126.601778,72.3808086 123.526827,72.8232274 C120.806282,73.2160158 118.14603,72.0092902 116.612231,71.0875844 C115.534307,70.4480624 114.274033,70.6295675 113.560809,71.6774761 L112.210831,73.6102223 C111.625546,74.4893879 111.857895,75.6479012 112.826997,76.253391 C114.831377,77.5551232 118.975429,79.6892267 124.619456,78.8767076 L124.619456,78.8767076 Z M156.570417,73.5265598 L160.532119,72.9565202 C161.521809,72.8133013 162.187975,71.9468978 162.032095,70.9415295 L160.09242,58.4233465 C160.01448,57.9213713 160.368886,57.4591004 160.889466,57.3839459 L176.268632,55.1675979 C176.737743,55.0995335 177.217147,55.4412736 177.295087,55.9446668 L179.236232,68.4614318 C179.392112,69.4668002 180.290627,70.1091582 181.333257,69.9588493 L185.294959,69.3873917 C186.28612,69.2441728 186.950815,68.3777693 186.794935,67.3724009 L181.762662,34.898578 C181.614135,33.94284 180.71562,33.3018999 179.72446,33.4437008 L175.762758,34.0151584 C174.720128,34.1654674 174.053962,35.0318708 174.202489,35.9876089 L175.955402,47.2976482 C176.025989,47.7499931 175.671583,48.212264 175.202473,48.2803284 L159.821836,50.4966764 C159.301256,50.5718309 158.821852,50.2300908 158.751265,49.7777459 L156.998352,38.4662885 C156.851295,37.5119685 155.951309,36.8696104 154.961619,37.0128293 L150.998447,37.5842869 C149.955817,37.7345959 149.291122,38.6009994 149.439649,39.5553194 L154.471921,72.0305603 C154.627801,73.0359287 155.527787,73.6768687 156.570417,73.5265598 L156.570417,73.5265598 Z M196.372723,67.7907136 L215.820943,64.9887279 C216.844456,64.841255 217.531209,63.9450733 217.370918,62.9056728 L216.85475,59.5818598 C216.701811,58.5949255 215.773885,57.9312974 214.750371,58.0801883 L202.197631,59.8881497 C201.659404,59.9661402 201.163824,59.613056 201.082942,59.0926467 L199.972666,51.9246114 C199.891785,51.4056202 200.257956,50.9277512 200.797653,50.8497607 L213.07981,49.0800855 C214.103323,48.9326126 214.790077,48.0364309 214.637138,47.0494967 L214.203321,44.244675 C214.050383,43.2577407 213.113633,42.5430642 212.09012,42.6905372 L199.806492,44.4602123 C199.268266,44.5382028 198.781509,44.2361669 198.700628,43.7171756 L197.757995,37.6395893 C197.677114,37.120598 198.044756,36.642729 198.582982,36.5647385 L209.519573,34.9893306 C210.543086,34.8418576 211.229839,33.945676 211.076901,32.9587417 L210.55338,29.5824624 C210.400441,28.5955282 209.471044,27.9319 208.447531,28.0793729 L190.616933,30.6502232 C189.539009,30.8047862 188.852255,31.7009678 189.005194,32.687902 L194.206582,66.2450838 C194.366873,67.2830664 195.29627,67.9466946 196.372723,67.7907136 L196.372723,67.7907136 Z M225.807548,63.5494488 L230.033951,62.939705 C231.091287,62.787978 231.8001,61.8634362 231.633926,60.7914214 L229.747191,48.6192326 C229.681016,48.1895759 229.806014,47.897466 230.139832,47.8492537 L230.917761,47.737231 C231.195697,47.6975268 231.444223,47.8265656 231.716277,48.1158394 L242.8161,59.9462881 C243.424914,60.57163 244.270489,60.887846 245.104299,60.7687333 L250.386568,60.0072625 C251.721841,59.8144132 252.142422,58.4928289 251.261554,57.5782131 L239.213217,45.5010309 C238.941162,45.2103391 238.985279,44.7650843 239.341156,44.4956626 C243.348445,42.1091535 245.299884,37.8253485 244.619013,33.4281027 C243.646969,27.1548311 237.938237,22.6058584 230.320711,23.7033973 L219.864996,25.2093228 C218.753249,25.3695578 218.044437,26.2940997 218.201787,27.3136481 L223.570819,61.9527707 C223.736993,63.0247855 224.695801,63.7096838 225.807548,63.5494488 L225.807548,63.5494488 Z M229.658957,41.4497793 C229.103084,41.5306058 228.592798,41.1647595 228.508976,40.6287522 L227.170762,31.9959137 C227.08841,31.4599063 227.475169,31.0203235 228.031042,30.940915 L230.088362,30.6431331 C233.591247,30.1383219 236.33238,32.046962 236.797079,35.0488869 C237.263248,38.0522299 235.220633,40.6486043 231.717748,41.1534155 L229.658957,41.4497793 Z M259.243779,58.7310544 L279.94639,55.7475636 C281.036079,55.5901646 281.76695,54.6372626 281.596364,53.5312156 L281.047843,49.9918653 C280.884611,48.9411206 279.896391,48.2349522 278.806703,48.3923512 L265.443681,50.3180073 C264.871631,50.4002518 264.343698,50.0244795 264.258405,49.471456 L263.074601,41.8411498 C262.989308,41.2881263 263.379008,40.7790611 263.952528,40.6968166 L277.02879,38.8122827 C278.117008,38.6548837 278.849349,37.7019817 278.686116,36.6512371 L278.224359,33.6649102 C278.061126,32.6141656 277.064083,31.8541128 275.974395,32.0100938 L262.899603,33.8946277 C262.326083,33.9782902 261.806974,33.6564021 261.721681,33.1033787 L260.718756,26.6344218 C260.631993,26.0813983 261.023163,25.5723331 261.596683,25.4900886 L273.237674,23.812584 C274.327362,23.655185 275.058233,22.702283 274.896471,21.6515384 L274.339127,18.0568857 C274.175894,17.0061411 273.187675,16.2999726 272.097986,16.4573716 L253.115936,19.1927109 C251.968895,19.3586179 251.238025,20.3115199 251.399787,21.3622646 L256.936463,57.084746 C257.108519,58.190793 258.096739,58.8955434 259.243779,58.7310544 L259.243779,58.7310544 Z M288.830072,41.0711709 L291.606498,40.6698744 C292.73001,40.5082214 293.491763,39.5836796 293.382941,38.4918127 L290.478575,14.6806064 C290.36093,13.5334371 289.274183,12.7577862 288.091849,12.9279473 L283.838975,13.5405272 C282.597819,13.7191963 281.852242,14.7585969 282.087533,15.890168 L286.530109,39.4801649 C286.756576,40.5535977 287.766854,41.2243159 288.830072,41.0711709 L288.830072,41.0711709 Z M292.393251,54.710999 C295.22997,54.3011944 297.029941,51.8877432 296.615242,49.2091243 C296.200543,46.5319234 293.74617,44.731052 290.910921,45.1394386 C288.015379,45.5563333 286.274231,47.9626944 286.68893,50.6398953 C287.103629,53.3170962 289.499179,55.1278937 292.393251,54.710999 L292.393251,54.710999 Z"/>
    <path stroke="#E8473F" stroke-linecap="round" stroke-width="2.971" d="M307.425171,13.9046054 L327.425171,0.904605371"/>
    <path stroke="#E8473F" stroke-linecap="round" stroke-width="2.971" d="M14.066353,66.4532291 L34.0477747,53.204131" transform="scale(-1 1) rotate(23 0 -58.416)"/>
    <path stroke="#E8473F" stroke-linecap="round" stroke-width="2.971" d="M311.973034,29.456855 L342.973034,24.456855"/>
    <path stroke="#E8473F" stroke-linecap="round" stroke-width="2.971" d="M0.670241286,82.7957048 L30.7988626,77.6415669" transform="scale(-1 1) rotate(23 0 2.88)"/>
    <path stroke="#E8473F" stroke-linecap="round" stroke-width="2.971" d="M309.59792,46.8894919 L332.59792,49.8894919"/>
    <path stroke="#E8473F" stroke-linecap="round" stroke-width="2.971" d="M17.7668515,94.7046489 L40.2469899,97.5639988" transform="scale(-1 1) rotate(23 0 -46.44)"/>
    <path fill="#E8473F" d="M63.8718959,86.8856221 L67.3056646,86.390737 C68.1644745,86.2673702 68.7409358,85.5158255 68.6056439,84.645168 L64.2439488,56.5005263 C64.1145391,55.6724091 63.3366103,55.1165496 62.4778005,55.2399164 L59.0440317,55.7348015 C58.1396344,55.8652583 57.563173,56.6168031 57.6925827,57.4435023 L62.0542778,85.5881439 C62.1895698,86.4602194 62.9689691,87.0160789 63.8718959,86.8856221 L63.8718959,86.8856221 Z M70.6085531,59.1805632 L76.7555139,58.2943077 C77.177566,58.2333333 77.6084415,58.5410412 77.6716757,58.9480098 L81.3598522,82.746454 C81.5010264,83.6511437 82.3098371,84.2282733 83.2480574,84.0935625 L86.814177,83.5788252 C87.7053392,83.4512044 88.3038591,82.6712995 88.1641554,81.7666098 L84.4745084,57.9681656 C84.4112741,57.561197 84.7318572,57.1443024 85.2009674,57.077656 L91.2993995,56.1984904 C92.1920324,56.0694516 92.8376103,55.2824566 92.6964361,54.3777669 L92.2199731,51.3021055 C92.0861517,50.4413741 91.230283,49.8713345 90.3391207,50.0003733 L69.6482743,52.9824461 C68.7556415,53.1100669 68.1571216,53.8899719 68.290943,54.7507033 L68.767406,57.8263647 C68.9085802,58.7310544 69.7173909,59.3081841 70.6085531,59.1805632 L70.6085531,59.1805632 Z M98.4331093,61.999565 L101.158066,61.6067766 C101.984523,61.4876638 102.585984,60.8722479 102.552161,60.0143525 L102.3154,48.5369881 C102.330106,47.6705846 101.603647,47.1515933 100.775719,47.2707061 L97.4669482,47.7485751 C96.5919622,47.8747779 96.0052068,48.5823644 96.0390298,49.4402598 L96.9007808,60.7800773 C96.9831324,61.6323007 97.6051813,62.1186778 98.4331093,61.999565 L98.4331093,61.999565 Z M124.619456,78.8767076 C131.926693,77.8231269 135.689868,72.5112654 134.800176,66.7782552 C133.926661,61.1402516 129.551731,58.8402411 122.881249,57.0195176 C118.737197,55.8780204 116.840169,54.6117384 116.538703,52.6676481 C116.237237,50.7235579 117.57398,49.0403812 120.395994,48.6334127 C122.462138,48.3356308 124.245933,48.8744742 125.301798,49.3679413 C126.40031,49.8061061 127.507645,49.6458711 128.128224,48.6617729 L129.267912,46.7091745 C129.873784,45.6286517 129.569377,44.3311735 128.356161,43.8107642 C126.484132,43.0365314 123.241537,42.0637772 119.360717,42.6224727 C112.204948,43.6533652 108.396186,48.3271227 109.238819,53.7694411 C110.052042,59.0174922 114.21374,61.5968505 120.732754,63.4402621 C125.101802,64.6980361 127.184121,65.8381153 127.538527,68.1225277 C127.876757,70.3090975 126.601778,72.3808086 123.526827,72.8232274 C120.806282,73.2160158 118.14603,72.0092902 116.612231,71.0875844 C115.534307,70.4480624 114.274033,70.6295675 113.560809,71.6774761 L112.210831,73.6102223 C111.625546,74.4893879 111.857895,75.6479012 112.826997,76.253391 C114.831377,77.5551232 118.975429,79.6892267 124.619456,78.8767076 L124.619456,78.8767076 Z M156.570417,73.5265598 L160.532119,72.9565202 C161.521809,72.8133013 162.187975,71.9468978 162.032095,70.9415295 L160.09242,58.4233465 C160.01448,57.9213713 160.368886,57.4591004 160.889466,57.3839459 L176.268632,55.1675979 C176.737743,55.0995335 177.217147,55.4412736 177.295087,55.9446668 L179.236232,68.4614318 C179.392112,69.4668002 180.290627,70.1091582 181.333257,69.9588493 L185.294959,69.3873917 C186.28612,69.2441728 186.950815,68.3777693 186.794935,67.3724009 L181.762662,34.898578 C181.614135,33.94284 180.71562,33.3018999 179.72446,33.4437008 L175.762758,34.0151584 C174.720128,34.1654674 174.053962,35.0318708 174.202489,35.9876089 L175.955402,47.2976482 C176.025989,47.7499931 175.671583,48.212264 175.202473,48.2803284 L159.821836,50.4966764 C159.301256,50.5718309 158.821852,50.2300908 158.751265,49.7777459 L156.998352,38.4662885 C156.851295,37.5119685 155.951309,36.8696104 154.961619,37.0128293 L150.998447,37.5842869 C149.955817,37.7345959 149.291122,38.6009994 149.439649,39.5553194 L154.471921,72.0305603 C154.627801,73.0359287 155.527787,73.6768687 156.570417,73.5265598 L156.570417,73.5265598 Z M196.372723,67.7907136 L215.820943,64.9887279 C216.844456,64.841255 217.531209,63.9450733 217.370918,62.9056728 L216.85475,59.5818598 C216.701811,58.5949255 215.773885,57.9312974 214.750371,58.0801883 L202.197631,59.8881497 C201.659404,59.9661402 201.163824,59.613056 201.082942,59.0926467 L199.972666,51.9246114 C199.891785,51.4056202 200.257956,50.9277512 200.797653,50.8497607 L213.07981,49.0800855 C214.103323,48.9326126 214.790077,48.0364309 214.637138,47.0494967 L214.203321,44.244675 C214.050383,43.2577407 213.113633,42.5430642 212.09012,42.6905372 L199.806492,44.4602123 C199.268266,44.5382028 198.781509,44.2361669 198.700628,43.7171756 L197.757995,37.6395893 C197.677114,37.120598 198.044756,36.642729 198.582982,36.5647385 L209.519573,34.9893306 C210.543086,34.8418576 211.229839,33.945676 211.076901,32.9587417 L210.55338,29.5824624 C210.400441,28.5955282 209.471044,27.9319 208.447531,28.0793729 L190.616933,30.6502232 C189.539009,30.8047862 188.852255,31.7009678 189.005194,32.687902 L194.206582,66.2450838 C194.366873,67.2830664 195.29627,67.9466946 196.372723,67.7907136 L196.372723,67.7907136 Z M225.807548,63.5494488 L230.033951,62.939705 C231.091287,62.787978 231.8001,61.8634362 231.633926,60.7914214 L229.747191,48.6192326 C229.681016,48.1895759 229.806014,47.897466 230.139832,47.8492537 L230.917761,47.737231 C231.195697,47.6975268 231.444223,47.8265656 231.716277,48.1158394 L242.8161,59.9462881 C243.424914,60.57163 244.270489,60.887846 245.104299,60.7687333 L250.386568,60.0072625 C251.721841,59.8144132 252.142422,58.4928289 251.261554,57.5782131 L239.213217,45.5010309 C238.941162,45.2103391 238.985279,44.7650843 239.341156,44.4956626 C243.348445,42.1091535 245.299884,37.8253485 244.619013,33.4281027 C243.646969,27.1548311 237.938237,22.6058584 230.320711,23.7033973 L219.864996,25.2093228 C218.753249,25.3695578 218.044437,26.2940997 218.201787,27.3136481 L223.570819,61.9527707 C223.736993,63.0247855 224.695801,63.7096838 225.807548,63.5494488 L225.807548,63.5494488 Z M229.658957,41.4497793 C229.103084,41.5306058 228.592798,41.1647595 228.508976,40.6287522 L227.170762,31.9959137 C227.08841,31.4599063 227.475169,31.0203235 228.031042,30.940915 L230.088362,30.6431331 C233.591247,30.1383219 236.33238,32.046962 236.797079,35.0488869 C237.263248,38.0522299 235.220633,40.6486043 231.717748,41.1534155 L229.658957,41.4497793 Z M259.243779,58.7310544 L279.94639,55.7475636 C281.036079,55.5901646 281.76695,54.6372626 281.596364,53.5312156 L281.047843,49.9918653 C280.884611,48.9411206 279.896391,48.2349522 278.806703,48.3923512 L265.443681,50.3180073 C264.871631,50.4002518 264.343698,50.0244795 264.258405,49.471456 L263.074601,41.8411498 C262.989308,41.2881263 263.379008,40.7790611 263.952528,40.6968166 L277.02879,38.8122827 C278.117008,38.6548837 278.849349,37.7019817 278.686116,36.6512371 L278.224359,33.6649102 C278.061126,32.6141656 277.064083,31.8541128 275.974395,32.0100938 L262.899603,33.8946277 C262.326083,33.9782902 261.806974,33.6564021 261.721681,33.1033787 L260.718756,26.6344218 C260.631993,26.0813983 261.023163,25.5723331 261.596683,25.4900886 L273.237674,23.812584 C274.327362,23.655185 275.058233,22.702283 274.896471,21.6515384 L274.339127,18.0568857 C274.175894,17.0061411 273.187675,16.2999726 272.097986,16.4573716 L253.115936,19.1927109 C251.968895,19.3586179 251.238025,20.3115199 251.399787,21.3622646 L256.936463,57.084746 C257.108519,58.190793 258.096739,58.8955434 259.243779,58.7310544 L259.243779,58.7310544 Z M288.830072,41.0711709 L291.606498,40.6698744 C292.73001,40.5082214 293.491763,39.5836796 293.382941,38.4918127 L290.478575,14.6806064 C290.36093,13.5334371 289.274183,12.7577862 288.091849,12.9279473 L283.838975,13.5405272 C282.597819,13.7191963 281.852242,14.7585969 282.087533,15.890168 L286.530109,39.4801649 C286.756576,40.5535977 287.766854,41.2243159 288.830072,41.0711709 L288.830072,41.0711709 Z M292.393251,54.710999 C295.22997,54.3011944 297.029941,51.8877432 296.615242,49.2091243 C296.200543,46.5319234 293.74617,44.731052 290.910921,45.1394386 C288.015379,45.5563333 286.274231,47.9626944 286.68893,50.6398953 C287.103629,53.3170962 289.499179,55.1278937 292.393251,54.710999 L292.393251,54.710999 Z"/>
  </g>
</svg>
