<svg xmlns="http://www.w3.org/2000/svg" xmlns:xlink="http://www.w3.org/1999/xlink" width="188" height="81" viewBox="0 0 188 81">
  <defs>
    <polyline id="sign-sign-logo-a" points="0 16.523 6.906 96.436 193.202 79.933 186.298 .021"/>
    <polyline id="sign-sign-logo-c" points="186.298 .021 0 16.523 6.906 96.436 193.202 79.933"/>
    <polygon id="sign-sign-logo-e" points="186.298 .021 0 16.523 6.906 96.436 193.202 79.933"/>
    <polygon id="sign-sign-logo-g" points="186.298 .021 0 16.523 6.906 96.436 193.202 79.933"/>
    <polyline id="sign-sign-logo-i" points="186.298 .021 0 16.523 6.906 96.436 193.202 79.933"/>
    <polygon id="sign-sign-logo-k" points="186.298 .021 0 16.523 6.906 96.436 193.202 79.933"/>
    <polygon id="sign-sign-logo-m" points="186.298 .021 0 16.523 6.906 96.436 193.202 79.933"/>
    <polygon id="sign-sign-logo-o" points="186.298 .021 0 16.523 6.906 96.436 193.202 79.933"/>
    <polygon id="sign-sign-logo-q" points="186.298 .021 0 16.523 6.906 96.436 193.202 79.933"/>
    <polyline id="sign-sign-logo-s" points="186.298 .021 0 16.523 6.906 96.436 193.202 79.933"/>
    <polygon id="sign-sign-logo-u" points="186.298 .021 0 16.523 6.906 96.436 193.202 79.933"/>
    <polyline id="sign-sign-logo-w" points="186.298 .021 0 16.523 6.906 96.436 193.202 79.933"/>
  </defs>
  <g fill="none" fill-rule="evenodd" transform="rotate(4 229.508 3.972)">
    <g transform="translate(.372 .81)">
      <mask id="sign-sign-logo-b" fill="#fff">
        <use xlink:href="#sign-sign-logo-a"/>
      </mask>
      <path fill="#4D5454" d="M46.3684675,92.9402564 C24.5740519,94.8710256 5.36022078,78.5453846 3.45327273,56.4787179 C1.54632468,34.4120513 17.668013,14.9582051 39.4624286,13.0274359 C47.622039,12.304359 55.416974,14.1376923 62.0798961,17.8761538 C64.0602857,18.4582051 66.342039,18.8376923 68.6719091,18.6325641 C70.827039,18.4402564 73.0226883,17.7479487 75.0587922,16.2428205 C75.4057403,15.9248718 75.778013,15.6146154 76.1806753,15.3171795 C76.5985325,14.9325641 77.067039,14.63 77.5836623,14.4069231 C79.2322987,13.4787179 81.2658701,12.7889744 83.7679481,12.5658974 C86.7866494,12.2992308 90.4865844,12.7146154 95.007039,14.2248718 L111.840351,11.6197436 L113.152169,12.6582051 L145.63613,8.37871795 L148.264831,10.8171795 C148.264831,10.8171795 152.301584,7.39923077 160.028143,6.71461538 C160.949961,6.6325641 161.924961,6.59153846 162.95061,6.59666667 C169.448922,6.64025641 173.754117,8.68128205 173.754117,8.68128205 C173.754117,8.68128205 171.862364,17.8607692 172.049766,19.5274359 L179.994117,29.4710256 C179.994117,29.4710256 179.77126,33.4223077 178.147948,36.9120513 C177.826325,38.6838462 180.791844,38.5582051 182.660805,39.1376923 L188.260091,38.9838462 C188.409506,38.9838462 189.202169,38.8812821 189.27561,39.7325641 C189.437688,41.6017949 191.223078,49.6223077 190.025221,49.7274359 C190.020156,49.73 190.015091,49.73 190.010026,49.73 C188.688078,49.7710256 187.556065,49.8325641 186.588662,49.9197436 C179.707948,50.5274359 181.123597,52.3530769 181.176779,56.855641 L183.881455,76.8146154 L168.119377,78.5864103 L161.332364,70.7864103 L161.735026,78.2017949 L160.24087,79.2838462 L149.052429,80.2761538 L148.290156,76.9658974 L147.477234,78.0684615 C144.255935,81.43 139.770935,83.0146154 135.47587,83.3966667 C132.72561,83.6402564 130.051325,83.3889744 127.835416,82.7915385 C122.160156,81.2633333 121.382688,78.8453846 121.382688,78.8453846 C121.382688,78.8453846 121.86639,81.9223077 119.782169,82.3941026 C119.189571,82.53 118.260156,82.6453846 117.12561,82.7479487 C111.485805,83.2453846 100.770935,83.3453846 100.770935,83.3453846 C100.770935,83.3453846 96.177039,85.8325641 90.9804156,86.2941026 C87.9769091,86.5607692 84.7682727,86.1479487 82.1294416,84.1838462 C82.1167792,84.1735897 78.6675584,81.8838462 73.7621688,82.3171795 C71.953987,82.4787179 69.9482727,83.0094872 67.8437922,84.1607692 C61.9178182,89.0274359 54.5432727,92.2171795 46.3684675,92.9402564" mask="url(#sign-sign-logo-b)"/>
    </g>
    <g transform="translate(.372 .81)">
      <mask id="sign-sign-logo-d" fill="#fff">
        <use xlink:href="#sign-sign-logo-c"/>
      </mask>
      <path fill="#FEFEFE" d="M59.4633506,64.8941026 C59.2151688,64.7735897 58.4326364,64.355641 57.0524416,63.704359 C55.3683506,62.9094872 53.3727662,61.2479487 52.6839351,60.5582051 C51.5088701,59.3787179 50.3135455,58.4941026 49.6525714,57.7120513 C49.2701688,57.2582051 49.0169221,55.9607692 49.4626364,55.2146154 C49.7589351,54.7197436 50.267961,54.3428205 51.2125714,54.5915385 C52.3699091,54.8992308 54.3401688,56.655641 55.6570519,58.0274359 C56.9739351,59.4017949 58.1667273,58.7787179 58.4149091,58.2530769 C58.6630909,57.7274359 58.5314026,56.6479487 58.1895195,56.0223077 C57.9818571,55.6428205 56.9232857,54.5889744 56.123026,53.8171795 C55.5405584,53.255641 54.9125065,52.7453846 54.2464675,52.2864103 C53.9096494,52.055641 53.5905584,51.8428205 53.2588052,51.6479487 C49.2321818,49.2864103 44.889,48.0351282 40.2317922,47.9248718 C40.0646494,47.9223077 39.8975065,47.9197436 39.7278312,47.9120513 C38.4058831,47.8607692 37.5347143,47.1146154 37.5271169,46.03 C37.5195195,44.9710256 38.4464026,44.1838462 39.7480909,44.1838462 C43.9317273,44.1812821 47.9431558,45.0402564 51.7823766,46.7069231 C52.5446494,47.0376923 53.3069221,47.4633333 53.8817922,46.4812821 C54.2515325,45.8505128 53.821013,45.2992308 52.6307532,44.7838462 C47.8291948,42.6941026 42.8225065,41.7992308 37.6081558,42.1633333 C36.6812727,42.23 35.9316623,41.9812821 35.5087403,41.1223077 C35.1314026,40.3582051 35.1719221,39.5453846 35.8480909,38.9864103 C36.227961,38.6710256 36.7952338,38.4787179 37.2966623,38.4402564 C43.1922468,37.9941026 48.8573766,38.9479487 54.2540649,41.4274359 L54.3452338,41.4710256 C55.4924416,42.0017949 56.2040649,41.9197436 56.5586104,41.2197436 C56.903026,40.5453846 56.5155584,40.03 55.2746494,39.4094872 C51.2657532,37.404359 47.0086753,36.4607692 42.5591299,36.3325641 C42.0577013,36.3171795 41.5512078,36.2915385 41.0573766,36.204359 C39.8873766,35.9966667 39.1884156,35.1966667 39.2922468,34.2351282 C39.3884805,33.3120513 40.2951039,32.4838462 41.3815325,32.5735897 C43.681013,32.7658974 46.0286104,32.8479487 48.2546494,33.3992308 C51.204974,34.1274359 54.0590649,35.2582051 56.9536753,36.2223077 C57.2727662,36.33 57.5867922,36.5915385 57.8856234,36.5710256 C58.2933506,36.5402564 58.8859481,36.4069231 59.0252338,36.1274359 C59.1797143,35.8248718 58.9872468,35.2530769 58.7871818,34.8864103 C58.6478961,34.63 58.2553636,34.4966667 57.9590649,34.3453846 C54.720039,32.7223077 51.3265325,31.604359 47.7532208,31.0094872 C47.1023766,30.9017949 46.2894545,30.4761538 45.9652987,29.9428205 C45.1827662,28.6505128 46.329974,27.2787179 48.0241948,27.5428205 C50.1742597,27.8761538 52.336987,28.2658974 54.4161429,28.8915385 C60.0534156,30.5915385 64.9334805,33.7325641 69.5476364,37.3428205 C69.729974,37.4864103 69.9148442,37.63 70.2212727,37.8684615 L70.8290649,38.355641 C71.9838701,39.2812821 73.0652338,40.2966667 74.0604935,41.3941026 C74.019974,41.2838462 73.9794545,41.1735897 73.9364026,41.0633333 C67.4406234,23.7505128 48.3128961,15.0505128 31.2162078,21.6274359 C19.539,26.1197436 11.8301688,36.5735897 10.1840649,48.2658974 C14.1499091,43.7120513 20.7267273,42.0838462 26.4880909,44.7017949 C26.7388052,44.8171795 27.5289351,45.2171795 28.9243247,45.8376923 C30.6261429,46.5915385 32.6597143,48.2069231 33.3637403,48.8812821 C34.5615974,50.0325641 35.7771818,50.8889744 36.4558831,51.6582051 C36.8484156,52.1017949 37.1295195,53.3941026 36.7015325,54.1505128 C36.4178961,54.6505128 35.9164675,55.0402564 34.9667922,54.8120513 C33.8018571,54.5325641 31.7936104,52.8223077 30.4463377,51.4787179 C29.0990649,50.1351282 27.9214675,50.7864103 27.6859481,51.3171795 C27.4504286,51.8505128 27.6049091,52.9248718 27.9594545,53.5428205 C28.1772468,53.9171795 29.2586104,54.9453846 30.0740649,55.6992308 C30.6717273,56.2479487 31.3099091,56.7428205 31.9860779,57.1864103 C32.327961,57.4094872 32.6521169,57.6146154 32.9889351,57.8017949 C37.0662078,60.0710256 41.4347143,61.2223077 46.0944545,61.2248718 C46.2615974,61.2248718 46.4287403,61.2248718 46.5984156,61.2274359 C47.9228961,61.2479487 48.8092597,61.9710256 48.8421818,63.0582051 C48.8725714,64.1146154 47.9634156,64.9248718 46.6617273,64.955641 C42.4806234,65.0505128 38.4514675,64.2864103 34.5742597,62.7094872 C33.8043896,62.3941026 33.031987,61.9864103 32.4799091,62.9812821 C32.1253636,63.6223077 32.5685455,64.1607692 33.7689351,64.6530769 C38.6160779,66.6274359 43.643026,67.4069231 48.8472468,66.9223077 C49.7741299,66.8376923 50.5262727,67.0684615 50.9694545,67.9171795 C51.361987,68.6735897 51.3417273,69.4864103 50.6782208,70.0607692 C50.3059481,70.3838462 49.7412078,70.5889744 49.2423117,70.6376923 C43.3568571,71.2223077 37.674,70.3966667 32.2190649,68.0453846 L32.1304286,68.0017949 C30.9705584,67.4966667 30.2614675,67.5966667 29.9221169,68.3017949 C29.5954286,68.9864103 29.993026,69.4915385 31.2465974,70.0838462 C35.3010779,71.9966667 39.5758831,72.8428205 44.027961,72.8684615 C44.5319221,72.8710256 45.0384156,72.8838462 45.5347792,72.9607692 C46.7047792,73.1402564 47.4214675,73.9248718 47.342961,74.8889744 C47.2644545,75.8146154 46.3780909,76.6633333 45.2891299,76.5966667 C42.9845844,76.4582051 40.636987,76.43 38.4008182,75.9325641 C35.4327662,75.2710256 32.5533506,74.204359 29.6384805,73.3094872 C29.3193896,73.2094872 29.0002987,72.9530769 28.6989351,72.9838462 C28.2937403,73.0223077 27.7036753,73.1684615 27.5694545,73.4505128 C27.4251039,73.7582051 27.6302338,74.3248718 27.8353636,74.6864103 C27.9797143,74.9402564 28.3747792,75.0633333 28.6761429,75.2069231 C31.9506234,76.7582051 35.3694545,77.7941026 38.9554286,78.3069231 C39.6088052,78.4017949 40.4293247,78.8069231 40.7661429,79.3351282 C41.5790649,80.6069231 40.4622468,82.004359 38.7604286,81.7812821 C36.6052987,81.4966667 34.434974,81.1582051 32.3431558,80.5787179 C26.6678961,79.0094872 21.7169221,75.9812821 17.0242597,72.4787179 C16.8368571,72.3376923 16.6494545,72.1992308 16.337961,71.9684615 L15.720039,71.4966667 C15.4769221,71.3094872 15.2363377,71.1197436 15.0008182,70.9248718 C23.2414675,84.1197436 39.7683506,90.0761538 54.7428312,84.3171795 C64.6447792,80.5069231 71.6951688,72.4069231 74.6125714,62.9017949 C70.5226364,66.4120513 64.6194545,67.3812821 59.4633506,64.8941026" mask="url(#sign-sign-logo-d)"/>
      <mask id="sign-sign-logo-f" fill="#fff">
        <use xlink:href="#sign-sign-logo-e"/>
      </mask>
      <path fill="#FEFEFE" d="M95.3035909,57.5561538 C92.5280065,56.3971795 88.8382013,55.5715385 88.6761234,58.8458974 C88.4152792,63.284359 100.457162,61.5664103 101.665149,71.5407692 C102.635084,79.3330769 93.4726169,82.2510256 87.2174221,80.9484615 C84.0898247,80.3228205 82.8843701,78.4228205 81.0533961,76.1279487 C82.2006039,75.0715385 83.7099545,73.635641 84.8672922,72.6792308 C90.2538506,78.8228205 97.5828117,73.61 90.8895,69.535641 C86.0727468,66.5510256 80.473461,65.9946154 80.5469026,58.8125641 C80.5595649,54.9484615 85.933461,49.4561538 92.2620974,50.4510256 C96.0810584,51.0664103 96.5698247,52.1253846 98.2817727,53.0279487 C97.3245,54.5689744 96.3672273,56.1074359 95.3567727,57.6023077 L95.3035909,57.5561538 Z" mask="url(#sign-sign-logo-f)"/>
      <mask id="sign-sign-logo-h" fill="#fff">
        <use xlink:href="#sign-sign-logo-g"/>
      </mask>
      <path fill="#FEFEFE" d="M105.037636,79.0202564 L104.814779,75.2766667 L107.590364,74.7305128 C106.564714,67.4458974 106.015169,61.0741026 105.602377,53.4330769 L102.312701,53.7741026 L101.965753,50.3433333 L113.926597,48.2817949 L114.233026,52.9689744 L111.123156,53.0946154 L113.483416,74.1074359 L117.527766,73.8997436 L117.872182,78.435641 L105.037636,79.0202564 Z" mask="url(#sign-sign-logo-h)"/>
      <mask id="sign-sign-logo-j" fill="#fff">
        <use xlink:href="#sign-sign-logo-i"/>
      </mask>
      <path fill="#FEFEFE" d="M118.269019,60.6892308 C119.773305,51.1251282 129.893045,43.8071795 141.691812,48.4789744 L139.779799,53.8687179 C134.879474,52.194359 129.459994,53.1251282 126.208305,57.3764103 C119.198435,68.5841026 133.820903,79.5302564 139.964669,66.894359 C135.960838,66.9994872 133.121942,67.4020513 131.70376,67.6276923 C131.483435,66.794359 131.356812,65.9020513 131.27324,64.9558974 C131.187136,63.9610256 131.151682,62.9610256 131.164344,61.9558974 C133.256162,61.52 135.626552,60.8584615 137.715838,60.3712821 C139.946942,59.8225641 141.46389,59.5892308 142.218565,59.7225641 L146.194539,65.5917949 C145.330968,71.0866667 141.719669,75.72 137.888045,77.2635897 C127.360578,81.6071795 116.351942,72.8994872 118.269019,60.6892308" mask="url(#sign-sign-logo-j)"/>
      <mask id="sign-sign-logo-l" fill="#fff">
        <use xlink:href="#sign-sign-logo-k"/>
      </mask>
      <path fill="#FEFEFE" d="M169.792071,73.7353846 C165.869279,69.0661538 161.272851,64.0558974 155.240513,57.3148718 C155.835643,64.7379487 157.051227,69.645641 157.747656,74.8533333 C155.569734,75.4482051 153.409539,75.6892308 150.750448,75.8738462 L148.491487,47.4276923 L156.580188,47.0123077 C160.069929,51.2687179 163.569799,55.0712821 168.794279,62.1841026 C168.300448,54.2020513 166.732851,48.6712821 166.071877,45.0174359 C168.457461,44.5533333 171.05324,44.1738462 173.497071,43.8071795 C173.914929,51.4969231 175.264734,64.8225641 176.259994,72.3097436 C174.277071,72.8866667 172.134604,73.3276923 169.840188,73.7302564 L169.792071,73.7353846 Z" mask="url(#sign-sign-logo-l)"/>
      <mask id="sign-sign-logo-n" fill="#fff">
        <use xlink:href="#sign-sign-logo-m"/>
      </mask>
      <path fill="#DDDD3B" d="M92.0630455,24.285641 C89.287461,23.1266667 85.6001883,22.2984615 85.4355779,25.5753846 C85.1747338,30.0138462 97.2166169,28.2933333 98.4271364,38.2702564 C99.3970714,46.0625641 90.2346039,48.9805128 83.9768766,47.6779487 C80.8492792,47.0523077 79.6463571,45.1523077 77.8128506,42.8574359 C78.9600584,41.8010256 80.4694091,40.3625641 81.6267468,39.4087179 C87.0133052,45.5523077 94.3447987,40.3394872 87.6489545,36.2651282 C82.8322013,33.2805128 77.2329156,32.7241026 77.3063571,25.5420513 C77.3190195,21.6779487 82.6929156,16.185641 89.0215519,17.1805128 C92.840513,17.7958974 93.3292792,18.8548718 95.0412273,19.7574359 C94.086487,21.2958974 93.1292143,22.8369231 92.1187597,24.3317949 L92.0630455,24.285641 Z" mask="url(#sign-sign-logo-n)"/>
      <mask id="sign-sign-logo-p" fill="#fff">
        <use xlink:href="#sign-sign-logo-o"/>
      </mask>
      <path fill="#DDDD3B" d="M101.798104,45.7484615 L101.572714,42.0074359 L104.350831,41.4587179 C103.325182,34.1741026 102.773104,27.8023077 102.362844,20.1612821 L99.0706364,20.5048718 L98.7262208,17.0741026 L110.687065,15.01 L110.993494,19.6997436 L107.881091,19.8228205 L110.243883,40.835641 L114.288234,40.6279487 L114.630117,45.1638462 L101.798104,45.7484615 Z" mask="url(#sign-sign-logo-p)"/>
      <mask id="sign-sign-logo-r" fill="#fff">
        <use xlink:href="#sign-sign-logo-q"/>
      </mask>
      <path fill="#DDDD3B" d="M137.586175,43.0302564 C133.665916,38.3610256 129.069487,33.3507692 123.037149,26.6097436 C123.629747,34.0328205 124.847864,38.9405128 125.544292,44.1482051 C123.363838,44.7430769 121.206175,44.9841026 118.547084,45.1687179 L116.285591,16.7225641 L124.376825,16.3046154 C127.866565,20.5610256 131.366435,24.3661538 136.588383,31.4789744 C136.097084,23.4969231 134.529487,17.9661538 133.865981,14.3123077 C136.254097,13.8482051 138.847344,13.4687179 141.293708,13.1020513 C141.709032,20.7917949 143.058838,34.1174359 144.054097,41.6046154 C142.071175,42.1815385 139.93124,42.6225641 137.634292,43.0251282 L137.586175,43.0302564 Z" mask="url(#sign-sign-logo-r)"/>
      <mask id="sign-sign-logo-t" fill="#fff">
        <use xlink:href="#sign-sign-logo-s"/>
      </mask>
      <path fill="#DDDD3B" d="M144.978448,24.7661538 C146.480201,15.1994872 156.599942,7.88153846 168.40124,12.5558974 L166.489227,17.9430769 C161.58637,16.2712821 156.16689,17.2020513 152.917734,21.4533333 C145.907864,32.6610256 160.530331,43.6071795 166.671565,30.9712821 C162.667734,31.0764103 159.828838,31.4764103 158.410656,31.7046154 C158.190331,30.8712821 158.063708,29.9789744 157.982669,29.0328205 C157.896565,28.0353846 157.86111,27.0353846 157.87124,26.0328205 C159.965591,25.5969231 162.335981,24.9328205 164.425266,24.4482051 C166.65637,23.8994872 168.173318,23.6661538 168.927994,23.7994872 L172.901435,29.6661538 C172.040396,35.1610256 168.426565,39.7969231 164.594942,41.3405128 C154.070006,45.6841026 143.058838,36.9764103 144.978448,24.7661538" mask="url(#sign-sign-logo-t)"/>
      <mask id="sign-sign-logo-v" fill="#fff">
        <use xlink:href="#sign-sign-logo-u"/>
      </mask>
      <path fill="#FEFEFE" d="M179.364292,43.6835897 L179.665656,47.2476923 C179.498513,47.2938462 179.338968,47.3297436 179.189552,47.3579487 C179.040136,47.3835897 178.883123,47.3938462 178.715981,47.3887179 L178.247474,43.7425641 C178.032214,43.7733333 177.816955,43.7938462 177.601695,43.8041026 C177.386435,43.8169231 177.163578,43.8246154 176.938188,43.8271795 L176.844487,42.84 C177.171175,42.8169231 177.492799,42.7912821 177.80176,42.7630769 C178.110721,42.7348718 178.417149,42.7066667 178.718513,42.6733333 C179.022409,42.6425641 179.323773,42.6041026 179.627669,42.5630769 C179.931565,42.5194872 180.240526,42.4707692 180.557084,42.4169231 L180.630526,43.5476923 L179.364292,43.6835897 Z" mask="url(#sign-sign-logo-v)"/>
      <mask id="sign-sign-logo-x" fill="#fff">
        <use xlink:href="#sign-sign-logo-w"/>
      </mask>
      <path fill="#FEFEFE" d="M186.961188,46.6258974 C186.763656,46.6182051 186.566123,46.6079487 186.371123,46.5951282 C186.173591,46.5848718 186.016578,46.5720513 185.902617,46.5541026 C185.907682,46.3182051 185.912747,46.0694872 185.915279,45.8053846 C185.917812,45.5412821 185.917812,45.2823077 185.917812,45.0335897 C185.920344,44.8848718 185.920344,44.7412821 185.915279,44.5976923 C185.910214,44.4541026 185.900084,44.3002564 185.887422,44.1361538 C185.872227,43.9746154 185.851968,43.7951282 185.82411,43.6002564 C185.798786,43.4079487 185.760799,43.19 185.715214,42.9489744 C185.586058,43.3258974 185.479695,43.6515385 185.391058,43.9258974 C185.304955,44.2002564 185.228981,44.4438462 185.168201,44.6592308 C185.107422,44.8746154 185.056773,45.0669231 185.016253,45.2387179 C184.978266,45.4079487 184.942812,45.5771795 184.90989,45.7412821 L183.957682,45.8412821 C183.91463,45.7464103 183.843721,45.6053846 183.747487,45.415641 C183.651253,45.2284615 183.539825,45.0310256 183.413201,44.8233333 C183.286578,44.615641 183.152357,44.415641 183.008006,44.2233333 C182.866188,44.0310256 182.721838,43.8848718 182.580019,43.7823077 C182.602812,44.0412821 182.628136,44.2925641 182.655994,44.5335897 C182.683851,44.7746154 182.71424,45.0130769 182.74463,45.2464103 C182.775019,45.4823077 182.807942,45.7182051 182.845929,45.9566667 C182.881383,46.1925641 182.921903,46.4412821 182.970019,46.6976923 C182.785149,46.7566667 182.610409,46.7976923 182.448331,46.8258974 C182.283721,46.8541026 182.106448,46.8823077 181.913981,46.9079487 C181.762032,46.0182051 181.645539,45.2233333 181.55437,44.5284615 C181.468266,43.8335897 181.39989,43.2284615 181.356838,42.715641 C181.475864,42.6669231 181.612617,42.6233333 181.764565,42.5823077 C181.913981,42.5387179 182.063396,42.5002564 182.215344,42.4669231 C182.362227,42.4335897 182.501513,42.4053846 182.630669,42.3874359 C182.757292,42.3669231 182.856058,42.3566667 182.9295,42.3566667 C182.970019,42.4002564 183.040929,42.4823077 183.147292,42.6028205 C183.253656,42.7258974 183.370149,42.8694872 183.499305,43.0387179 C183.628461,43.2079487 183.760149,43.39 183.89437,43.5874359 C184.031123,43.7848718 184.150149,43.9797436 184.256513,44.1771795 C184.446448,43.6823077 184.616123,43.2592308 184.765539,42.9028205 C184.914955,42.5489744 185.051708,42.2797436 185.175799,42.1028205 C185.254305,42.0951282 185.350539,42.09 185.469565,42.0848718 C185.586058,42.0797436 185.715214,42.0771795 185.8545,42.0771795 C185.993786,42.0771795 186.138136,42.0823077 186.282487,42.0874359 C186.426838,42.0925641 186.563591,42.1002564 186.695279,42.1079487 C186.796578,42.9207692 186.867487,43.6951282 186.910539,44.4335897 C186.953591,45.1720513 186.971318,45.9028205 186.961188,46.6258974" mask="url(#sign-sign-logo-x)"/>
    </g>
  </g>
</svg>
