<svg xmlns="http://www.w3.org/2000/svg" xmlns:xlink="http://www.w3.org/1999/xlink" width="171" height="38" viewBox="0 0 171 38">
  <defs>
    <path id="title-songs-a" d="M784.95,3676.75 C779.4,3676.75 775.55,3674.35 773.6,3672.75 C772.55,3671.9 772.55,3670.45 773.35,3669.45 L775.2,3667.1 C776.15,3665.85 777.7,3665.85 778.95,3666.8 C780.4,3667.9 782.55,3669.1 784.8,3669.1 C787.15,3669.1 788.25,3667.7 788.25,3666.05 C788.25,3664.35 787.15,3663.15 783.15,3661.3 C776.6,3658.3 773.25,3654.95 773.25,3649.5 C773.25,3643.6 777.85,3639.25 785.35,3639.25 C789.1,3639.25 792.15,3640.55 794.05,3641.65 C795.4,3642.45 795.55,3644.1 794.6,3645.35 L792.85,3647.6 C792,3648.7 790.65,3648.7 789.45,3648 C788.45,3647.45 787.05,3646.9 785.45,3646.9 C783.3,3646.9 782.25,3648 782.25,3649.4 C782.25,3650.8 783.15,3652.05 786.9,3653.7 C793.65,3656.65 797.25,3659.75 797.25,3665.65 C797.25,3671.8 792.6,3676.75 784.95,3676.75 Z M819.25,3676.75 C808.55,3676.75 800.25,3668.55 800.25,3658 C800.25,3647.45 808.55,3639.25 819.25,3639.25 C829.95,3639.25 838.25,3647.45 838.25,3658 C838.25,3668.55 829.95,3676.75 819.25,3676.75 Z M819.25,3668.25 C824.9,3668.25 829.25,3663.75 829.25,3658 C829.25,3652.25 824.9,3647.75 819.25,3647.75 C813.6,3647.75 809.25,3652.25 809.25,3658 C809.25,3663.75 813.6,3668.25 819.25,3668.25 Z M867.55,3676 C866.4,3676 865.35,3675.45 864.7,3674.5 L852.8,3657.45 C852.4,3656.9 851.6,3657.2 851.6,3657.85 L851.6,3673.95 C851.6,3675.1 850.7,3676 849.55,3676 L844.8,3676 C843.65,3676 842.75,3675.1 842.75,3673.95 L842.75,3642.05 C842.75,3640.9 843.65,3640 844.8,3640 L849,3640 C850.1,3640 851.15,3640.5 851.8,3641.45 L863.7,3658.1 C864.1,3658.65 864.9,3658.4 864.9,3657.75 L864.9,3642.05 C864.9,3640.9 865.8,3640 866.95,3640 L871.7,3640 C872.85,3640 873.75,3640.9 873.75,3642.05 L873.75,3673.95 C873.75,3675.1 872.85,3676 871.7,3676 L867.55,3676 Z M878.25,3658 C878.25,3647.45 886.55,3639.25 897.5,3639.25 C902.05,3639.25 905.95,3640.6 909.1,3642.8 C910.1,3643.5 910.15,3645 909.3,3645.95 L906.35,3649.2 C905.55,3650.05 904.3,3650 903.4,3649.4 C901.75,3648.35 899.8,3647.75 897.5,3647.75 C891.6,3647.75 887.25,3652.25 887.25,3658 C887.25,3663.75 891.6,3668.25 897.25,3668.25 C900.8,3668.25 903.45,3666.65 905,3664.35 C905.45,3663.7 905.1,3663 904.2,3663 L894.7,3663 C893.55,3663 892.65,3662.1 892.65,3660.95 L892.65,3657.55 C892.65,3656.4 893.55,3655.5 894.7,3655.5 L913.1,3655.5 C914.25,3655.5 915.25,3656.05 915.25,3658 C915.25,3668.55 907.85,3676.75 897.25,3676.75 C886.55,3676.75 878.25,3668.55 878.25,3658 Z M930.2,3676.75 C924.65,3676.75 920.8,3674.35 918.85,3672.75 C917.8,3671.9 917.8,3670.45 918.6,3669.45 L920.45,3667.1 C921.4,3665.85 922.95,3665.85 924.2,3666.8 C925.65,3667.9 927.8,3669.1 930.05,3669.1 C932.4,3669.1 933.5,3667.7 933.5,3666.05 C933.5,3664.35 932.4,3663.15 928.4,3661.3 C921.85,3658.3 918.5,3654.95 918.5,3649.5 C918.5,3643.6 923.1,3639.25 930.6,3639.25 C934.35,3639.25 937.4,3640.55 939.3,3641.65 C940.65,3642.45 940.8,3644.1 939.85,3645.35 L938.1,3647.6 C937.25,3648.7 935.9,3648.7 934.7,3648 C933.7,3647.45 932.3,3646.9 930.7,3646.9 C928.55,3646.9 927.5,3648 927.5,3649.4 C927.5,3650.8 928.4,3652.05 932.15,3653.7 C938.9,3656.65 942.5,3659.75 942.5,3665.65 C942.5,3671.8 937.85,3676.75 930.2,3676.75 Z"/>
  </defs>
  <g fill="none" transform="translate(-772 -3639)">
    <use fill="#FFF" xlink:href="#title-songs-a"/>
    <use fill="#8986BF" xlink:href="#title-songs-a"/>
  </g>
</svg>
