<svg xmlns="http://www.w3.org/2000/svg" xmlns:xlink="http://www.w3.org/1999/xlink" width="401" height="38" viewBox="0 0 401 38">
  <defs>
    <path id="title-signing-videos-a" d="M786.95,7844.75 C781.4,7844.75 777.55,7842.35 775.6,7840.75 C774.55,7839.9 774.55,7838.45 775.35,7837.45 L777.2,7835.1 C778.15,7833.85 779.7,7833.85 780.95,7834.8 C782.4,7835.9 784.55,7837.1 786.8,7837.1 C789.15,7837.1 790.25,7835.7 790.25,7834.05 C790.25,7832.35 789.15,7831.15 785.15,7829.3 C778.6,7826.3 775.25,7822.95 775.25,7817.5 C775.25,7811.6 779.85,7807.25 787.35,7807.25 C791.1,7807.25 794.15,7808.55 796.05,7809.65 C797.4,7810.45 797.55,7812.1 796.6,7813.35 L794.85,7815.6 C794,7816.7 792.65,7816.7 791.45,7816 C790.45,7815.45 789.05,7814.9 787.45,7814.9 C785.3,7814.9 784.25,7816 784.25,7817.4 C784.25,7818.8 785.15,7820.05 788.9,7821.7 C795.65,7824.65 799.25,7827.75 799.25,7833.65 C799.25,7839.8 794.6,7844.75 786.95,7844.75 Z M806.3,7844 C805.15,7844 804.25,7843.1 804.25,7841.95 L804.25,7810.05 C804.25,7808.9 805.15,7808 806.3,7808 L811.2,7808 C812.35,7808 813.25,7808.9 813.25,7810.05 L813.25,7841.95 C813.25,7843.1 812.35,7844 811.2,7844 L806.3,7844 Z M818.25,7826 C818.25,7815.45 826.55,7807.25 837.5,7807.25 C842.05,7807.25 845.95,7808.6 849.1,7810.8 C850.1,7811.5 850.15,7813 849.3,7813.95 L846.35,7817.2 C845.55,7818.05 844.3,7818 843.4,7817.4 C841.75,7816.35 839.8,7815.75 837.5,7815.75 C831.6,7815.75 827.25,7820.25 827.25,7826 C827.25,7831.75 831.6,7836.25 837.25,7836.25 C840.8,7836.25 843.45,7834.65 845,7832.35 C845.45,7831.7 845.1,7831 844.2,7831 L834.7,7831 C833.55,7831 832.65,7830.1 832.65,7828.95 L832.65,7825.55 C832.65,7824.4 833.55,7823.5 834.7,7823.5 L853.1,7823.5 C854.25,7823.5 855.25,7824.05 855.25,7826 C855.25,7836.55 847.85,7844.75 837.25,7844.75 C826.55,7844.75 818.25,7836.55 818.25,7826 Z M884.55,7844 C883.4,7844 882.35,7843.45 881.7,7842.5 L869.8,7825.45 C869.4,7824.9 868.6,7825.2 868.6,7825.85 L868.6,7841.95 C868.6,7843.1 867.7,7844 866.55,7844 L861.8,7844 C860.65,7844 859.75,7843.1 859.75,7841.95 L859.75,7810.05 C859.75,7808.9 860.65,7808 861.8,7808 L866,7808 C867.1,7808 868.15,7808.5 868.8,7809.45 L880.7,7826.1 C881.1,7826.65 881.9,7826.4 881.9,7825.75 L881.9,7810.05 C881.9,7808.9 882.8,7808 883.95,7808 L888.7,7808 C889.85,7808 890.75,7808.9 890.75,7810.05 L890.75,7841.95 C890.75,7843.1 889.85,7844 888.7,7844 L884.55,7844 Z M899.3,7844 C898.15,7844 897.25,7843.1 897.25,7841.95 L897.25,7810.05 C897.25,7808.9 898.15,7808 899.3,7808 L904.2,7808 C905.35,7808 906.25,7808.9 906.25,7810.05 L906.25,7841.95 C906.25,7843.1 905.35,7844 904.2,7844 L899.3,7844 Z M937.55,7844 C936.4,7844 935.35,7843.45 934.7,7842.5 L922.8,7825.45 C922.4,7824.9 921.6,7825.2 921.6,7825.85 L921.6,7841.95 C921.6,7843.1 920.7,7844 919.55,7844 L914.8,7844 C913.65,7844 912.75,7843.1 912.75,7841.95 L912.75,7810.05 C912.75,7808.9 913.65,7808 914.8,7808 L919,7808 C920.1,7808 921.15,7808.5 921.8,7809.45 L933.7,7826.1 C934.1,7826.65 934.9,7826.4 934.9,7825.75 L934.9,7810.05 C934.9,7808.9 935.8,7808 936.95,7808 L941.7,7808 C942.85,7808 943.75,7808.9 943.75,7810.05 L943.75,7841.95 C943.75,7843.1 942.85,7844 941.7,7844 L937.55,7844 Z M948.25,7826 C948.25,7815.45 956.55,7807.25 967.5,7807.25 C972.05,7807.25 975.95,7808.6 979.1,7810.8 C980.1,7811.5 980.15,7813 979.3,7813.95 L976.35,7817.2 C975.55,7818.05 974.3,7818 973.4,7817.4 C971.75,7816.35 969.8,7815.75 967.5,7815.75 C961.6,7815.75 957.25,7820.25 957.25,7826 C957.25,7831.75 961.6,7836.25 967.25,7836.25 C970.8,7836.25 973.45,7834.65 975,7832.35 C975.45,7831.7 975.1,7831 974.2,7831 L964.7,7831 C963.55,7831 962.65,7830.1 962.65,7828.95 L962.65,7825.55 C962.65,7824.4 963.55,7823.5 964.7,7823.5 L983.1,7823.5 C984.25,7823.5 985.25,7824.05 985.25,7826 C985.25,7836.55 977.85,7844.75 967.25,7844.75 C956.55,7844.75 948.25,7836.55 948.25,7826 Z M1014.55,7844 C1013.2,7844 1012.2,7843.3 1011.8,7842 L1002.35,7810.6 C1001.95,7809.25 1002.55,7808 1004,7808 L1009.2,7808 C1010.5,7808 1011.55,7808.65 1011.9,7809.95 L1016.25,7826.55 C1016.45,7827.35 1017.35,7827.4 1017.55,7826.6 L1021.9,7809.9 C1022.2,7808.7 1023.3,7808 1024.6,7808 L1028.75,7808 C1030.2,7808 1030.8,7809.25 1030.4,7810.6 L1021,7842 C1020.6,7843.3 1019.6,7844 1018.25,7844 L1014.55,7844 Z M1036.55,7844 C1035.4,7844 1034.5,7843.1 1034.5,7841.95 L1034.5,7810.05 C1034.5,7808.9 1035.4,7808 1036.55,7808 L1041.45,7808 C1042.6,7808 1043.5,7808.9 1043.5,7810.05 L1043.5,7841.95 C1043.5,7843.1 1042.6,7844 1041.45,7844 L1036.55,7844 Z M1052.05,7844 C1050.9,7844 1050,7843.1 1050,7841.95 L1050,7810.05 C1050,7808.9 1050.9,7808 1052.05,7808 L1061,7808 C1072.65,7808 1078.5,7815.75 1078.5,7826 C1078.5,7836.25 1072.65,7844 1061,7844 L1052.05,7844 Z M1059,7834.75 C1059,7835.3 1059.45,7835.75 1060,7835.75 L1061,7835.75 C1067,7835.75 1069.5,7831.85 1069.5,7826 C1069.5,7820.15 1067,7816.25 1061,7816.25 L1060,7816.25 C1059.45,7816.25 1059,7816.7 1059,7817.25 L1059,7834.75 Z M1085.05,7844 C1083.9,7844 1083,7843.1 1083,7841.95 L1083,7810.05 C1083,7808.9 1083.9,7808 1085.05,7808 L1101.95,7808 C1103.1,7808 1104,7808.9 1104,7810.05 L1104,7814.2 C1104,7815.35 1103.1,7816.25 1101.95,7816.25 L1093,7816.25 C1092.45,7816.25 1092,7816.7 1092,7817.25 L1092,7820.85 C1092,7821.4 1092.45,7821.85 1093,7821.85 L1103.2,7821.85 C1104.35,7821.85 1105.25,7822.75 1105.25,7823.9 L1105.25,7827.35 C1105.25,7828.5 1104.35,7829.4 1103.2,7829.4 L1093,7829.4 C1092.45,7829.4 1092,7829.85 1092,7830.4 L1092,7834.75 C1092,7835.3 1092.45,7835.75 1093,7835.75 L1103.45,7835.75 C1104.6,7835.75 1105.5,7836.65 1105.5,7837.8 L1105.5,7841.95 C1105.5,7843.1 1104.6,7844 1103.45,7844 L1085.05,7844 Z M1128,7844.75 C1117.3,7844.75 1109,7836.55 1109,7826 C1109,7815.45 1117.3,7807.25 1128,7807.25 C1138.7,7807.25 1147,7815.45 1147,7826 C1147,7836.55 1138.7,7844.75 1128,7844.75 Z M1128,7836.25 C1133.65,7836.25 1138,7831.75 1138,7826 C1138,7820.25 1133.65,7815.75 1128,7815.75 C1122.35,7815.75 1118,7820.25 1118,7826 C1118,7831.75 1122.35,7836.25 1128,7836.25 Z M1161.95,7844.75 C1156.4,7844.75 1152.55,7842.35 1150.6,7840.75 C1149.55,7839.9 1149.55,7838.45 1150.35,7837.45 L1152.2,7835.1 C1153.15,7833.85 1154.7,7833.85 1155.95,7834.8 C1157.4,7835.9 1159.55,7837.1 1161.8,7837.1 C1164.15,7837.1 1165.25,7835.7 1165.25,7834.05 C1165.25,7832.35 1164.15,7831.15 1160.15,7829.3 C1153.6,7826.3 1150.25,7822.95 1150.25,7817.5 C1150.25,7811.6 1154.85,7807.25 1162.35,7807.25 C1166.1,7807.25 1169.15,7808.55 1171.05,7809.65 C1172.4,7810.45 1172.55,7812.1 1171.6,7813.35 L1169.85,7815.6 C1169,7816.7 1167.65,7816.7 1166.45,7816 C1165.45,7815.45 1164.05,7814.9 1162.45,7814.9 C1160.3,7814.9 1159.25,7816 1159.25,7817.4 C1159.25,7818.8 1160.15,7820.05 1163.9,7821.7 C1170.65,7824.65 1174.25,7827.75 1174.25,7833.65 C1174.25,7839.8 1169.6,7844.75 1161.95,7844.75 Z"/>
  </defs>
  <g fill="#FFF" transform="translate(-774 -7807)">
    <use xlink:href="#title-signing-videos-a"/>
    <use xlink:href="#title-signing-videos-a"/>
  </g>
</svg>
