<svg xmlns="http://www.w3.org/2000/svg" xmlns:xlink="http://www.w3.org/1999/xlink" width="412" height="38" viewBox="0 0 412 38">
  <defs>
    <path id="title-assembly-plans-a" d="M775.35,4781 C773.9,4781 773.15,4779.75 773.7,4778.4 L786.35,4747 C786.85,4745.7 787.75,4745 789.1,4745 L793.2,4745 C794.55,4745 795.45,4745.7 795.95,4747 L808.6,4778.4 C809.15,4779.75 808.4,4781 806.95,4781 L801.4,4781 C800.1,4781 798.95,4780.35 798.5,4779.05 L797.35,4775.7 C797.2,4775.2 796.7,4774.75 796.05,4774.75 L785.35,4774.75 C784.7,4774.75 784.3,4775.15 784.1,4775.65 L782.85,4779.1 C782.4,4780.3 781.25,4781 779.95,4781 L775.35,4781 Z M787.45,4766.4 C787.3,4766.8 787.55,4767.25 788,4767.25 L793.6,4767.25 C794.05,4767.25 794.3,4766.85 794.15,4766.45 L791.55,4758.8 C791.35,4758.2 790.45,4758.15 790.25,4758.75 L787.45,4766.4 Z M823.25,4781.75 C817.7,4781.75 813.85,4779.35 811.9,4777.75 C810.85,4776.9 810.85,4775.45 811.65,4774.45 L813.5,4772.1 C814.45,4770.85 816,4770.85 817.25,4771.8 C818.7,4772.9 820.85,4774.1 823.1,4774.1 C825.45,4774.1 826.55,4772.7 826.55,4771.05 C826.55,4769.35 825.45,4768.15 821.45,4766.3 C814.9,4763.3 811.55,4759.95 811.55,4754.5 C811.55,4748.6 816.15,4744.25 823.65,4744.25 C827.4,4744.25 830.45,4745.55 832.35,4746.65 C833.7,4747.45 833.85,4749.1 832.9,4750.35 L831.15,4752.6 C830.3,4753.7 828.95,4753.7 827.75,4753 C826.75,4752.45 825.35,4751.9 823.75,4751.9 C821.6,4751.9 820.55,4753 820.55,4754.4 C820.55,4755.8 821.45,4757.05 825.2,4758.7 C831.95,4761.65 835.55,4764.75 835.55,4770.65 C835.55,4776.8 830.9,4781.75 823.25,4781.75 Z M851,4781.75 C845.45,4781.75 841.6,4779.35 839.65,4777.75 C838.6,4776.9 838.6,4775.45 839.4,4774.45 L841.25,4772.1 C842.2,4770.85 843.75,4770.85 845,4771.8 C846.45,4772.9 848.6,4774.1 850.85,4774.1 C853.2,4774.1 854.3,4772.7 854.3,4771.05 C854.3,4769.35 853.2,4768.15 849.2,4766.3 C842.65,4763.3 839.3,4759.95 839.3,4754.5 C839.3,4748.6 843.9,4744.25 851.4,4744.25 C855.15,4744.25 858.2,4745.55 860.1,4746.65 C861.45,4747.45 861.6,4749.1 860.65,4750.35 L858.9,4752.6 C858.05,4753.7 856.7,4753.7 855.5,4753 C854.5,4752.45 853.1,4751.9 851.5,4751.9 C849.35,4751.9 848.3,4753 848.3,4754.4 C848.3,4755.8 849.2,4757.05 852.95,4758.7 C859.7,4761.65 863.3,4764.75 863.3,4770.65 C863.3,4776.8 858.65,4781.75 851,4781.75 Z M869.85,4781 C868.7,4781 867.8,4780.1 867.8,4778.95 L867.8,4747.05 C867.8,4745.9 868.7,4745 869.85,4745 L886.75,4745 C887.9,4745 888.8,4745.9 888.8,4747.05 L888.8,4751.2 C888.8,4752.35 887.9,4753.25 886.75,4753.25 L877.8,4753.25 C877.25,4753.25 876.8,4753.7 876.8,4754.25 L876.8,4757.85 C876.8,4758.4 877.25,4758.85 877.8,4758.85 L888,4758.85 C889.15,4758.85 890.05,4759.75 890.05,4760.9 L890.05,4764.35 C890.05,4765.5 889.15,4766.4 888,4766.4 L877.8,4766.4 C877.25,4766.4 876.8,4766.85 876.8,4767.4 L876.8,4771.75 C876.8,4772.3 877.25,4772.75 877.8,4772.75 L888.25,4772.75 C889.4,4772.75 890.3,4773.65 890.3,4774.8 L890.3,4778.95 C890.3,4780.1 889.4,4781 888.25,4781 L869.85,4781 Z M897.35,4781 C896.2,4781 895.3,4780.1 895.3,4778.95 L895.3,4747.05 C895.3,4745.9 896.2,4745 897.35,4745 L901.65,4745 C902.7,4745 903.6,4745.55 904.05,4746.5 L914.1,4766.8 C914.4,4767.45 915.2,4767.45 915.5,4766.8 L925.55,4746.5 C926,4745.55 926.9,4745 927.95,4745 L931.75,4745 C932.9,4745 933.8,4745.9 933.8,4747.05 L933.8,4778.95 C933.8,4780.1 932.9,4781 931.75,4781 L927.1,4781 C925.95,4781 925.05,4780.1 925.05,4778.95 L925.05,4767 C925.05,4766.15 924.05,4766.05 923.75,4766.7 L917.3,4779.5 C916.8,4780.45 916.05,4781 914.55,4781 C913.05,4781 912.3,4780.45 911.8,4779.5 L905.35,4766.7 C905.05,4766.05 904.05,4766.15 904.05,4767 L904.05,4778.95 C904.05,4780.1 903.15,4781 902,4781 L897.35,4781 Z M941.85,4781 C940.7,4781 939.8,4780.1 939.8,4778.95 L939.8,4747.05 C939.8,4745.9 940.7,4745 941.85,4745 L952.55,4745 C958.55,4745 962.3,4749.5 962.3,4754.5 C962.3,4757.3 961.05,4760.05 958.85,4761.85 C958.3,4762.3 958.35,4762.85 958.9,4763.25 C961.7,4765 963.3,4767.9 963.3,4771.25 C963.3,4776.8 959.05,4781 952.4,4781 L941.85,4781 Z M949.8,4759.25 L949.85,4759.25 C952.2,4759.25 953.55,4757.85 953.55,4755.75 C953.55,4753.65 952.2,4752.25 949.85,4752.25 L949.8,4752.25 C949.25,4752.25 948.8,4752.7 948.8,4753.25 L948.8,4758.25 C948.8,4758.8 949.2,4759.25 949.8,4759.25 Z M949.8,4773.75 L950.55,4773.75 C953.1,4773.75 954.55,4772.3 954.55,4770 C954.55,4767.7 953.1,4766.25 950.55,4766.25 L949.8,4766.25 C949.25,4766.25 948.8,4766.7 948.8,4767.25 L948.8,4772.75 C948.8,4773.3 949.25,4773.75 949.8,4773.75 Z M970.35,4781 C969.2,4781 968.3,4780.1 968.3,4778.95 L968.3,4747.05 C968.3,4745.9 969.2,4745 970.35,4745 L975.25,4745 C976.4,4745 977.3,4745.9 977.3,4747.05 L977.3,4771.5 C977.3,4772.05 977.75,4772.5 978.3,4772.5 L988.75,4772.5 C989.9,4772.5 990.8,4773.4 990.8,4774.55 L990.8,4778.95 C990.8,4780.1 989.9,4781 988.75,4781 L970.35,4781 Z M998.05,4781 C996.9,4781 996,4780.1 996,4778.95 L996,4765.5 C996,4765 995.9,4764.5 995.65,4764.1 L986.15,4747.8 C985.35,4746.4 986,4745 987.75,4745 L993.2,4745 C994.5,4745 995.35,4745.55 995.9,4746.6 L1000.35,4754.55 C1000.65,4755.1 1001.35,4755.1 1001.65,4754.55 L1006.1,4746.6 C1006.65,4745.55 1007.5,4745 1008.8,4745 L1013.25,4745 C1015,4745 1015.65,4746.4 1014.85,4747.8 L1005.35,4764.1 C1005.1,4764.5 1005,4765 1005,4765.5 L1005,4778.95 C1005,4780.1 1004.1,4781 1002.95,4781 L998.05,4781 Z M1035.75,4781 C1034.6,4781 1033.7,4780.1 1033.7,4778.95 L1033.7,4747.05 C1033.7,4745.9 1034.6,4745 1035.75,4745 L1046.2,4745 C1053.2,4745 1057.7,4750.2 1057.7,4756.15 C1057.7,4762.1 1053.2,4767.25 1046.2,4767.25 L1043.7,4767.25 C1043.15,4767.25 1042.7,4767.7 1042.7,4768.25 L1042.7,4778.95 C1042.7,4780.1 1041.8,4781 1040.65,4781 L1035.75,4781 Z M1042.7,4758.75 C1042.7,4759.3 1043.15,4759.75 1043.7,4759.75 L1045.2,4759.75 C1047.4,4759.75 1048.95,4758.3 1048.95,4756.25 C1048.95,4754.2 1047.4,4752.75 1045.2,4752.75 L1043.7,4752.75 C1043.15,4752.75 1042.7,4753.2 1042.7,4753.75 L1042.7,4758.75 Z M1064.25,4781 C1063.1,4781 1062.2,4780.1 1062.2,4778.95 L1062.2,4747.05 C1062.2,4745.9 1063.1,4745 1064.25,4745 L1069.15,4745 C1070.3,4745 1071.2,4745.9 1071.2,4747.05 L1071.2,4771.5 C1071.2,4772.05 1071.65,4772.5 1072.2,4772.5 L1082.65,4772.5 C1083.8,4772.5 1084.7,4773.4 1084.7,4774.55 L1084.7,4778.95 C1084.7,4780.1 1083.8,4781 1082.65,4781 L1064.25,4781 Z M1087.55,4781 C1086.1,4781 1085.35,4779.75 1085.9,4778.4 L1098.55,4747 C1099.05,4745.7 1099.95,4745 1101.3,4745 L1105.4,4745 C1106.75,4745 1107.65,4745.7 1108.15,4747 L1120.8,4778.4 C1121.35,4779.75 1120.6,4781 1119.15,4781 L1113.6,4781 C1112.3,4781 1111.15,4780.35 1110.7,4779.05 L1109.55,4775.7 C1109.4,4775.2 1108.9,4774.75 1108.25,4774.75 L1097.55,4774.75 C1096.9,4774.75 1096.5,4775.15 1096.3,4775.65 L1095.05,4779.1 C1094.6,4780.3 1093.45,4781 1092.15,4781 L1087.55,4781 Z M1099.65,4766.4 C1099.5,4766.8 1099.75,4767.25 1100.2,4767.25 L1105.8,4767.25 C1106.25,4767.25 1106.5,4766.85 1106.35,4766.45 L1103.75,4758.8 C1103.55,4758.2 1102.65,4758.15 1102.45,4758.75 L1099.65,4766.4 Z M1149.3,4781 C1148.15,4781 1147.1,4780.45 1146.45,4779.5 L1134.55,4762.45 C1134.15,4761.9 1133.35,4762.2 1133.35,4762.85 L1133.35,4778.95 C1133.35,4780.1 1132.45,4781 1131.3,4781 L1126.55,4781 C1125.4,4781 1124.5,4780.1 1124.5,4778.95 L1124.5,4747.05 C1124.5,4745.9 1125.4,4745 1126.55,4745 L1130.75,4745 C1131.85,4745 1132.9,4745.5 1133.55,4746.45 L1145.45,4763.1 C1145.85,4763.65 1146.65,4763.4 1146.65,4762.75 L1146.65,4747.05 C1146.65,4745.9 1147.55,4745 1148.7,4745 L1153.45,4745 C1154.6,4745 1155.5,4745.9 1155.5,4747.05 L1155.5,4778.95 C1155.5,4780.1 1154.6,4781 1153.45,4781 L1149.3,4781 Z M1172.45,4781.75 C1166.9,4781.75 1163.05,4779.35 1161.1,4777.75 C1160.05,4776.9 1160.05,4775.45 1160.85,4774.45 L1162.7,4772.1 C1163.65,4770.85 1165.2,4770.85 1166.45,4771.8 C1167.9,4772.9 1170.05,4774.1 1172.3,4774.1 C1174.65,4774.1 1175.75,4772.7 1175.75,4771.05 C1175.75,4769.35 1174.65,4768.15 1170.65,4766.3 C1164.1,4763.3 1160.75,4759.95 1160.75,4754.5 C1160.75,4748.6 1165.35,4744.25 1172.85,4744.25 C1176.6,4744.25 1179.65,4745.55 1181.55,4746.65 C1182.9,4747.45 1183.05,4749.1 1182.1,4750.35 L1180.35,4752.6 C1179.5,4753.7 1178.15,4753.7 1176.95,4753 C1175.95,4752.45 1174.55,4751.9 1172.95,4751.9 C1170.8,4751.9 1169.75,4753 1169.75,4754.4 C1169.75,4755.8 1170.65,4757.05 1174.4,4758.7 C1181.15,4761.65 1184.75,4764.75 1184.75,4770.65 C1184.75,4776.8 1180.1,4781.75 1172.45,4781.75 Z"/>
  </defs>
  <g fill="none" transform="translate(-773 -4744)">
    <use fill="#FFF" xlink:href="#title-assembly-plans-a"/>
    <use fill="#8986BF" xlink:href="#title-assembly-plans-a"/>
  </g>
</svg>
