<svg xmlns="http://www.w3.org/2000/svg" xmlns:xlink="http://www.w3.org/1999/xlink" width="380" height="38" viewBox="0 0 380 38">
  <defs>
    <path id="title-creative-ideas-a" d="M793.5,6361.75 C782.8,6361.75 774.5,6353.55 774.5,6343 C774.5,6332.45 782.8,6324.25 793.5,6324.25 C799.4,6324.25 804.25,6326.75 807.7,6330.85 C808.65,6332 808.4,6333.55 807.15,6334.45 L804.35,6336.45 C803.1,6337.35 801.85,6337.1 800.75,6336 C798.95,6334.15 796.45,6332.9 793.5,6332.9 C787.85,6332.9 783.5,6337.3 783.5,6343 C783.5,6348.7 787.85,6353.1 793.5,6353.1 C796.5,6353.1 799.05,6351.95 800.8,6349.95 C801.75,6348.85 803.05,6348.7 804.2,6349.5 L807.05,6351.55 C808.35,6352.5 808.7,6353.95 807.75,6355.1 C804.3,6359.2 799.4,6361.75 793.5,6361.75 Z M814.35,6361 C813.2,6361 812.3,6360.1 812.3,6358.95 L812.3,6327.05 C812.3,6325.9 813.2,6325 814.35,6325 L824.8,6325 C831.8,6325 836.3,6330.2 836.3,6336.15 C836.3,6340 834.4,6343.55 831.15,6345.55 C830.75,6345.8 830.6,6346.25 830.85,6346.65 L838.65,6358.5 C839.4,6359.65 838.7,6361 837.3,6361 L831.3,6361 C830.4,6361 829.55,6360.55 829.05,6359.75 L822.45,6348.45 C822.25,6348.15 822.05,6348 821.8,6348 L821.75,6348 C821.45,6348 821.3,6348.25 821.3,6348.7 L821.3,6358.95 C821.3,6360.1 820.4,6361 819.25,6361 L814.35,6361 Z M822.3,6340.75 L823.3,6340.75 C825.75,6340.75 827.55,6339.05 827.55,6336.75 C827.55,6334.45 825.75,6332.75 823.3,6332.75 L822.3,6332.75 C821.75,6332.75 821.3,6333.2 821.3,6333.75 L821.3,6339.75 C821.3,6340.3 821.75,6340.75 822.3,6340.75 Z M845.35,6361 C844.2,6361 843.3,6360.1 843.3,6358.95 L843.3,6327.05 C843.3,6325.9 844.2,6325 845.35,6325 L862.25,6325 C863.4,6325 864.3,6325.9 864.3,6327.05 L864.3,6331.2 C864.3,6332.35 863.4,6333.25 862.25,6333.25 L853.3,6333.25 C852.75,6333.25 852.3,6333.7 852.3,6334.25 L852.3,6337.85 C852.3,6338.4 852.75,6338.85 853.3,6338.85 L863.5,6338.85 C864.65,6338.85 865.55,6339.75 865.55,6340.9 L865.55,6344.35 C865.55,6345.5 864.65,6346.4 863.5,6346.4 L853.3,6346.4 C852.75,6346.4 852.3,6346.85 852.3,6347.4 L852.3,6351.75 C852.3,6352.3 852.75,6352.75 853.3,6352.75 L863.75,6352.75 C864.9,6352.75 865.8,6353.65 865.8,6354.8 L865.8,6358.95 C865.8,6360.1 864.9,6361 863.75,6361 L845.35,6361 Z M870.15,6361 C868.7,6361 867.95,6359.75 868.5,6358.4 L881.15,6327 C881.65,6325.7 882.55,6325 883.9,6325 L888,6325 C889.35,6325 890.25,6325.7 890.75,6327 L903.4,6358.4 C903.95,6359.75 903.2,6361 901.75,6361 L896.2,6361 C894.9,6361 893.75,6360.35 893.3,6359.05 L892.15,6355.7 C892,6355.2 891.5,6354.75 890.85,6354.75 L880.15,6354.75 C879.5,6354.75 879.1,6355.15 878.9,6355.65 L877.65,6359.1 C877.2,6360.3 876.05,6361 874.75,6361 L870.15,6361 Z M882.25,6346.4 C882.1,6346.8 882.35,6347.25 882.8,6347.25 L888.4,6347.25 C888.85,6347.25 889.1,6346.85 888.95,6346.45 L886.35,6338.8 C886.15,6338.2 885.25,6338.15 885.05,6338.75 L882.25,6346.4 Z M901.65,6333.5 C900.5,6333.5 899.6,6332.6 899.6,6331.45 L899.6,6327.05 C899.6,6325.9 900.5,6325 901.65,6325 L924.05,6325 C925.2,6325 926.1,6325.9 926.1,6327.05 L926.1,6331.45 C926.1,6332.6 925.2,6333.5 924.05,6333.5 L918.35,6333.5 C917.8,6333.5 917.35,6333.95 917.35,6334.5 L917.35,6358.95 C917.35,6360.1 916.45,6361 915.3,6361 L910.4,6361 C909.25,6361 908.35,6360.1 908.35,6358.95 L908.35,6334.5 C908.35,6333.95 907.9,6333.5 907.35,6333.5 L901.65,6333.5 Z M932.15,6361 C931,6361 930.1,6360.1 930.1,6358.95 L930.1,6327.05 C930.1,6325.9 931,6325 932.15,6325 L937.05,6325 C938.2,6325 939.1,6325.9 939.1,6327.05 L939.1,6358.95 C939.1,6360.1 938.2,6361 937.05,6361 L932.15,6361 Z M955.4,6361 C954.05,6361 953.05,6360.3 952.65,6359 L943.2,6327.6 C942.8,6326.25 943.4,6325 944.85,6325 L950.05,6325 C951.35,6325 952.4,6325.65 952.75,6326.95 L957.1,6343.55 C957.3,6344.35 958.2,6344.4 958.4,6343.6 L962.75,6326.9 C963.05,6325.7 964.15,6325 965.45,6325 L969.6,6325 C971.05,6325 971.65,6326.25 971.25,6327.6 L961.85,6359 C961.45,6360.3 960.45,6361 959.1,6361 L955.4,6361 Z M976.9,6361 C975.75,6361 974.85,6360.1 974.85,6358.95 L974.85,6327.05 C974.85,6325.9 975.75,6325 976.9,6325 L993.8,6325 C994.95,6325 995.85,6325.9 995.85,6327.05 L995.85,6331.2 C995.85,6332.35 994.95,6333.25 993.8,6333.25 L984.85,6333.25 C984.3,6333.25 983.85,6333.7 983.85,6334.25 L983.85,6337.85 C983.85,6338.4 984.3,6338.85 984.85,6338.85 L995.05,6338.85 C996.2,6338.85 997.1,6339.75 997.1,6340.9 L997.1,6344.35 C997.1,6345.5 996.2,6346.4 995.05,6346.4 L984.85,6346.4 C984.3,6346.4 983.85,6346.85 983.85,6347.4 L983.85,6351.75 C983.85,6352.3 984.3,6352.75 984.85,6352.75 L995.3,6352.75 C996.45,6352.75 997.35,6353.65 997.35,6354.8 L997.35,6358.95 C997.35,6360.1 996.45,6361 995.3,6361 L976.9,6361 Z M1019.9,6361 C1018.75,6361 1017.85,6360.1 1017.85,6358.95 L1017.85,6327.05 C1017.85,6325.9 1018.75,6325 1019.9,6325 L1024.8,6325 C1025.95,6325 1026.85,6325.9 1026.85,6327.05 L1026.85,6358.95 C1026.85,6360.1 1025.95,6361 1024.8,6361 L1019.9,6361 Z M1035.4,6361 C1034.25,6361 1033.35,6360.1 1033.35,6358.95 L1033.35,6327.05 C1033.35,6325.9 1034.25,6325 1035.4,6325 L1044.35,6325 C1056,6325 1061.85,6332.75 1061.85,6343 C1061.85,6353.25 1056,6361 1044.35,6361 L1035.4,6361 Z M1042.35,6351.75 C1042.35,6352.3 1042.8,6352.75 1043.35,6352.75 L1044.35,6352.75 C1050.35,6352.75 1052.85,6348.85 1052.85,6343 C1052.85,6337.15 1050.35,6333.25 1044.35,6333.25 L1043.35,6333.25 C1042.8,6333.25 1042.35,6333.7 1042.35,6334.25 L1042.35,6351.75 Z M1068.4,6361 C1067.25,6361 1066.35,6360.1 1066.35,6358.95 L1066.35,6327.05 C1066.35,6325.9 1067.25,6325 1068.4,6325 L1085.3,6325 C1086.45,6325 1087.35,6325.9 1087.35,6327.05 L1087.35,6331.2 C1087.35,6332.35 1086.45,6333.25 1085.3,6333.25 L1076.35,6333.25 C1075.8,6333.25 1075.35,6333.7 1075.35,6334.25 L1075.35,6337.85 C1075.35,6338.4 1075.8,6338.85 1076.35,6338.85 L1086.55,6338.85 C1087.7,6338.85 1088.6,6339.75 1088.6,6340.9 L1088.6,6344.35 C1088.6,6345.5 1087.7,6346.4 1086.55,6346.4 L1076.35,6346.4 C1075.8,6346.4 1075.35,6346.85 1075.35,6347.4 L1075.35,6351.75 C1075.35,6352.3 1075.8,6352.75 1076.35,6352.75 L1086.8,6352.75 C1087.95,6352.75 1088.85,6353.65 1088.85,6354.8 L1088.85,6358.95 C1088.85,6360.1 1087.95,6361 1086.8,6361 L1068.4,6361 Z M1093.2,6361 C1091.75,6361 1091,6359.75 1091.55,6358.4 L1104.2,6327 C1104.7,6325.7 1105.6,6325 1106.95,6325 L1111.05,6325 C1112.4,6325 1113.3,6325.7 1113.8,6327 L1126.45,6358.4 C1127,6359.75 1126.25,6361 1124.8,6361 L1119.25,6361 C1117.95,6361 1116.8,6360.35 1116.35,6359.05 L1115.2,6355.7 C1115.05,6355.2 1114.55,6354.75 1113.9,6354.75 L1103.2,6354.75 C1102.55,6354.75 1102.15,6355.15 1101.95,6355.65 L1100.7,6359.1 C1100.25,6360.3 1099.1,6361 1097.8,6361 L1093.2,6361 Z M1105.3,6346.4 C1105.15,6346.8 1105.4,6347.25 1105.85,6347.25 L1111.45,6347.25 C1111.9,6347.25 1112.15,6346.85 1112,6346.45 L1109.4,6338.8 C1109.2,6338.2 1108.3,6338.15 1108.1,6338.75 L1105.3,6346.4 Z M1141.1,6361.75 C1135.55,6361.75 1131.7,6359.35 1129.75,6357.75 C1128.7,6356.9 1128.7,6355.45 1129.5,6354.45 L1131.35,6352.1 C1132.3,6350.85 1133.85,6350.85 1135.1,6351.8 C1136.55,6352.9 1138.7,6354.1 1140.95,6354.1 C1143.3,6354.1 1144.4,6352.7 1144.4,6351.05 C1144.4,6349.35 1143.3,6348.15 1139.3,6346.3 C1132.75,6343.3 1129.4,6339.95 1129.4,6334.5 C1129.4,6328.6 1134,6324.25 1141.5,6324.25 C1145.25,6324.25 1148.3,6325.55 1150.2,6326.65 C1151.55,6327.45 1151.7,6329.1 1150.75,6330.35 L1149,6332.6 C1148.15,6333.7 1146.8,6333.7 1145.6,6333 C1144.6,6332.45 1143.2,6331.9 1141.6,6331.9 C1139.45,6331.9 1138.4,6333 1138.4,6334.4 C1138.4,6335.8 1139.3,6337.05 1143.05,6338.7 C1149.8,6341.65 1153.4,6344.75 1153.4,6350.65 C1153.4,6356.8 1148.75,6361.75 1141.1,6361.75 Z"/>
  </defs>
  <g fill="#FFF" transform="translate(-774 -6324)">
    <use xlink:href="#title-creative-ideas-a"/>
    <use xlink:href="#title-creative-ideas-a"/>
  </g>
</svg>
