<svg xmlns="http://www.w3.org/2000/svg" xmlns:xlink="http://www.w3.org/1999/xlink" width="396" height="38" viewBox="0 0 396 38">
  <defs>
    <path id="title-how-to-videos-a" d="M776.05,7374 C774.9,7374 774,7373.1 774,7371.95 L774,7340.05 C774,7338.9 774.9,7338 776.05,7338 L780.95,7338 C782.1,7338 783,7338.9 783,7340.05 L783,7350.25 C783,7350.8 783.45,7351.25 784,7351.25 L796,7351.25 C796.55,7351.25 797,7350.8 797,7350.25 L797,7340.05 C797,7338.9 797.9,7338 799.05,7338 L803.95,7338 C805.1,7338 806,7338.9 806,7340.05 L806,7371.95 C806,7373.1 805.1,7374 803.95,7374 L799.05,7374 C797.9,7374 797,7373.1 797,7371.95 L797,7360.75 C797,7360.2 796.55,7359.75 796,7359.75 L784,7359.75 C783.45,7359.75 783,7360.2 783,7360.75 L783,7371.95 C783,7373.1 782.1,7374 780.95,7374 L776.05,7374 Z M829.5,7374.75 C818.8,7374.75 810.5,7366.55 810.5,7356 C810.5,7345.45 818.8,7337.25 829.5,7337.25 C840.2,7337.25 848.5,7345.45 848.5,7356 C848.5,7366.55 840.2,7374.75 829.5,7374.75 Z M829.5,7366.25 C835.15,7366.25 839.5,7361.75 839.5,7356 C839.5,7350.25 835.15,7345.75 829.5,7345.75 C823.85,7345.75 819.5,7350.25 819.5,7356 C819.5,7361.75 823.85,7366.25 829.5,7366.25 Z M873.3,7353.95 L867.35,7372.1 C866.95,7373.25 865.95,7374 864.7,7374 L861.25,7374 C860,7374 858.95,7373.25 858.6,7372.05 L848.6,7340.2 C848.25,7339 849,7338 850.2,7338 L856.15,7338 C857.2,7338 858.1,7338.7 858.4,7339.7 L863.35,7356.6 C863.55,7357.3 864.4,7357.25 864.6,7356.6 L870,7339.95 C870.4,7338.75 871.4,7338 872.65,7338 L876.05,7338 C877.3,7338 878.3,7338.75 878.7,7339.95 L884.15,7356.9 C884.35,7357.55 885.2,7357.55 885.4,7356.85 L890.4,7339.7 C890.7,7338.7 891.6,7338 892.65,7338 L897.6,7338 C898.8,7338 899.55,7339 899.2,7340.2 L889.2,7372.05 C888.85,7373.25 887.8,7374 886.55,7374 L883.1,7374 C881.85,7374 880.85,7373.25 880.45,7372.1 L874.5,7353.95 C874.3,7353.35 873.5,7353.35 873.3,7353.95 Z M917.35,7346.5 C916.2,7346.5 915.3,7345.6 915.3,7344.45 L915.3,7340.05 C915.3,7338.9 916.2,7338 917.35,7338 L939.75,7338 C940.9,7338 941.8,7338.9 941.8,7340.05 L941.8,7344.45 C941.8,7345.6 940.9,7346.5 939.75,7346.5 L934.05,7346.5 C933.5,7346.5 933.05,7346.95 933.05,7347.5 L933.05,7371.95 C933.05,7373.1 932.15,7374 931,7374 L926.1,7374 C924.95,7374 924.05,7373.1 924.05,7371.95 L924.05,7347.5 C924.05,7346.95 923.6,7346.5 923.05,7346.5 L917.35,7346.5 Z M961.8,7374.75 C951.1,7374.75 942.8,7366.55 942.8,7356 C942.8,7345.45 951.1,7337.25 961.8,7337.25 C972.5,7337.25 980.8,7345.45 980.8,7356 C980.8,7366.55 972.5,7374.75 961.8,7374.75 Z M961.8,7366.25 C967.45,7366.25 971.8,7361.75 971.8,7356 C971.8,7350.25 967.45,7345.75 961.8,7345.75 C956.15,7345.75 951.8,7350.25 951.8,7356 C951.8,7361.75 956.15,7366.25 961.8,7366.25 Z M1010.1,7374 C1008.75,7374 1007.75,7373.3 1007.35,7372 L997.9,7340.6 C997.5,7339.25 998.1,7338 999.55,7338 L1004.75,7338 C1006.05,7338 1007.1,7338.65 1007.45,7339.95 L1011.8,7356.55 C1012,7357.35 1012.9,7357.4 1013.1,7356.6 L1017.45,7339.9 C1017.75,7338.7 1018.85,7338 1020.15,7338 L1024.3,7338 C1025.75,7338 1026.35,7339.25 1025.95,7340.6 L1016.55,7372 C1016.15,7373.3 1015.15,7374 1013.8,7374 L1010.1,7374 Z M1032.1,7374 C1030.95,7374 1030.05,7373.1 1030.05,7371.95 L1030.05,7340.05 C1030.05,7338.9 1030.95,7338 1032.1,7338 L1037,7338 C1038.15,7338 1039.05,7338.9 1039.05,7340.05 L1039.05,7371.95 C1039.05,7373.1 1038.15,7374 1037,7374 L1032.1,7374 Z M1047.6,7374 C1046.45,7374 1045.55,7373.1 1045.55,7371.95 L1045.55,7340.05 C1045.55,7338.9 1046.45,7338 1047.6,7338 L1056.55,7338 C1068.2,7338 1074.05,7345.75 1074.05,7356 C1074.05,7366.25 1068.2,7374 1056.55,7374 L1047.6,7374 Z M1054.55,7364.75 C1054.55,7365.3 1055,7365.75 1055.55,7365.75 L1056.55,7365.75 C1062.55,7365.75 1065.05,7361.85 1065.05,7356 C1065.05,7350.15 1062.55,7346.25 1056.55,7346.25 L1055.55,7346.25 C1055,7346.25 1054.55,7346.7 1054.55,7347.25 L1054.55,7364.75 Z M1080.6,7374 C1079.45,7374 1078.55,7373.1 1078.55,7371.95 L1078.55,7340.05 C1078.55,7338.9 1079.45,7338 1080.6,7338 L1097.5,7338 C1098.65,7338 1099.55,7338.9 1099.55,7340.05 L1099.55,7344.2 C1099.55,7345.35 1098.65,7346.25 1097.5,7346.25 L1088.55,7346.25 C1088,7346.25 1087.55,7346.7 1087.55,7347.25 L1087.55,7350.85 C1087.55,7351.4 1088,7351.85 1088.55,7351.85 L1098.75,7351.85 C1099.9,7351.85 1100.8,7352.75 1100.8,7353.9 L1100.8,7357.35 C1100.8,7358.5 1099.9,7359.4 1098.75,7359.4 L1088.55,7359.4 C1088,7359.4 1087.55,7359.85 1087.55,7360.4 L1087.55,7364.75 C1087.55,7365.3 1088,7365.75 1088.55,7365.75 L1099,7365.75 C1100.15,7365.75 1101.05,7366.65 1101.05,7367.8 L1101.05,7371.95 C1101.05,7373.1 1100.15,7374 1099,7374 L1080.6,7374 Z M1123.55,7374.75 C1112.85,7374.75 1104.55,7366.55 1104.55,7356 C1104.55,7345.45 1112.85,7337.25 1123.55,7337.25 C1134.25,7337.25 1142.55,7345.45 1142.55,7356 C1142.55,7366.55 1134.25,7374.75 1123.55,7374.75 Z M1123.55,7366.25 C1129.2,7366.25 1133.55,7361.75 1133.55,7356 C1133.55,7350.25 1129.2,7345.75 1123.55,7345.75 C1117.9,7345.75 1113.55,7350.25 1113.55,7356 C1113.55,7361.75 1117.9,7366.25 1123.55,7366.25 Z M1157.5,7374.75 C1151.95,7374.75 1148.1,7372.35 1146.15,7370.75 C1145.1,7369.9 1145.1,7368.45 1145.9,7367.45 L1147.75,7365.1 C1148.7,7363.85 1150.25,7363.85 1151.5,7364.8 C1152.95,7365.9 1155.1,7367.1 1157.35,7367.1 C1159.7,7367.1 1160.8,7365.7 1160.8,7364.05 C1160.8,7362.35 1159.7,7361.15 1155.7,7359.3 C1149.15,7356.3 1145.8,7352.95 1145.8,7347.5 C1145.8,7341.6 1150.4,7337.25 1157.9,7337.25 C1161.65,7337.25 1164.7,7338.55 1166.6,7339.65 C1167.95,7340.45 1168.1,7342.1 1167.15,7343.35 L1165.4,7345.6 C1164.55,7346.7 1163.2,7346.7 1162,7346 C1161,7345.45 1159.6,7344.9 1158,7344.9 C1155.85,7344.9 1154.8,7346 1154.8,7347.4 C1154.8,7348.8 1155.7,7350.05 1159.45,7351.7 C1166.2,7354.65 1169.8,7357.75 1169.8,7363.65 C1169.8,7369.8 1165.15,7374.75 1157.5,7374.75 Z"/>
  </defs>
  <g fill="#FFF" transform="translate(-774 -7337)">
    <use xlink:href="#title-how-to-videos-a"/>
    <use xlink:href="#title-how-to-videos-a"/>
  </g>
</svg>
