<svg xmlns="http://www.w3.org/2000/svg" xmlns:xlink="http://www.w3.org/1999/xlink" width="426" height="38" viewBox="0 0 426 38">
  <defs>
    <path id="title-music-activities-a" d="M778.05,5349 C776.9,5349 776,5348.1 776,5346.95 L776,5315.05 C776,5313.9 776.9,5313 778.05,5313 L782.35,5313 C783.4,5313 784.3,5313.55 784.75,5314.5 L794.8,5334.8 C795.1,5335.45 795.9,5335.45 796.2,5334.8 L806.25,5314.5 C806.7,5313.55 807.6,5313 808.65,5313 L812.45,5313 C813.6,5313 814.5,5313.9 814.5,5315.05 L814.5,5346.95 C814.5,5348.1 813.6,5349 812.45,5349 L807.8,5349 C806.65,5349 805.75,5348.1 805.75,5346.95 L805.75,5335 C805.75,5334.15 804.75,5334.05 804.45,5334.7 L798,5347.5 C797.5,5348.45 796.75,5349 795.25,5349 C793.75,5349 793,5348.45 792.5,5347.5 L786.05,5334.7 C785.75,5334.05 784.75,5334.15 784.75,5335 L784.75,5346.95 C784.75,5348.1 783.85,5349 782.7,5349 L778.05,5349 Z M833.75,5349.75 C825.5,5349.75 820.25,5344.45 820.25,5336 L820.25,5315.05 C820.25,5313.9 821.15,5313 822.3,5313 L827.2,5313 C828.35,5313 829.25,5313.9 829.25,5315.05 L829.25,5335.75 C829.25,5338.8 830.8,5340.75 833.75,5340.75 C836.7,5340.75 838.25,5338.8 838.25,5335.75 L838.25,5315.05 C838.25,5313.9 839.15,5313 840.3,5313 L845.2,5313 C846.35,5313 847.25,5313.9 847.25,5315.05 L847.25,5336 C847.25,5344.45 842,5349.75 833.75,5349.75 Z M863.95,5349.75 C858.4,5349.75 854.55,5347.35 852.6,5345.75 C851.55,5344.9 851.55,5343.45 852.35,5342.45 L854.2,5340.1 C855.15,5338.85 856.7,5338.85 857.95,5339.8 C859.4,5340.9 861.55,5342.1 863.8,5342.1 C866.15,5342.1 867.25,5340.7 867.25,5339.05 C867.25,5337.35 866.15,5336.15 862.15,5334.3 C855.6,5331.3 852.25,5327.95 852.25,5322.5 C852.25,5316.6 856.85,5312.25 864.35,5312.25 C868.1,5312.25 871.15,5313.55 873.05,5314.65 C874.4,5315.45 874.55,5317.1 873.6,5318.35 L871.85,5320.6 C871,5321.7 869.65,5321.7 868.45,5321 C867.45,5320.45 866.05,5319.9 864.45,5319.9 C862.3,5319.9 861.25,5321 861.25,5322.4 C861.25,5323.8 862.15,5325.05 865.9,5326.7 C872.65,5329.65 876.25,5332.75 876.25,5338.65 C876.25,5344.8 871.6,5349.75 863.95,5349.75 Z M883.3,5349 C882.15,5349 881.25,5348.1 881.25,5346.95 L881.25,5315.05 C881.25,5313.9 882.15,5313 883.3,5313 L888.2,5313 C889.35,5313 890.25,5313.9 890.25,5315.05 L890.25,5346.95 C890.25,5348.1 889.35,5349 888.2,5349 L883.3,5349 Z M914.25,5349.75 C903.55,5349.75 895.25,5341.55 895.25,5331 C895.25,5320.45 903.55,5312.25 914.25,5312.25 C920.15,5312.25 925,5314.75 928.45,5318.85 C929.4,5320 929.15,5321.55 927.9,5322.45 L925.1,5324.45 C923.85,5325.35 922.6,5325.1 921.5,5324 C919.7,5322.15 917.2,5320.9 914.25,5320.9 C908.6,5320.9 904.25,5325.3 904.25,5331 C904.25,5336.7 908.6,5341.1 914.25,5341.1 C917.25,5341.1 919.8,5339.95 921.55,5337.95 C922.5,5336.85 923.8,5336.7 924.95,5337.5 L927.8,5339.55 C929.1,5340.5 929.45,5341.95 928.5,5343.1 C925.05,5347.2 920.15,5349.75 914.25,5349.75 Z M947.4,5349 C945.95,5349 945.2,5347.75 945.75,5346.4 L958.4,5315 C958.9,5313.7 959.8,5313 961.15,5313 L965.25,5313 C966.6,5313 967.5,5313.7 968,5315 L980.65,5346.4 C981.2,5347.75 980.45,5349 979,5349 L973.45,5349 C972.15,5349 971,5348.35 970.55,5347.05 L969.4,5343.7 C969.25,5343.2 968.75,5342.75 968.1,5342.75 L957.4,5342.75 C956.75,5342.75 956.35,5343.15 956.15,5343.65 L954.9,5347.1 C954.45,5348.3 953.3,5349 952,5349 L947.4,5349 Z M959.5,5334.4 C959.35,5334.8 959.6,5335.25 960.05,5335.25 L965.65,5335.25 C966.1,5335.25 966.35,5334.85 966.2,5334.45 L963.6,5326.8 C963.4,5326.2 962.5,5326.15 962.3,5326.75 L959.5,5334.4 Z M999.35,5349.75 C988.65,5349.75 980.35,5341.55 980.35,5331 C980.35,5320.45 988.65,5312.25 999.35,5312.25 C1005.25,5312.25 1010.1,5314.75 1013.55,5318.85 C1014.5,5320 1014.25,5321.55 1013,5322.45 L1010.2,5324.45 C1008.95,5325.35 1007.7,5325.1 1006.6,5324 C1004.8,5322.15 1002.3,5320.9 999.35,5320.9 C993.7,5320.9 989.35,5325.3 989.35,5331 C989.35,5336.7 993.7,5341.1 999.35,5341.1 C1002.35,5341.1 1004.9,5339.95 1006.65,5337.95 C1007.6,5336.85 1008.9,5336.7 1010.05,5337.5 L1012.9,5339.55 C1014.2,5340.5 1014.55,5341.95 1013.6,5343.1 C1010.15,5347.2 1005.25,5349.75 999.35,5349.75 Z M1017.7,5321.5 C1016.55,5321.5 1015.65,5320.6 1015.65,5319.45 L1015.65,5315.05 C1015.65,5313.9 1016.55,5313 1017.7,5313 L1040.1,5313 C1041.25,5313 1042.15,5313.9 1042.15,5315.05 L1042.15,5319.45 C1042.15,5320.6 1041.25,5321.5 1040.1,5321.5 L1034.4,5321.5 C1033.85,5321.5 1033.4,5321.95 1033.4,5322.5 L1033.4,5346.95 C1033.4,5348.1 1032.5,5349 1031.35,5349 L1026.45,5349 C1025.3,5349 1024.4,5348.1 1024.4,5346.95 L1024.4,5322.5 C1024.4,5321.95 1023.95,5321.5 1023.4,5321.5 L1017.7,5321.5 Z M1048.2,5349 C1047.05,5349 1046.15,5348.1 1046.15,5346.95 L1046.15,5315.05 C1046.15,5313.9 1047.05,5313 1048.2,5313 L1053.1,5313 C1054.25,5313 1055.15,5313.9 1055.15,5315.05 L1055.15,5346.95 C1055.15,5348.1 1054.25,5349 1053.1,5349 L1048.2,5349 Z M1071.45,5349 C1070.1,5349 1069.1,5348.3 1068.7,5347 L1059.25,5315.6 C1058.85,5314.25 1059.45,5313 1060.9,5313 L1066.1,5313 C1067.4,5313 1068.45,5313.65 1068.8,5314.95 L1073.15,5331.55 C1073.35,5332.35 1074.25,5332.4 1074.45,5331.6 L1078.8,5314.9 C1079.1,5313.7 1080.2,5313 1081.5,5313 L1085.65,5313 C1087.1,5313 1087.7,5314.25 1087.3,5315.6 L1077.9,5347 C1077.5,5348.3 1076.5,5349 1075.15,5349 L1071.45,5349 Z M1093.45,5349 C1092.3,5349 1091.4,5348.1 1091.4,5346.95 L1091.4,5315.05 C1091.4,5313.9 1092.3,5313 1093.45,5313 L1098.35,5313 C1099.5,5313 1100.4,5313.9 1100.4,5315.05 L1100.4,5346.95 C1100.4,5348.1 1099.5,5349 1098.35,5349 L1093.45,5349 Z M1106.45,5321.5 C1105.3,5321.5 1104.4,5320.6 1104.4,5319.45 L1104.4,5315.05 C1104.4,5313.9 1105.3,5313 1106.45,5313 L1128.85,5313 C1130,5313 1130.9,5313.9 1130.9,5315.05 L1130.9,5319.45 C1130.9,5320.6 1130,5321.5 1128.85,5321.5 L1123.15,5321.5 C1122.6,5321.5 1122.15,5321.95 1122.15,5322.5 L1122.15,5346.95 C1122.15,5348.1 1121.25,5349 1120.1,5349 L1115.2,5349 C1114.05,5349 1113.15,5348.1 1113.15,5346.95 L1113.15,5322.5 C1113.15,5321.95 1112.7,5321.5 1112.15,5321.5 L1106.45,5321.5 Z M1136.95,5349 C1135.8,5349 1134.9,5348.1 1134.9,5346.95 L1134.9,5315.05 C1134.9,5313.9 1135.8,5313 1136.95,5313 L1141.85,5313 C1143,5313 1143.9,5313.9 1143.9,5315.05 L1143.9,5346.95 C1143.9,5348.1 1143,5349 1141.85,5349 L1136.95,5349 Z M1152.45,5349 C1151.3,5349 1150.4,5348.1 1150.4,5346.95 L1150.4,5315.05 C1150.4,5313.9 1151.3,5313 1152.45,5313 L1169.35,5313 C1170.5,5313 1171.4,5313.9 1171.4,5315.05 L1171.4,5319.2 C1171.4,5320.35 1170.5,5321.25 1169.35,5321.25 L1160.4,5321.25 C1159.85,5321.25 1159.4,5321.7 1159.4,5322.25 L1159.4,5325.85 C1159.4,5326.4 1159.85,5326.85 1160.4,5326.85 L1170.6,5326.85 C1171.75,5326.85 1172.65,5327.75 1172.65,5328.9 L1172.65,5332.35 C1172.65,5333.5 1171.75,5334.4 1170.6,5334.4 L1160.4,5334.4 C1159.85,5334.4 1159.4,5334.85 1159.4,5335.4 L1159.4,5339.75 C1159.4,5340.3 1159.85,5340.75 1160.4,5340.75 L1170.85,5340.75 C1172,5340.75 1172.9,5341.65 1172.9,5342.8 L1172.9,5346.95 C1172.9,5348.1 1172,5349 1170.85,5349 L1152.45,5349 Z M1188.85,5349.75 C1183.3,5349.75 1179.45,5347.35 1177.5,5345.75 C1176.45,5344.9 1176.45,5343.45 1177.25,5342.45 L1179.1,5340.1 C1180.05,5338.85 1181.6,5338.85 1182.85,5339.8 C1184.3,5340.9 1186.45,5342.1 1188.7,5342.1 C1191.05,5342.1 1192.15,5340.7 1192.15,5339.05 C1192.15,5337.35 1191.05,5336.15 1187.05,5334.3 C1180.5,5331.3 1177.15,5327.95 1177.15,5322.5 C1177.15,5316.6 1181.75,5312.25 1189.25,5312.25 C1193,5312.25 1196.05,5313.55 1197.95,5314.65 C1199.3,5315.45 1199.45,5317.1 1198.5,5318.35 L1196.75,5320.6 C1195.9,5321.7 1194.55,5321.7 1193.35,5321 C1192.35,5320.45 1190.95,5319.9 1189.35,5319.9 C1187.2,5319.9 1186.15,5321 1186.15,5322.4 C1186.15,5323.8 1187.05,5325.05 1190.8,5326.7 C1197.55,5329.65 1201.15,5332.75 1201.15,5338.65 C1201.15,5344.8 1196.5,5349.75 1188.85,5349.75 Z"/>
  </defs>
  <g fill="none" transform="translate(-776 -5312)">
    <use fill="#FFF" xlink:href="#title-music-activities-a"/>
    <use fill="#8986BF" xlink:href="#title-music-activities-a"/>
  </g>
</svg>
