<svg xmlns="http://www.w3.org/2000/svg" width="229" height="170" viewBox="0 0 229 170">
  <g fill="none" fill-rule="evenodd">
    <path fill="#F6DC2A" d="M137,169.930105 C170.993939,169.930105 219.050221,126.455459 228.997736,66.1684602 C228.997736,48.5621266 206.272993,7.14846037 132,0.667958351 C57.727007,-5.81254367 -1.27897692e-13,36.2636544 -1.27897692e-13,66.1684602 C-1.27897692e-13,160.84859 103.006061,169.930105 137,169.930105 Z"/>
    <path fill="#FEFEFE" d="M50.7716657 71.3849655L51.2248405 71.5256051C51.3652812 71.5683486 51.4231949 71.6772753 51.376864 71.8137785L50.0289223 75.7640974C49.9348125 76.0371037 50.078149 76.3059736 50.3459999 76.3900816L51.2089142 76.6561938C51.4767651 76.738923 51.7735729 76.6051775 51.8662348 76.3321711L53.2141765 72.3818523C53.2605075 72.2453491 53.3589608 72.1860598 53.5008494 72.2288033L54.2363535 72.4576874C54.5186829 72.544553 54.7633683 72.4245957 54.8516867 72.1653775L55.116642 71.3904808C55.2093039 71.1174745 55.0862373 70.8844539 54.8024601 70.7962094L54.0669559 70.5687042C53.9250673 70.5245819 53.8787364 70.4349586 53.9250673 70.2984555L54.2638626 69.3029475C54.5013088 68.6080223 55.0138451 68.2991667 55.7073618 68.5142626 55.8202936 68.5487331 55.8999249 68.5887189 55.9477037 68.6342199 56.2025241 68.7128126 56.3994307 68.6383564 56.5109146 68.3115761L56.7382259 67.6442273C56.8410228 67.3450233 56.7222997 67.0982146 56.3820566 66.9479232 56.2647813 66.8803611 56.1460582 66.8141777 55.9621822 66.7576461 54.3637637 66.2626498 53.0360918 66.9506809 52.4772245 68.5845824L52.0877548 69.7303817C52.039976 69.8668849 51.9328356 69.9082494 51.790947 69.8641272L51.3377722 69.7248664C51.0699213 69.6407584 50.8252359 69.7607157 50.7325739 70.0337221L50.4676187 70.8099976C50.3793003 71.0678369 50.5023669 71.3022363 50.7716657 71.3849655M57.1667874 78.7258024C59.1619148 79.3435137 61.204821 78.3507634 61.8462154 76.4700531 62.4919533 74.5755546 61.45385 72.628661 59.4572747 72.0109497 57.4621473 71.3932384 55.4192411 72.3873675 54.7735032 74.2804872 54.1321089 76.1611975 55.17166 78.1080911 57.1667874 78.7258024M57.7517159 77.0105505C56.7889004 76.7127254 56.2995295 75.7627185 56.6108158 74.8499398 56.9278933 73.9233729 57.9095308 73.4283765 58.8723462 73.7262016 59.8351617 74.0240267 60.3245326 74.9740336 60.0089028 75.9006005 59.6976166 76.8147581 58.7145314 77.3083756 57.7517159 77.0105505M62.4861619 80.1473657L63.3476284 80.4148567C63.6169271 80.4975859 63.9122871 80.3638404 64.004949 80.0908341L65.1719103 76.6713608C65.1994193 76.5900104 65.2414068 76.5127965 65.3123511 76.4438555 65.8133047 75.9819509 66.133278 75.8688877 66.473521 75.9750568 66.6993845 76.0453766 66.8557515 76.1832586 66.9411742 76.3900816 67.0179099 76.669982 67.201786 76.8175157 67.4899067 76.8009699L68.4498265 76.7816664C68.7379472 76.7651206 68.9305103 76.5693282 68.9001056 76.2894277 68.8392962 75.4111195 68.4136304 74.7823776 67.6911568 74.5590088 66.9281437 74.3232306 66.4619383 74.5397053 65.8885925 74.8899256 65.727882 74.9960947 65.5961283 74.9243961 65.6236373 74.7989235L65.6786553 74.6348439C65.7351212 74.381141 65.5975761 74.1426052 65.3427558 74.0640125L64.6362085 73.8447801C64.3669097 73.7620509 64.0816847 73.9137211 63.9933663 74.1729392L62.1676365 79.5200026C62.0749745 79.7943878 62.2168631 80.0646365 62.4861619 80.1473657M75.0505419 84.2603853C75.9988789 84.5526951 76.7662356 84.323811 77.2396802 83.9887578 77.4003907 83.8881039 77.5466229 83.963939 77.5133225 84.1045786L77.4496174 84.3844791C77.4221084 84.6023326 77.5538621 84.8091556 77.794204 84.8836119L78.4877207 85.0973289C78.77005 85.1855734 79.0523794 85.0463126 79.1450413 84.7746851L80.9707711 79.4207276C81.0590895 79.1615095 80.9215445 78.8788514 80.6392151 78.7906069L79.9471463 78.5768899C79.7068044 78.5024336 79.470806 78.5948145 79.3549785 78.8002587L79.2333598 79.0636133C79.1725504 79.1946011 79.0074963 79.1739188 78.945239 78.989157 78.7642587 78.4665843 78.2893662 77.8378424 77.3410292 77.5441538 75.5167472 76.9802165 73.6287602 78.0212255 72.9830223 79.9157239 72.3416279 81.7964342 73.2248121 83.6950691 75.0505419 84.2603853M75.961235 82.6457872C74.9984195 82.3479621 74.5090486 81.3979553 74.8203348 80.4837977 75.1374124 79.5572308 76.1190499 79.0622344 77.0818653 79.3600595 78.0446808 79.6578846 78.5340517 80.6078915 78.2184219 81.5358373 77.9071357 82.448616 76.9240505 82.9436123 75.961235 82.6457872M86.8924482 87.9239096C88.2664511 88.3485861 89.5333135 87.8384228 89.9372617 86.6540165 90.2963267 85.6047346 89.7287723 84.7953674 88.7036996 83.9515296 88.1448323 83.4772156 87.9493735 83.1752541 88.046379 82.8898383 88.1404888 82.616832 88.4228181 82.4775712 88.8615145 82.6140744 89.1452917 82.70094 89.3856336 82.9118995 89.5651661 83.0732214 89.7968209 83.3103784 90.1124507 83.3476065 90.3803016 83.1587082L90.6481525 82.9711887C90.9377211 82.7602293 91.0159046 82.3934632 90.7610842 82.1342451 90.4584851 81.8295259 89.9778013 81.4544869 89.2553277 81.2311181 87.9102817 80.8147145 86.6607934 81.2711038 86.2756672 82.4017361 85.9412155 83.382077 86.4334821 84.2286724 87.4397328 85.0366609 88.073888 85.5647489 88.2693468 85.8667104 88.1520715 86.2072789 88.055066 86.4926946 87.7582582 86.67332 87.3050834 86.5326804 86.8938961 86.405829 86.5493095 86.0418205 86.3321331 85.7632989 86.1135088 85.4861561 85.7660265 85.4075634 85.4648752 85.601977L85.1782024 85.7991482C84.9016644 85.9687431 84.8234809 86.2913869 85.0131483 86.5602568 85.3070604 86.9821757 85.8746147 87.6095387 86.8924482 87.9239096M91.2243939 85.5454454C90.5786561 87.4399439 91.6182072 89.3868375 93.6133346 90.00317 94.7860873 90.3671784 95.9298831 90.1796589 96.860846 89.5633264 97.1272491 89.3758069 97.2010891 89.0669513 96.9086248 88.7801568L96.4641371 88.341692C96.2093168 88.0810951 95.9168525 88.0659281 95.6446581 88.2231135 95.2392621 88.4451035 94.7296214 88.5140445 94.1779933 88.3430709 93.3729927 88.0935045 92.9082351 87.3916852 92.9748359 86.642986 92.9791794 86.5395745 93.0646022 86.47477 93.1645033 86.505104L97.5225102 87.8535898C97.8337964 87.9501072 98.1581132 87.8246346 98.2594622 87.5254307 98.8501821 85.7950118 97.8844709 83.9018921 95.8893435 83.2841808 93.8956639 82.6664695 91.8672362 83.6647351 91.2243939 85.5454454M93.6654569 85.1262841C94.134558 84.668516 94.751339 84.5113305 95.4028683 84.7126382 96.0819066 84.9235976 96.4684806 85.3896387 96.5365292 86.015623 96.5625904 86.1273074 96.4684806 86.2196883 96.3410705 86.1797025L93.7233706 85.3703353C93.5959605 85.3303495 93.5756907 85.2048769 93.6654569 85.1262841M101.069725 92.3113144C102.018062 92.605003 102.785419 92.3747401 103.260311 92.0410657 103.418126 91.939033 103.565806 92.0148681 103.531058 92.1555077L103.467353 92.436787C103.441292 92.6532617 103.574493 92.8600847 103.814835 92.934541L104.506904 93.148258C104.789233 93.2365025 105.071563 93.0972417 105.162777 92.8256142L106.991402 87.4716567C107.079721 87.2124386 106.940728 86.9297805 106.658398 86.841536L105.966329 86.627819C105.725988 86.5533627 105.491437 86.6457436 105.374162 86.8511878L105.252543 87.1145424C105.193181 87.2455303 105.028127 87.224848 104.96587 87.0400861 104.783442 86.5175134 104.309997 85.8901503 103.36166 85.5964617 101.53593 85.0311456 99.6493913 86.0721546 99.0022056 87.966653 98.3608112 89.8473633 99.2439953 91.7459983 101.069725 92.3113144M101.980418 90.6967163C101.017603 90.3988913 100.528232 89.4488844 100.839518 88.5361056 101.156596 87.6081599 102.139681 87.1145424 103.101049 87.4123675 104.063864 87.7101925 104.553235 88.6601994 104.237605 89.5867664 103.926319 90.4995451 102.943234 90.9945414 101.980418 90.6967163M108.666556 94.6622022C110.040559 95.0868788 111.308869 94.5767154 111.712818 93.3923092 112.070435 92.3416484 111.501433 91.53366 110.47636 90.6884434 109.91894 90.2141294 109.724929 89.9135467 109.821935 89.6267521 109.914597 89.3537458 110.196926 89.2158638 110.63707 89.352367 110.9194 89.4392326 111.16119 89.6501921 111.340722 89.8101352 111.572377 90.048671 111.888007 90.0858992 112.15441 89.8970008L112.422261 89.7081025C112.713277 89.4985219 112.791461 89.130377 112.53664 88.8711589 112.234041 88.5678185 111.751909 88.1927795 111.029436 87.9694107 109.68439 87.5530071 108.436349 88.0093965 108.051223 89.1386499 107.715324 90.1203696 108.209038 90.9655862 109.215289 91.7749535 109.849444 92.3030415 110.043455 92.6036242 109.92618 92.9441927 109.830622 93.2309872 109.533814 93.4102338 109.079192 93.2695942 108.669452 93.1427428 108.324865 92.7801131 108.106241 92.5015915 107.889065 92.2230699 107.540135 92.145856 107.240431 92.3388908L106.953758 92.5374408C106.675772 92.7070357 106.599037 93.0283007 106.787256 93.2985494 107.081168 93.7204683 107.648723 94.3464525 108.666556 94.6622022M115.388891 96.7414626C117.384018 97.3591739 119.426924 96.3664236 120.066871 94.4857133 120.715504 92.5912148 119.675953 90.6443212 117.679378 90.0266099 115.68425 89.4088986 113.642792 90.4030277 112.995606 92.2961474 112.354212 94.1768576 113.393763 96.1237513 115.388891 96.7414626M115.973819 95.0262107C115.011004 94.7283856 114.521633 93.7783787 114.832919 92.8656 115.149996 91.939033 116.131634 91.4440367 117.094449 91.7418618 118.057265 92.0396869 118.546636 92.9896938 118.231006 93.9162607 117.91972 94.8304183 116.936635 95.3240358 115.973819 95.0262107M120.708265 98.161647L121.569732 98.4291381C121.83903 98.5118673 122.135838 98.3767429 122.2285 98.1051154L123.375192 94.7394161C123.418627 94.6167012 123.492467 94.4898498 123.622773 94.4250452 124.052782 94.1354931 124.475552 94.0403545 124.843304 94.1547965 125.381902 94.3216337 125.609213 94.7077033 125.392037 95.3488545L124.239554 98.7269632C124.145444 98.9999695 124.287332 99.2688394 124.57111 99.3570838L125.432576 99.6231961C125.701875 99.7073041 125.984204 99.5680433 126.076866 99.2950369L127.447973 95.2771559C127.883774 93.9962322 127.371238 93.0255431 126.142019 92.6449888 125.277657 92.3774977 124.699968 92.605003 124.093322 92.9593597 123.92682 93.0738018 123.799409 92.9896938 123.829814 92.8628423L123.903654 92.6449888C123.958672 92.3912859 123.821127 92.1527501 123.564859 92.0741574L122.859759 91.854925C122.590461 91.7721958 122.305236 91.923866 122.216917 92.1830841L120.391187 97.5356628C120.297078 97.8086691 120.440414 98.0789178 120.708265 98.161647M134.758132 102.735192C136.754707 103.352904 138.796165 102.360153 139.43756 100.479443 140.084745 98.5849447 139.045194 96.6380511 137.050067 96.0203398 135.053492 95.4026285 133.012033 96.3953788 132.3634 98.2898773 131.723453 100.170588 132.763004 102.117481 134.758132 102.735192M135.34306 101.019941C134.381693 100.722115 133.890874 99.7721086 134.203608 98.8593299 134.519238 97.9313841 135.500875 97.4377666 136.465138 97.7355917 137.426506 98.0334168 137.915877 98.9834237 137.600247 99.9099906 137.288961 100.824148 136.305876 101.317766 135.34306 101.019941M140.996886 99.3033099L141.451509 99.4439495C141.593398 99.4880717 141.649864 99.5956197 141.602085 99.7321228L140.255591 103.682442C140.162929 103.955448 140.304818 104.225697 140.571221 104.308426L141.435583 104.575917C141.703434 104.658646 142.000241 104.523522 142.092903 104.251894L143.440845 100.300197C143.487176 100.163693 143.584182 100.104404 143.727518 100.148526L144.463022 100.376032C144.746799 100.462897 144.990037 100.34294 145.078355 100.085101L145.341863 99.3088251C145.435972 99.0371976 145.312906 98.8027983 145.029129 98.7159326L144.293625 98.4884273C144.153184 98.4443051 144.105405 98.3546818 144.151736 98.2181786L144.489083 97.2226707C144.727977 96.5277455 145.240514 96.2188898 145.93403 96.4326069 146.046962 96.4684562 146.125146 96.5070632 146.174372 96.5525643 146.427745 96.631157 146.626099 96.5567007 146.737583 96.2299204L146.963447 95.5639504C147.067691 95.2633677 146.948968 95.0165589 146.607277 94.8662676 146.490002 94.8000842 146.372727 94.732522 146.187403 94.6759904 144.590432 94.1809941 143.26276 94.8690252 142.705341 96.5043056L142.314423 97.648726C142.266645 97.7852292 142.159504 97.8279726 142.016168 97.7838504L141.564441 97.6432108C141.295142 97.5604816 141.050457 97.6804389 140.959243 97.9520664L140.692839 98.728342C140.605969 98.9861813 140.729036 99.2205807 140.996886 99.3033099M24.106901 110.922053C23.6647201 112.322809 24.6461121 113.630941 26.0960219 114.115435 27.11484 114.456005 28.1211827 114.43748 29.1774267 113.951562 29.2841601 113.917363 29.3950518 113.968662 29.4421808 114.068411L29.8095098 114.916274C29.8982232 115.088697 30.0465409 115.222645 30.2322846 115.285344L31.065359 115.563215C31.4812031 115.701438 31.7404126 115.432117 31.5851641 115.067322L30.7590205 113.214847C30.7326837 113.149298 30.7562482 113.073774 30.8061495 113.019625L32.8313103 111.577545C33.0988366 111.382322 33.0489353 111.038902 32.6760618 110.914929L31.8582351 110.642757C31.6572437 110.575783 31.4326879 110.585758 31.2497165 110.709731L30.2198093 111.457846C30.1158483 111.53907 29.9966396 111.511995 29.9287184 111.375197L29.2439618 109.824818C29.1968328 109.72507 29.2439618 109.628171 29.3506951 109.591122 30.7687235 109.069579 31.4215987 108.508136 31.6780359 107.697323 32.0356619 106.567313 31.2746672 105.262031 29.8108959 104.774687 28.3318771 104.280219 26.9706807 104.875861 26.596421 106.05717 26.3288946 106.906458 26.5784011 107.671673 26.9623638 108.566561 27.0094928 108.666309 26.9623638 108.764633 26.8376106 108.810232 25.2047294 109.357425 24.4160117 109.945942 24.106901 110.922053M28.2390052 106.634287C28.4011844 106.121294 28.878019 105.867648 29.4089133 106.044345 29.92456 106.216768 30.1657496 106.709811 30.0035704 107.224229 29.8691141 107.647448 29.5586172 107.928169 28.7893056 108.253065 28.6687108 108.28299 28.5356407 108.253065 28.4857394 108.109142 28.2126684 107.420876 28.1170243 107.020457 28.2390052 106.634287M26.0128531 111.417947C26.1556262 110.967653 26.4855292 110.622808 27.3005837 110.255163 27.5209811 110.159689 27.7122693 110.208138 27.7857351 110.374861L28.6548493 112.341334C28.6922753 112.426833 28.6562355 112.542256 28.5633636 112.580731 27.916033 112.97545 27.3809802 113.011075 26.8362244 112.830102 26.1999829 112.630605 25.8215648 112.020713 26.0128531 111.417947M36.0012796 104.365929L36.960643 121.84377C37.0070872 122.578528 37.7734168 122.866343 38.3133309 122.314237L45.8692245 114.017417C46.0869318 113.775264 46.4541313 113.88873 46.4555827 114.197301L47.4773555 125.152258C47.5731467 125.902238 48.3714067 126.098727 48.8373003 125.521713L60.4149729 111.92799C60.7763669 111.499035 60.5847845 110.95108 60.0477733 110.785033L58.1900046 110.209403C57.7995829 110.087635 57.393196 110.166507 57.1116279 110.517974L50.6486247 118.228094C50.4309175 118.467479 50.0724262 118.407979 50.0303361 118.060663L49.1856319 107.933174C49.1232225 107.244078 48.3902747 107.018531 47.9229297 107.516672L40.9708109 115.22956C40.7458467 115.495236 40.3946123 115.334724 40.3844527 115.048292L39.883726 105.182327C39.8721149 104.740918 39.6181231 104.454487 39.22625 104.335487L37.0027331 103.645008C36.4410483 103.472042 35.972252 103.81659 36.0012796 104.365929L36.0012796 104.365929zM64.5397999 130.977744C69.7197816 132.58425 75.0463527 130.035427 76.7139904 125.142572 78.3743712 120.271857 75.6356138 115.226793 70.4556321 113.620287 65.2988726 112.023468 59.9723014 114.573674 58.313372 119.443006 56.6457343 124.33586 59.3830404 129.380925 64.5397999 130.977744L64.5397999 130.977744zM65.6268849 127.786872C62.4498101 126.803043 60.799589 123.638462 61.856195 120.538916 62.9040926 117.465661 66.190021 115.828714 69.3670958 116.812543 72.568844 117.806058 74.2190651 120.967871 73.1711675 124.045278 72.1145615 127.14344 68.8286331 128.779004 65.6268849 127.786872L65.6268849 127.786872zM91.2684471 138.330863L96.506484 122.954902C96.6574277 122.510726 96.4121442 122.047178 95.9462506 121.904654L94.1378289 121.344245C93.6733867 121.198954 93.1886252 121.436955 93.0376815 121.878363L90.2031329 130.197323C90.0913765 130.522498 89.6690244 130.570929 89.5122751 130.238835L83.5645125 118.120164C83.1929588 117.386789 82.2263385 117.294079 81.9476732 118.109094L76.7154418 133.461532C76.5644981 133.905708 76.8286496 134.398315 77.2930918 134.543606L79.1015135 135.104015C79.5659557 135.246539 80.0594255 134.987782 80.2103692 134.546373L83.0449178 126.228797C83.1552228 125.900854 83.577575 125.85104 83.7343242 126.184518L89.6733785 138.328096C90.0376753 139.08361 90.9883304 139.147262 91.2684471 138.330863L91.2684471 138.330863zM95.377309 140.143544L99.4077962 141.394432C105.078345 143.148997 109.184304 140.454883 110.805497 135.701784 112.416531 130.973593 110.754699 126.490321 105.085602 124.735757L101.053663 123.486253C100.564548 123.335426 100.079786 123.572044 99.9288423 124.013452L94.7982076 139.064238C94.640007 139.52917 94.8881933 139.992718 95.377309 140.143544L95.377309 140.143544zM99.262658 137.4605L102.542781 127.83807C102.622607 127.604221 102.882404 127.478302 103.126236 127.554407L104.030447 127.835303C107.49925 128.90769 108.309121 131.529851 107.261223 134.605873 106.206069 137.704036 103.934656 139.370042 100.465854 138.29627L99.5601913 138.01399C99.3178105 137.939269 99.1842834 137.692966 99.262658 137.4605L99.262658 137.4605zM111.383147 145.102818L120.204646 147.835676C120.669088 147.980968 121.155301 147.74435 121.313502 147.278035L121.821485 145.787762C121.972429 145.343586 121.725694 144.880038 121.262703 144.737514L115.567481 142.973264C115.322198 142.898542 115.190122 142.650856 115.269948 142.41839L116.367193 139.202611C116.445567 138.970145 116.703913 138.844226 116.947745 138.920331L122.5196 140.645837C122.984042 140.788361 123.470255 140.553127 123.62265 140.110335L124.050808 138.853912C124.2003 138.41112 123.960822 137.924048 123.497831 137.778757L117.924525 136.053251C117.680693 135.97853 117.54136 135.75575 117.619735 135.5219L118.548619 132.79596C118.628445 132.563494 118.888243 132.436191 119.132075 132.51368L124.092898 134.048232C124.55734 134.193523 125.042102 133.95829 125.194497 133.514114L125.709737 132.000318C125.862132 131.556142 125.612495 131.093977 125.149504 130.951453L117.059502 128.444142C116.571837 128.2947 116.085624 128.529933 115.934681 128.971342L110.806949 144.022128C110.645845 144.488444 110.894032 144.950608 111.383147 145.102818L111.383147 145.102818zM124.653131 149.212484L126.509449 149.788114C126.973891 149.933405 127.460104 149.698171 127.619756 149.231856L129.42092 143.943256C129.486233 143.756453 129.597989 143.660975 129.744579 143.708022L130.085653 143.814569C130.207569 143.850546 130.28159 143.950174 130.33384 144.120372L132.370128 151.062525C132.486239 151.434747 132.764904 151.728097 133.132104 151.841563L135.454315 152.558333C136.040673 152.742368 136.492053 152.28989 136.326595 151.747469L133.950683 144.521653C133.902787 144.350071 134.013092 144.179873 134.216286 144.139745 136.359977 143.952942 138.063899 142.602425 138.715569 140.6915 139.645905 137.964176 138.271447 135.015456 134.923109 133.977662L130.329485 132.555192C129.84037 132.404366 129.355608 132.640983 129.204665 133.083775L124.075481 148.134561C123.915829 148.599493 124.165467 149.063041 124.653131 149.212484L124.653131 149.212484zM130.90133 141.024978C130.656046 140.950256 130.523971 140.703953 130.603797 140.471487L131.882464 136.720207C131.96229 136.487741 132.21483 136.385345 132.457211 136.458682L133.362873 136.739579C134.901338 137.21558 135.618321 138.521818 135.174198 139.826671 134.728624 141.130141 133.344005 141.784643 131.805541 141.305874L130.90133 141.024978zM54.0014728 85.4770972L55.0984748 105.506794C55.1520224 106.349319 56.0275978 106.679966 56.6441187 106.044959L65.2797529 96.5364558C65.5286768 96.2597643 65.9483742 96.3898093 65.9498214 96.7453578L67.1177377 109.29885C67.2277274 110.159361 68.1394836 110.383481 68.6720651 109.720805L81.9041086 94.1430744C82.3180169 93.651947 82.0994849 93.0238574 81.4844112 92.8329403L79.3613217 92.1730311C78.9155742 92.0346853 78.4510127 92.1259935 78.1297271 92.5285796L70.741607 101.361955C70.4941303 101.638647 70.0845636 101.570857 70.0353577 101.172422L69.0700539 89.5665973C68.9976923 88.7766431 68.1597449 88.5165531 67.6257162 89.0893045L59.681859 97.9268305C59.4242517 98.2311911 59.0233684 98.0471913 59.0117905 97.7193118L58.4386866 86.4123144C58.4256615 85.905969 58.1347678 85.5808565 57.6875731 85.4411273L55.1462334 84.6525566C54.5036624 84.4519552 53.9681865 84.847624 54.0014728 85.4770972M86.6177436 115.975416C92.5398176 117.814031 98.626876 114.893552 100.532881 109.286399 102.430202 103.706916 99.2998389 97.9240635 93.3792122 96.0840652 87.4860829 94.253751 81.3975773 97.1742296 79.5017032 102.755097 77.5956985 108.360866 80.7246144 114.145102 86.6177436 115.975416M87.8609161 112.316171C84.2312578 111.190037 82.3440671 107.563995 83.5510587 104.011276 84.7493669 100.48761 88.5049344 98.6144088 92.1360398 99.7419266 95.7946427 100.879129 97.6803862 104.50517 96.4835252 108.028837 95.2765336 111.580172 91.5209661 113.453373 87.8609161 112.316171M103.88467 100.970437L104.981672 121.000133C105.03522 121.842659 105.910795 122.173305 106.527316 121.538298L115.16295 112.029795C115.411874 111.753104 115.830124 111.883149 115.833019 112.238697L117.000935 124.79219C117.110925 125.652701 118.022681 125.876821 118.555263 125.215528L131.788753 109.637797C132.201214 109.145287 131.982682 108.517197 131.367609 108.32628L129.244519 107.667754C128.798772 107.526641 128.33421 107.620717 128.012925 108.021919L120.624805 116.856678C120.377328 117.13337 119.969208 117.06558 119.918555 116.665761L118.953251 105.06132C118.882337 104.271366 118.042942 104.009893 117.508914 104.582644L109.565057 113.42017C109.307449 113.724531 108.906566 113.540531 108.894988 113.212651L108.321884 101.907037C108.308859 101.400692 108.017965 101.074196 107.570771 100.93585L105.029431 100.145896C104.38686 99.9466783 103.851384 100.340964 103.88467 100.970437M48.6876824 83.4687442L48.951224 83.1065373C49.0429539 82.9826598 49.002185 82.7928042 48.855126 82.7012426L40.749404 77.6451572C40.6139931 77.5616745 40.4101489 77.5980299 40.3184189 77.7219073L40.0548774 78.0841143C39.9558673 78.2201102 39.9966362 78.4086193 40.130591 78.4934485L48.236313 83.5495339C48.3833721 83.6410955 48.5886724 83.6047401 48.6876824 83.4687442M46.8419687 90.3816586L46.9864387 89.9444601C47.0370032 89.7939957 46.941653 89.6123028 46.7755124 89.5583628L37.548211 86.6129509C37.3950727 86.5646888 37.2101511 86.6569547 37.1610312 86.8074191L37.0151165 87.2446176C36.9616626 87.4092767 37.0555681 87.5895501 37.2087064 87.6392318L46.4360078 90.5846436C46.6035931 90.6385837 46.78707 90.5463178 46.8419687 90.3816586M46.9993361 96.4484731L46.967204 95.9219647C46.9574246 95.7410284 46.8051463 95.587803 46.6361034 95.6008435L37.277274 96.3637101C37.1222016 96.3767506 36.989482 96.5527967 37.0006584 96.7353631L37.0327905 97.2618715C37.0439669 97.4591083 37.1962452 97.6123337 37.3513176 97.5992932L46.710147 96.8364266C46.8791899 96.8217561 47.0105125 96.64571 46.9993361 96.4484731M135.000164 112.132068L135.016925 111.808068C135.022512 111.696068 135.167779 111.599068 135.338188 111.603068L144.712095 111.838068C144.868536 111.842068 145.005422 111.945068 144.999835 112.058068L144.983073 112.382068C144.978883 112.503068 144.830822 112.601068 144.677175 112.597068L135.301872 112.361068C135.132859 112.358068 134.994576 112.253068 135.000164 112.132068M132.015557 118.241624L132.161464 117.8044C132.212026 117.653926 132.395493 117.561655 132.561625 117.615598L141.789882 120.562603C141.941568 120.609448 142.036913 120.791152 141.986351 120.941625L141.843334 121.378849C141.788438 121.543518 141.603526 121.637209 141.448951 121.586104L132.223583 118.64052C132.056006 118.586577 131.960661 118.406293 132.015557 118.241624M128.070597 123.049292L128.358271 122.701858C128.45785 122.581377 128.655626 122.563165 128.785632 122.672438L135.898649 128.721713C136.017591 128.82118 136.034187 129.021515 135.935991 129.141996L135.648317 129.48943C135.539056 129.618317 135.342663 129.635128 135.223721 129.537062L128.109322 123.487787C127.980699 123.378514 127.962719 123.17958 128.070597 123.049292"/>
  </g>
</svg>
